<?xml version="1.0" encoding="UTF-8" standalone="no"?>
<svg width="80px" height="61px" viewBox="0 0 80 61" version="1.1" xmlns="http://www.w3.org/2000/svg" xmlns:xlink="http://www.w3.org/1999/xlink">
    <!-- Generator: Sketch 41.2 (35397) - http://www.bohemiancoding.com/sketch -->
    <title>Afghanistan</title>
    <desc>Created with Sketch.</desc>
    <defs></defs>
    <g id="Page-1" stroke="none" stroke-width="1" fill="none" fill-rule="evenodd">
        <g id="Afghanistan" stroke-width="2" stroke="#979797">
            <polygon id="Shape" points="5.48502251 20.3473309 10.7454338 22.728856 14.6249872 21.9182224 15.7428246 19.0435925 19.8196434 18.0635734 22.7128696 16.1524861 23.7649519 10.9831791 28.1047913 9.71003429 28.893853 7.43222564 31.3267932 9.15545511 32.9049166 9.37736258 35.7323877 9.37736258 39.611941 10.7620007 41.1900644 11.5356886 44.9381075 9.4882784 46.7134964 10.7066905 48.3573749 7.76623236 51.4478666 7.87751674 52.2369283 6.93078252 52.7629694 4.3036182 54.9986442 2 57.7603602 3.51826767 57.234319 5.535143 58.7466873 5.81459481 58.2864013 11.2595117 60.3248107 13.409588 62.1659547 12.0324158 64.4016295 11.4252365 67.6236314 8.48912444 71.1744091 8.98895806 76.5005755 8.98895806 77.4211475 10.8726024 74.396411 11.5909054 71.8319605 12.7490257 65.9139977 13.5195958 60.3248107 14.837786 57.3658293 17.6273956 58.5494219 20.3473309 59.1412181 23.4842903 56.5767676 26.1196077 56.774033 28.5280522 55.3931751 30.7659805 50.4615394 30.6064434 52.4999488 34.6861384 49.2121917 36.2672525 47.0422721 39.9387008 47.3052926 43.6377239 45.2668832 45.296898 43.3599841 44.7789324 39.4146756 45.5557022 38.8886345 47.2092501 35.0090811 47.2092501 32.18161 50.6046223 31.9843446 55.7115227 25.2773202 58.1978672 21.7265425 57.6406083 20.6744602 58.9569336 17.5839686 58.1978672 12.3893124 59.1086322 3.77538883 56.0673507 8.44400389 50.6559134 8.04947304 46.7963152 4.10416453 45.7626602 3.70963368 41.921528 2 37.0035253 4.23567482 33.6294735 2 32.7296645 3.38085798 28.207568"></polygon>
        </g>
    </g>
</svg>