<svg width="80" height="61" viewBox="0 0 80 61" xmlns="http://www.w3.org/2000/svg"><title>Afghanistan</title><path d="M5.485 20.347l5.26 2.382 3.88-.81 1.118-2.875 4.077-.98 2.893-1.912 1.052-5.169 4.34-1.273.789-2.278 2.433 1.723 1.578.222h2.827l3.88 1.385 1.578.774 3.748-2.048 1.775 1.219 1.644-2.94 3.09.11.79-.946.526-2.627L54.999 2l2.761 1.518-.526 2.017 1.513.28-.46 5.445 2.038 2.15 1.841-1.378 2.236-.607 3.222-2.936 3.55.5h5.327l.92 1.884-3.025.718-2.564 1.158-5.918.77-5.59 1.319-2.958 2.79 1.183 2.72.592 3.136-2.564 2.636.197 2.408-1.38 2.238-4.932-.16 2.038 4.08-3.288 1.581-2.17 3.672.263 3.699-2.038 1.659-1.907-.518-3.945.777-.526 1.653h-3.88l-2.827 3.396-.198 5.107-6.707 2.486-3.55-.557-1.053 1.316-3.09-.76-5.195.912-8.614-3.042 4.669-5.411-.395-3.86-3.945-1.033-.394-3.841L2 37.004l2.236-3.375L2 32.73l1.38-4.521z" stroke-width="2" stroke="#979797" fill="none" fill-rule="evenodd"/></svg>