<?xml version="1.0" encoding="UTF-8" standalone="no"?>
<svg width="46px" height="60px" viewBox="0 0 46 60" version="1.1" xmlns="http://www.w3.org/2000/svg" xmlns:xlink="http://www.w3.org/1999/xlink">
    <!-- Generator: Sketch 41.2 (35397) - http://www.bohemiancoding.com/sketch -->
    <title>Colombia</title>
    <desc>Created with Sketch.</desc>
    <defs></defs>
    <g id="Page-1" stroke="none" stroke-width="1" fill="none" fill-rule="evenodd">
        <g id="Colombia" stroke-width="2" stroke="#9B9B9B">
            <polygon id="Shape" points="15.2795772 44.0354739 13.809487 43.2237933 12.166445 42.0932267 11.2152101 42.6440192 8.31826759 42.1801946 7.49674658 40.70169 6.84817736 40.7596731 3.47561743 38.8460709 3 37.7731077 4.29713844 37.5120914 4.12418664 35.8297061 4.94570765 34.5820556 6.58874967 34.3789162 8.01560195 32.2307886 9.31274039 30.4590096 8.10207785 29.6453797 8.70740912 27.6683815 7.97236401 24.5541188 8.66417117 23.6509828 8.1453158 20.7638117 6.76170147 18.9531741 7.19408094 17.2866849 8.31826759 17.5499393 8.92359886 16.5259017 8.1453158 14.5048735 8.57769528 14.0064685 10.3072132 14.1237575 12.8582521 11.7171456 14.2418664 11.3351743 14.2851044 10.2179303 14.9336736 7.30199349 16.8793813 5.70811755 18.9980407 5.61949611 19.2574684 4.91024269 21.9382212 5.20582615 24.575736 3.46059502 25.9161124 2.69050524 27.5591544 1 28.7698169 1.20777419 29.6345759 2.12734794 28.9860067 3.31254938 26.8241093 3.87500112 25.9593503 5.61949611 24.6189739 6.59390779 23.6677391 7.89170147 23.2353596 10.3355857 22.2841248 12.3632818 24.0568806 12.5687987 24.4892601 14.1530781 25.2243052 14.9151823 25.4837329 16.2917324 25.0945914 17.5499393 25.2243052 18.2809542 26.0458262 18.5440321 26.8673472 19.7419293 31.23438 19.4206324 33.1800876 19.8587485 35.5581748 22.8057265 36.9417891 22.4266927 39.4063521 22.6016413 41.3088218 22.2225646 42.5194844 22.8057265 41.9141531 24.641497 41.13587 25.7770748 40.8764423 28.2209342 41.5682495 30.4880635 42.5194844 31.5047714 42.6491982 32.259826 40.9196803 33.9435836 42.1735808 34.6981308 43.0383397 35.8877283 44.0760505 39.2520181 43.4707192 39.686941 42.7789121 37.6861035 41.8709151 36.6129495 40.7467285 37.7731077 34.1313225 37.6861035 34.1745604 39.8319109 36.163506 40.1798304 36.0337922 41.4844426 35.341985 41.1075667 33.4395153 41.6873726 33.4395153 44.1514286 34.9528435 45.3689753 35.4716989 47.3114226 35.385223 48.7902459 33.8718948 58.1086322 32.1856148 56.306869 31.1479041 56.219716 33.3530394 52.7645235 30.7587625 51.1686391 28.726579 51.4587584 27.4726785 50.8785369 25.6134467 51.77791 23.1056458 51.3427086 21.0734622 47.7753395 19.5168961 46.9055132 18.4359474 45.3109956 16.1875741 43.7165991"></polygon>
        </g>
    </g>
</svg>