<svg width="46" height="60" viewBox="0 0 46 60" xmlns="http://www.w3.org/2000/svg"><title>Colombia</title><path d="M15.28 44.035l-1.47-.811-1.644-1.13-.95.55-2.898-.464-.821-1.478-.649.058-3.372-1.914L3 37.773l1.297-.26-.173-1.683.822-1.248 1.643-.203 1.427-2.148 1.297-1.772-1.21-.814.604-1.977-.735-3.114.692-.903-.519-2.887-1.383-1.81.432-1.667 1.124.263.606-1.024-.779-2.021.433-.499 1.73.118 2.55-2.407 1.384-.382.043-1.117.649-2.916 1.945-1.594 2.119-.089.26-.709 2.68.296 2.638-1.745 1.34-.77L27.56 1l1.21.208.866.92-.649 1.185-2.162.562-.865 1.744-1.34.975-.951 1.298-.433 2.444-.95 2.027 1.772.206.432 1.584.735.762.26 1.377-.39 1.258.13.731.822.263.821 1.198 4.367-.321 1.946.438 2.378 2.947 1.384-.38 2.464.176 1.903-.38 1.21.584-.605 1.835-.778 1.136-.26 2.444.692 2.267.951 1.017.13.755-1.73 1.684 1.255.754.864 1.19 1.038 3.364-.605.435-.692-2-.908-1.074-1.124 1.16-6.616-.087.044 2.146 1.989.348-.13 1.304-.692-.376-1.902.58v2.463l1.513 1.218.519 1.942-.087 1.48-1.513 9.318-1.686-1.802-1.038-.087 2.205-3.455-2.594-1.596-2.032.29-1.254-.58-1.86.899-2.507-.435-2.033-3.568-1.556-.87-1.081-1.594-2.248-1.594z" stroke-width="2" stroke="#9B9B9B" fill="none" fill-rule="evenodd"/></svg>