<svg width="55" height="61" viewBox="0 0 55 61" xmlns="http://www.w3.org/2000/svg"><title>Gabon</title><path d="M22.791 59.109l-9.356-9.155-5.89-7.442L2 33.138l.231-3.021 2.08-2.865 2.194-6.583 1.732-6.738 3.12-.542 13.167.077-.116-10.846 4.39-.62 5.428 1.24L39.656 2l1.039.543-.578 3.952 2.541 4.648 6.7-.697 2.31 1.781-3.927 10.533 4.274 5.343.924 7.049-1.155 6.043-2.773 4.262-7.97-.388-4.85-4.34-.694 4.03-6.122 1.086-3.119 2.325 3.466 5.972z" stroke-width="2" stroke="#979797" fill="none" fill-rule="evenodd"/></svg>