<?xml version="1.0" encoding="UTF-8" standalone="no"?>
<svg width="55px" height="61px" viewBox="0 0 55 61" version="1.1" xmlns="http://www.w3.org/2000/svg" xmlns:xlink="http://www.w3.org/1999/xlink">
    <!-- Generator: Sketch 41.2 (35397) - http://www.bohemiancoding.com/sketch -->
    <title>Gabon</title>
    <desc>Created with Sketch.</desc>
    <defs></defs>
    <g id="Page-1" stroke="none" stroke-width="1" fill="none" fill-rule="evenodd">
        <g id="Gabon" stroke-width="2" stroke="#979797">
            <polygon id="Shape" points="22.7912752 59.1086322 13.4352014 49.9536996 7.54434006 42.5119088 2 33.1376502 2.23101417 30.1170415 4.31014169 27.251558 6.5047763 20.6690299 8.23738256 13.9312097 11.3560738 13.3890344 24.5238815 13.4664886 24.4083744 2.62002285 28.7976436 2 34.2264766 3.24001653 39.6553096 2 40.6948733 2.54252161 40.1173379 6.49453984 42.6584938 11.1427604 49.3579047 10.4455974 51.6680464 12.2271938 47.7408055 22.7599421 52.0145676 28.1034413 52.9386243 35.1515724 51.7835534 41.1945516 49.0113834 45.4570551 41.0413946 45.0694967 36.190097 40.7296303 35.4970545 44.7594589 29.375179 45.8446259 26.2564878 48.170325 29.7217003 54.1420368"></polygon>
        </g>
    </g>
</svg>