<svg width="82" height="61" viewBox="0 0 82 61" xmlns="http://www.w3.org/2000/svg"><title>Guinea</title><path d="M73.363 55.064l-2.99-.276-2.175 4.32h-2.99l-2.04-2.297.68-4.322-4.486-6.63-2.854 1.198-2.175.276-2.99.553.135-3.87-1.767-2.86.408-3.138-2.31-4.528-2.991-3.885h-8.564l-2.446 2.036-2.855.277-1.903 2.312-1.223 2.957-5.71 4.8-4.621-6.463-4.214-4.16-2.718-1.48-2.583-2.13-1.223-4.726-1.632-2.412L2 18.852l4.758-5.297 3.262.186 2.854-1.86h2.311l1.631-1.49-.815-3.54 1.087-1.212L17.36 2l5.03.093L30.136 4.8l2.311-.28.816-1.213 5.845.84 1.495-.56.68 3.917h1.63l2.72-1.398 1.766.373 2.99 2.702 4.623.931 2.854-2.422 3.534-1.398 2.583-1.585 2.039.28L68.47 7.41l1.223 2.98 4.35 4.56-2.175 2.787-.408 3.528 2.31-1.021 1.224 1.299-.544 3.153 3.263 3.15-2.04.833-.95 3.7 2.446 4.437 2.719 8.673-3.942 1.29-1.088 1.474.816 2.118-.544 4.692z" stroke-width="2" stroke="#9B9B9B" fill="none" fill-rule="evenodd"/></svg>