<?xml version="1.0" encoding="UTF-8" standalone="no"?>
<svg width="82px" height="61px" viewBox="0 0 82 61" version="1.1" xmlns="http://www.w3.org/2000/svg" xmlns:xlink="http://www.w3.org/1999/xlink">
    <!-- Generator: Sketch 41.2 (35397) - http://www.bohemiancoding.com/sketch -->
    <title>Guinea</title>
    <desc>Created with Sketch.</desc>
    <defs></defs>
    <g id="Page-1" stroke="none" stroke-width="1" fill="none" fill-rule="evenodd">
        <g id="Guinea" stroke-width="2" stroke="#9B9B9B">
            <polygon id="Shape" points="73.3630093 55.0641928 70.3725594 54.788307 68.1976867 59.1086322 65.2072368 59.1086322 63.1682937 56.8110845 63.8479414 52.4886034 59.3622665 45.858666 56.5077462 47.0565068 54.3328735 47.3328825 51.3424236 47.8855791 51.4783531 44.015151 49.7112691 41.1560301 50.1190577 38.0178146 47.8082555 33.4904985 44.8178056 29.6054517 36.2542445 29.6054517 33.8075127 31.6410041 30.9529924 31.918489 29.0499788 34.2300315 27.8266129 37.186679 22.1175722 41.9863099 17.4959677 35.5238551 13.2821519 31.3634977 10.5635611 29.8830962 7.98089983 27.7539226 6.75753395 23.0279738 5.12637946 20.6160797 2 18.8524068 6.75753395 13.5554735 10.019843 13.741484 12.8743633 11.8808673 15.1851655 11.8808673 16.81632 10.3915482 16.0007428 6.85141673 17.0881791 5.63933351 17.3600382 2 22.3894312 2.09337476 30.1374151 4.79990014 32.4482173 4.52003434 33.2637946 3.30696468 39.1087648 4.14683725 40.6039898 3.58694983 41.2836375 7.50386717 42.914792 7.50386717 45.6333828 6.10557952 47.4004669 6.47852214 50.3909168 9.18092909 55.0125212 10.1122184 57.8670416 7.69025476 61.4012097 6.29205684 63.983871 4.70661459 66.0228141 4.98646212 68.4695458 7.41066891 69.6929117 10.3915482 74.042657 14.9502777 71.8677844 17.7380064 71.4599957 21.2656111 73.7707979 20.2448605 74.9941638 21.543942 74.4504457 24.6967136 77.7127546 27.8465226 75.6738115 28.6798106 74.7223047 32.380916 77.1690365 36.8172265 79.8876273 45.4900297 75.9456706 46.7801127 74.8582343 48.2540032 75.6738115 50.3718218 75.1300934 55.0641928"></polygon>
        </g>
    </g>
</svg>