<?xml version="1.0" encoding="UTF-8" standalone="no"?>
<svg width="61px" height="61px" viewBox="0 0 61 61" version="1.1" xmlns="http://www.w3.org/2000/svg" xmlns:xlink="http://www.w3.org/1999/xlink">
    <!-- Generator: Sketch 41.2 (35397) - http://www.bohemiancoding.com/sketch -->
    <title>Iraq</title>
    <desc>Created with Sketch.</desc>
    <defs></defs>
    <g id="Page-1" stroke="none" stroke-width="1" fill="none" fill-rule="evenodd">
        <g id="Iraq" stroke-width="2" stroke="#9B9B9B">
            <polygon id="Shape" points="40.1681548 12.1251883 43.9115699 14.2494744 44.3519717 18.3540367 41.4893601 20.8147015 40.1681548 26.2392119 44.1317708 32.7892373 51.1781994 36.5337458 54.1142113 41.7033761 53.2334077 46.6012025 55.0684152 46.6012025 55.0684152 50.150221 58.2980283 53.6232068 54.8482143 53.3392253 51.0313988 52.7708954 46.7741816 59.1086322 36.0577381 58.6015563 19.8362723 45.2221102 11.2484375 40.4874432 4.34880952 38.6300232 2 30.3192752 14.7716518 23.0860107 16.9002604 14.6128362 16.3864583 9.38209146 19.5426711 7.6071315 22.478683 3.11367192 24.9742932 2 31.6537202 2.92821809 33.7089286 4.77992768 36.4247396 3.54615238"></polygon>
        </g>
    </g>
</svg>