<?xml version="1.0" encoding="UTF-8" standalone="no"?>
<svg width="73px" height="61px" viewBox="0 0 73 61" version="1.1" xmlns="http://www.w3.org/2000/svg" xmlns:xlink="http://www.w3.org/1999/xlink">
    <!-- Generator: Sketch 41.2 (35397) - http://www.bohemiancoding.com/sketch -->
    <title>Nigeria</title>
    <desc>Created with Sketch.</desc>
    <defs></defs>
    <g id="Page-1" stroke="none" stroke-width="1" fill="none" fill-rule="evenodd">
        <g id="Nigeria" stroke-width="2" stroke="#9B9B9B">
            <polygon id="Shape" points="35.864765 55.9974997 29.7750485 58.1052871 27.5471034 57.804239 25.3191584 59.1086322 20.7147386 58.9581448 17.5956155 55.294663 15.6647297 51.0748953 11.505899 47.2022258 7.12427365 47.2525504 2 47.2525504 2.37132418 37.7252729 2.22279451 33.9853082 3.2625022 30.2391616 5.11912309 28.4143333 7.94118684 24.7597258 7.27280332 23.1332439 8.46104069 20.7417683 7.12427365 17.2250769 7.34706816 15.2341959 7.79265717 9.91328354 9.42648356 7.50268376 10.2433967 4.00808515 11.8029583 2.72117925 18.0412045 2 23.8338617 4.26532709 26.0618067 6.52708889 29.0324001 6.62981329 31.7801991 5.13960629 38.8353584 8.27244062 41.8059519 8.11852075 45.2221343 5.55084943 48.6383167 5.75642752 50.3464079 4.88252023 53.465531 5.24242797 57.995686 6.98929259 62.525841 3.64786877 63.862608 3.85371781 67.8729091 10.4256875 68.9126168 10.3232203 71.2148267 12.6782744 70.6207081 13.8033743 70.2493839 15.7449034 65.3479047 20.3853218 63.862608 24.20078 63.0456948 27.2476201 61.7831926 28.5664639 60.5949553 32.7204334 57.4758322 35.1483695 56.5846541 38.1797348 55.2478871 40.5516976 54.7280332 42.971901 50.7177321 44.9871102 47.4500794 42.5686846 45.2221343 42.6694943 41.8059519 46.0948737 40.0978606 46.1452167 37.3500617 51.8287869"></polygon>
        </g>
    </g>
</svg>