<svg width="73" height="61" viewBox="0 0 73 61" xmlns="http://www.w3.org/2000/svg"><title>Nigeria</title><path d="M35.865 55.997l-6.09 2.108-2.228-.3-2.228 1.304-4.604-.15-3.12-3.664-1.93-4.22-4.16-3.873-4.38.05H2l.371-9.527-.148-3.74 1.04-3.746 1.856-1.825 2.822-3.654-.668-1.627 1.188-2.391-1.337-3.517.223-1.99.446-5.322 1.633-2.41.817-3.495 1.56-1.287L18.041 2l5.793 2.265 2.228 2.262 2.97.103 2.748-1.49 7.055 3.132 2.971-.153 3.416-2.568 3.416.205 1.708-.873 3.12.36 4.53 1.746 4.53-3.341 1.337.206 4.01 6.572 1.04-.103 2.302 2.355-.594 1.125-.372 1.942-4.901 4.64-1.485 3.816-.817 3.047-1.263 1.318-1.188 4.154-3.12 2.428-.89 3.032-1.337 2.372-.52 2.42-4.01 2.015-3.268-2.418-2.228.1-3.416 3.426-1.708.05-2.748 5.684z" stroke-width="2" stroke="#9B9B9B" fill="none" fill-rule="evenodd"/></svg>