<?xml version="1.0" encoding="UTF-8" standalone="no"?>
<svg width="89px" height="61px" viewBox="0 0 89 61" version="1.1" xmlns="http://www.w3.org/2000/svg" xmlns:xlink="http://www.w3.org/1999/xlink">
    <!-- Generator: Sketch 41.2 (35397) - http://www.bohemiancoding.com/sketch -->
    <title>Ukraine</title>
    <desc>Created with Sketch.</desc>
    <defs></defs>
    <g id="Page-1" stroke="none" stroke-width="1" fill="none" fill-rule="evenodd">
        <g id="Ukraine" stroke-width="2" stroke="#9B9B9B">
            <polygon id="Shape" points="48.0412499 3.85382858 49.7957784 4.11784804 51.0057981 2.39809124 52.4578218 2.79572183 57.3584016 2 60.3834509 6.41944238 59.1734312 7.92362318 59.5969381 10.3298021 63.4085001 10.6536895 65.0420267 13.9403048 64.9815258 15.412481 70.9711233 18.0216285 74.6011824 16.8785243 77.5657307 20.2968215 80.348776 20.2338184 87.3063894 22.6201309 87.3668903 24.8040239 85.4308588 28.5787651 86.5198765 32.4972237 85.7333637 34.8645168 81.1352889 35.4086469 78.7152494 37.3368277 78.5942475 40.4487757 74.7826854 41.044241 71.6366341 43.2983572 67.1595612 43.6530284 63.1059952 46.1850567 63.3479992 50.4450234 65.7075376 52.0663721 70.5476164 51.6616812 69.5796006 54.0834243 64.4370169 55.2312789 57.9634115 59.1086322 55.3618691 57.7445861 56.3903858 54.6003832 51.1873011 52.6437588 52.0343149 51.3723532 56.5718888 49.1080099 55.1803661 47.5324268 47.7992459 45.7740285 47.496741 43.2392126 43.0801691 44.0663866 41.3256405 47.8831244 37.6955814 52.8744694 35.5175459 51.7195205 33.2790094 52.8168048 31.1614749 51.5459764 32.3714947 50.8510083 33.2185084 48.4668978 34.4890291 46.3024108 34.1260232 45.0683608 35.15454 44.5382376 35.6385479 45.4801614 38.4215932 45.6565092 39.6921139 45.1860642 38.7845991 44.4792887 39.147605 43.4757349 37.4535774 41.6981526 36.7880666 38.7763671 35.033538 37.6371953 35.3965439 35.2273599 33.2185084 33.3487873 31.2824769 33.0448856 27.7734198 30.8492793 24.6273685 31.5215655 23.5383508 32.6189975 21.4813173 32.6189975 20.3317986 34.2589785 16.8227414 34.9250156 15.1892148 36.0122908 13.0111793 34.3195774 9.92562908 34.2589785 7.02158178 33.4702772 4.96454828 34.9855045 4.66204336 33.1056862 2 31.1550181 2.90751478 28.2708434 4.23853646 26.3558401 5.26705321 26.7891507 4.0570335 23.5577181 8.35260346 17.3870273 10.7121419 16.5603375 11.1961498 14.453066 8.83661135 7.85835954 11.1356488 7.53185704 13.7371912 5.5006441 17.3672503 5.30344062 22.1468281 5.89471377 27.4709148 7.72779541 31.2219759 7.92362318 32.9765045 8.96617667 34.7915341 7.66249492 36.0015538 9.4213123 40.2971237 9.09627621 42.1726543 9.81095528 42.4751592 5.9603484 43.9271829 4.31572999"></polygon>
        </g>
    </g>
</svg>