<svg width="89" height="61" viewBox="0 0 89 61" xmlns="http://www.w3.org/2000/svg"><title>Ukraine</title><path d="M48.041 3.854l1.755.264 1.21-1.72 1.452.398 4.9-.796 3.025 4.42-1.21 1.504.424 2.406 3.812.324 1.633 3.286-.06 1.472 5.99 2.61 3.63-1.143 2.964 3.418 2.783-.063 6.957 2.386.06 2.184-1.935 3.775 1.089 3.918-.787 2.368-4.598.544-2.42 1.928-.12 3.112-3.812.595-3.146 2.254-4.477.355-4.054 2.532.242 4.26 2.36 1.621 4.84-.404-.968 2.421-5.143 1.148-6.474 3.878-2.601-1.364L56.39 54.6l-5.203-1.956.847-1.272 4.538-2.264-1.392-1.576-7.38-1.758-.303-2.535-4.417.827-1.754 3.817-3.63 4.991-2.178-1.154-2.239 1.097-2.118-1.271 1.21-.695.848-2.384 1.27-2.165-.363-1.234 1.029-.53.484.942 2.783.177 1.27-.47-.907-.708.363-1.003-1.694-1.778-.666-2.922-1.754-1.139.363-2.41-2.178-1.878-1.937-.304-3.509-2.196-3.146.673-1.089 1.097h-2.057l-1.15 1.64-3.508.666-1.634 1.087-2.178-1.692-3.085-.061-2.904-.789-2.057 1.516-.303-1.88L2 31.155l.908-2.884 1.33-1.915 1.03.433-1.211-3.231 4.296-6.171 2.36-.827.483-2.107-2.36-6.595 2.3-.326L13.737 5.5l3.63-.198 4.78.592 5.324 1.833 3.751.196 1.755 1.042 1.815-1.304 1.21 1.76 4.295-.326 1.876.715.302-3.85 1.452-1.645z" stroke-width="2" stroke="#9B9B9B" fill="none" fill-rule="evenodd"/></svg>