<svg width="79" height="103" viewBox="0 0 79 103" xmlns="http://www.w3.org/2000/svg"><path d="M77.41 35.802c0-18.689-14.387-33.975-38.374-33.975-23.983 0-37.176 15.286-37.176 33.975 0 18.688 5.275 16.294 5.275 26.837 0 3.955-3.836 2.03-3.836 10.543 0 9.345 13.07 8.03 16.91 11.855 3.836 3.836 2.382 9.145 3.475 10.908 1.093 1.764 6.861 4.487 15.952 4.84 10.228-.353 15.341-3.194 15.942-4.84.6-1.645-.376-7.068 3.475-10.908 3.836-3.836 16.907-2.51 16.907-11.855 0-8.502-3.84-6.588-3.84-10.543.014-10.543 5.29-8.145 5.29-26.837zM20.954 71.387c-6.447 1.03-9.365-.776-10.07-5.389-1.836-12.02 9.238-13.964 14.749-13.303 2.643.318 7.195 3.117 7.195 6.596.004 9.34-5.872 11.14-11.874 12.096zM43.111 86.96h-6.71c-1.201 0-3.002-1.192-3.121-4.071-.12-2.875 3.717-14.495 6.48-14.495 2.754 0 6.59 11.62 6.479 14.495-.12 2.879-1.92 4.07-3.128 4.07zm24.948-20.96c-.705 4.612-3.63 6.418-10.077 5.388-5.994-.96-11.87-2.76-11.87-12.1 0-3.478 4.549-6.321 7.195-6.62 5.51-.633 16.59 1.31 14.752 13.331z" fill="#FFF" fill-rule="evenodd"/></svg>
