<svg width="134" height="125" viewBox="0 0 134 125" xmlns="http://www.w3.org/2000/svg"><title>Killing</title><g fill="none" fill-rule="evenodd"><g fill="#D0011B" transform="translate(2)"><ellipse transform="rotate(-78.832 34.018 12.983)" cx="34.018" cy="12.983" rx="11" ry="11"/><path d="M71.718 55.79l.277-.7c.11.036.218.075.33.112a3.97 3.97 0 0 0 5.022-2.51 3.964 3.964 0 0 0-2.44-4.99l.207-.525 16.162 6.364 2.366-5.999-22.78-8.97-2.366 5.999 2 .788-.27.686c-9.344-3.484-16.647-7.366-21.764-10.512-2.967-1.823-5.2-3.398-6.674-4.501a49.25 49.25 0 0 1-2.024-1.593c-.562-.49-1.1-.768-1.664-.922a3.822 3.822 0 0 0-1.228-.204h-18.39a3.96 3.96 0 0 0-1.702.073c-.528.137-4.796 1.406-8.925 6.286C3.715 39.54-.02 47.876 0 61.24c0 2.65.143 5.502.454 8.576a3.97 3.97 0 0 0 4.35 3.548 3.968 3.968 0 0 0 3.55-4.348 77.235 77.235 0 0 1-.414-7.777c.022-11.878 3.16-18.05 5.921-21.376v24.468L8.07 115.789a6.133 6.133 0 0 0 5.411 6.779 6.136 6.136 0 0 0 6.784-5.409l5.32-47.26h3.4l5.319 47.26a6.136 6.136 0 0 0 6.784 5.409 6.133 6.133 0 0 0 5.412-6.78l-5.792-51.451V39.986c5.452 3.66 14.395 8.874 26.606 13.442l-.215.545 4.619 1.818z"/></g><g transform="translate(73.47 48.109)" fill="#FFF"><circle transform="rotate(-44.741 47.422 15.848)" cx="47.422" cy="15.848" r="11"/><path d="M34.838 63.38L17.91 50.397c4.228-5.999 10.85-11.065 14.824-15.288 3.835-3.422 5.404-9.415 2.378-12.562-2.145-2.23-6-3.54-10.193-2.397 1.344.318 2.44.669 3.201.942l.085.031.02.007.031.011a4.964 4.964 0 0 1 2.844 6.412 4.994 4.994 0 0 1-4.633 3.176c-.608 0-1.208-.11-1.78-.33l-.002-.002-.057-.02a12.103 12.103 0 0 0-.36-.122c-.249-.08-.775-.242-1.467-.412-.922-.224-2.755-.601-4.683-.601h-.06c-1.466 0-2.81.22-3.89.636-1.073.42-2.638.922-3.518 1.72-.373.45-.737.908-1.093 1.373.243-.502.504-.937.772-1.316l-.002-.037c.063-.071.129-.14.188-.218.948-1.228 2.013-1.944 3.294-2.446 1.275-.492 2.772-.707 4.281-.704 1.823-.003 3.634.31 4.946.63a23.1 23.1 0 0 1 1.54.432c.176.057.308.103.388.132l.08.028a3.972 3.972 0 0 0 5.13-2.276 3.966 3.966 0 0 0-2.276-5.129c-.256-.081-4.431-1.732-9.807-1.754-2.22.003-4.675.295-7.128 1.233-.516.196-1.03.43-1.54.692a15.222 15.222 0 0 0-5.222 4.35C1.848 29.672.436 33.833.125 39.18a68.993 68.993 0 0 0 5.106.46c-.261.471-.522.954-.784 1.448-1.586-.099-3.125-.26-4.376-.414-.005.28-.01.557-.01.842 0 .814.021 1.656.069 2.53A3.961 3.961 0 0 0 1.86 47.11c-1.316 5.284.96 7.682 3.984 9.658.034.027.064.057.098.083l6.844 5.25H7.404A6.202 6.202 0 0 0 1.2 68.3c0 3.422 2.778 6.199 6.204 6.199H31.06a6.2 6.2 0 0 0 3.777-11.12z"/></g></g></svg>
