<svg xmlns="http://www.w3.org/2000/svg" width="70" height="59" viewBox="0 0 70 59">
  <g fill="#FFFFFF" fill-rule="evenodd">
    <path d="M11.4028409 20.9984189C12.1569318 20.9984189 12.8354545 20.3932703 12.8354545 19.5624865 12.8354545 18.7317027 12.1561364 18.0516081 11.4028409 18.0516081 10.64875 18.0516081 10.0457955 18.7317027 10.0457955 19.5624865 10.0457955 20.3932703 10.64875 20.9984189 11.4028409 20.9984189zM14.8710227 19.639027C15.6998864 19.639027 16.3784091 18.9589324 16.3784091 18.0516081 16.3784091 17.220027 15.6998864 16.5399324 14.8710227 16.5399324 14.0413636 16.5399324 13.4384091 17.220027 13.4384091 18.0516081 13.4384091 18.9589324 14.0413636 19.639027 14.8710227 19.639027zM22.7110227 18.8074459C23.6910227 18.8074459 24.4451136 18.0516081 24.4451136 17.0693378 24.4451136 16.0870676 23.6910227 15.2554865 22.7110227 15.2554865 21.8065909 15.2554865 21.0525 16.0870676 21.0525 17.0693378 21.0525 18.0516081 21.8065909 18.8074459 22.7110227 18.8074459zM18.7154545 18.9589324C19.5451136 18.9589324 20.2992045 18.2030946 20.2992045 17.2965676 20.2992045 16.3142973 19.5451136 15.5584595 18.7154545 15.5584595 17.8110227 15.5584595 17.1325 16.3142973 17.1325 17.2965676 17.1325 18.2030946 17.8110227 18.9589324 18.7154545 18.9589324zM34.0955682 9.43681081C31.9096591 9.89047297 30.3259091 11.8550135 30.3259091 14.2732162 30.3259091 16.9935946 32.3622727 19.2611081 34.9244318 19.2611081 37.4126136 19.2611081 39.52375 16.9935946 39.52375 14.2732162 39.52375 11.8550135 37.8652273 9.89047297 35.7540909 9.43681081L35.7540909 6.56574324 39.9763636 6.56574324 39.9763636 4.75189189 35.7540909 4.75189189 35.7540909.747067568 34.0955682.747067568 34.0955682 4.75189189 29.8740909 4.75189189 29.8740909 6.56574324 34.0955682 6.56574324 34.0955682 9.43681081zM34.9244318 10.9484865C36.5829545 10.9484865 37.94 12.4601622 37.94 14.2732162 37.94 16.0870676 36.5829545 17.5987432 34.9244318 17.5987432 33.1903409 17.5987432 31.8332955 16.0870676 31.8332955 14.2732162 31.8332955 12.4601622 33.1911364 10.9484865 34.9244318 10.9484865zM64.1009091 24.7768108C64.7794318 24.7768108 65.3823864 24.1716622 65.3823864 23.4166216 65.3823864 22.736527 64.7794318 22.1313784 64.1009091 22.1313784 63.4223864 22.1313784 62.8942045 22.736527 62.8942045 23.4166216 62.8942045 24.1724595 63.4223864 24.7768108 64.1009091 24.7768108zM8.38727273 22.7373243C9.14056818 22.7373243 9.74431818 22.1321757 9.74431818 21.3771351 9.74431818 20.5455541 9.14056818 19.942 8.38727273 19.942 7.70875 19.942 7.105 20.5463514 7.105 21.3771351 7.10579545 22.1321757 7.70875 22.7373243 8.38727273 22.7373243zM66.5890909 28.6309459C66.5890909 29.3110405 67.0409091 29.8396486 67.7202273 29.8396486 68.3231818 29.8396486 68.8505682 29.3110405 68.8505682 28.6309459 68.8505682 27.9508514 68.3231818 27.4222432 67.7202273 27.4222432 67.0409091 27.4222432 66.5890909 27.9508514 66.5890909 28.6309459zM47.2889773 18.8074459C48.1934091 18.8074459 48.9475 18.0516081 48.9475 17.0693378 48.9475 16.0870676 48.1934091 15.2554865 47.2889773 15.2554865 46.3089773 15.2554865 45.5556818 16.0870676 45.5556818 17.0693378 45.5548864 18.0516081 46.3089773 18.8074459 47.2889773 18.8074459zM67.4179545 31.6535C67.4179545 32.2578514 67.8697727 32.863 68.5490909 32.863 69.1520455 32.863 69.6794318 32.2578514 69.6794318 31.6535 69.6794318 30.9734054 69.1520455 30.4447973 68.5490909 30.4447973 67.8705682 30.4447973 67.4179545 30.9734054 67.4179545 31.6535zM64.9305682 26.0620541C64.9305682 26.7421486 65.5335227 27.2707568 66.1364773 27.2707568 66.815 27.2707568 67.3423864 26.7421486 67.3423864 26.0620541 67.3423864 25.3062162 66.815 24.7776081 66.1364773 24.7776081 65.5335227 24.7768108 64.9305682 25.3062162 64.9305682 26.0620541zM51.2845455 18.9589324C52.1897727 18.9589324 52.8682955 18.2030946 52.8682955 17.2965676 52.8682955 16.3142973 52.1897727 15.5584595 51.2845455 15.5584595 50.4548864 15.5584595 49.7015909 16.3142973 49.7015909 17.2965676 49.7015909 18.2030946 50.4548864 18.9589324 51.2845455 18.9589324zM55.1289773 19.639027C55.9586364 19.639027 56.5615909 18.9589324 56.5615909 18.0516081 56.5615909 17.220027 55.9578409 16.5399324 55.1289773 16.5399324 54.3001136 16.5399324 53.6215909 17.220027 53.6215909 18.0516081 53.6215909 18.9589324 54.3001136 19.639027 55.1289773 19.639027zM61.6135227 22.7373243C62.2920455 22.7373243 62.895 22.1321757 62.895 21.3771351 62.895 20.5455541 62.2920455 19.942 61.6135227 19.942 60.8594318 19.942 60.2564773 20.5463514 60.2564773 21.3771351 60.2556818 22.1321757 60.8594318 22.7373243 61.6135227 22.7373243zM58.5971591 20.9984189C59.35125 20.9984189 59.9542045 20.3932703 59.9542045 19.5624865 59.9542045 18.7317027 59.35125 18.0516081 58.5971591 18.0516081 57.8438636 18.0516081 57.1653409 18.7317027 57.1653409 19.5624865 57.1653409 20.3932703 57.8438636 20.9984189 58.5971591 20.9984189zM2.80795455 37.3964324C2.80795455 36.8678243 2.35534091 36.3384189 1.82795455 36.3384189 1.30056818 36.3384189.847954545 36.867027.847954545 37.3964324.847954545 37.9250405 1.30056818 38.3787027 1.82795455 38.3787027 2.35534091 38.3787027 2.80795455 37.9250405 2.80795455 37.3964324zM54.6771591 51.0740676C53.3193182 52.4342568 53.0186364 52.8121757 52.3393182 53.1892973 52.1889773 53.7936486 51.8875 54.4737432 50.9075 55.6075 52.3393182 54.5494865 52.6415909 54.4737432 53.3193182 54.3230541 53.0942045 53.6429595 53.9230682 52.2827703 54.6771591 51.0740676zM59.6527273 49.6381351C58.4460227 50.0917973 58.5971591 52.0563378 60.0297727 51.3762432 59.955 50.9233784 60.4068182 50.393973 60.5571591 50.6961486 60.8586364 51.1498108 60.1801136 52.3585135 58.8230682 52.5857432 57.7675 52.7372297 57.2401136 52.3585135 57.0134091 51.7541622 56.8622727 51.3005 57.1645455 50.3931757 57.9934091 49.6381351 58.9734091 48.6558649 60.0289773 48.3536892 60.9334091 48.6558649 61.0089773 48.6558649 61.1601136 48.7308108 61.2348864 48.7308108 61.1601136 48.2779459 60.2548864 48.1264595 59.8778409 48.2022027 56.7119318 48.7308108 55.0526136 51.5269324 54.9778409 51.5269324 53.6955682 53.5672162 55.20375 55.6075 58.7467045 54.2473108 61.4607955 52.8113784 61.6867045 50.6953514 61.0081818 49.8645676 60.7082955 49.4866486 60.2556818 49.4117027 59.6527273 49.6381351zM44.8763636 53.1892973C44.2734091 52.8113784 44.1230682 52.4342568 43.2178409 51.0740676 43.5948864 52.2827703 43.8963636 53.6429595 43.4445455 54.3230541 44.1230682 54.4745405 44.4245455 54.5502838 45.4801136 55.6075 44.8763636 54.4745405 44.8007955 53.7944459 44.8763636 53.1892973zM39.0711364 48.2022027C38.6940909 48.1272568 37.7140909 48.2779459 37.4881818 48.7308108 37.6393182 48.7308108 37.7896591 48.6558649 37.8652273 48.6558649 38.8452273 48.3536892 39.8252273 48.6558649 40.50375 49.6381351 41.0311364 50.393973 40.9563636 51.3005 40.6548864 51.7541622 40.2022727 52.3585135 39.5993182 52.7364324 38.6193182 52.5857432 37.3378409 52.3585135 37.1111364 51.1498108 37.4881818 50.6961486 37.7896591 50.393973 38.0163636 50.9233784 37.8652273 51.3762432 38.9963636 52.0563378 39.8252273 50.0917973 38.7696591 49.6381351 38.2422727 49.4117027 37.7140909 49.4866486 37.3378409 49.8645676 36.4326136 50.6961486 35.9052273 52.8113784 38.0911364 54.2473108 41.1822727 55.6075 43.3689773 53.5672162 42.7660227 51.5269324 42.7652273 51.5269324 42.0867045 48.7308108 39.0711364 48.2022027zM30.9288636 49.6381351C29.8732955 50.0917973 30.7029545 52.0563378 31.8332955 51.3762432 31.6829545 50.9233784 31.9088636 50.393973 32.2103409 50.6961486 32.5873864 51.1498108 32.3614773 52.3585135 31.0792045 52.5857432 30.0992045 52.7372297 29.4206818 52.3585135 29.0436364 51.7541622 28.6665909 51.3005 28.6665909 50.3931757 29.1947727 49.6381351 29.8732955 48.6558649 30.8532955 48.3536892 31.7577273 48.6558649 31.9088636 48.6558649 32.0592045 48.7308108 32.1347727 48.7308108 31.9836364 48.2779459 31.0036364 48.1264595 30.6273864 48.2022027 27.6118182 48.7308108 26.9332955 51.5269324 26.9332955 51.5269324 26.3303409 53.5672162 28.51625 55.6075 31.6073864 54.2473108 33.7932955 52.8113784 33.2659091 50.6953514 32.3614773 49.8645676 31.9088636 49.4866486 31.45625 49.4117027 30.9288636 49.6381351zM5.89909091 24.7768108C6.57761364 24.7768108 7.105 24.1716622 7.105 23.4166216 7.105 22.736527 6.57761364 22.1313784 5.89909091 22.1313784 5.21977273 22.1313784 4.61761364 22.736527 4.61761364 23.4166216 4.61761364 24.1724595 5.22056818 24.7768108 5.89909091 24.7768108zM68.1720455 36.3384189C67.6446591 36.3384189 67.1920455 36.867027 67.1920455 37.3964324 67.1920455 37.9250405 67.6446591 38.3787027 68.1720455 38.3787027 68.6994318 38.3787027 69.1520455 37.9250405 69.1520455 37.3964324 69.1520455 36.8678243 68.6994318 36.3384189 68.1720455 36.3384189z"/>
    <path d="M64.0253409 44.877473C63.7994318 44.4995541 63.4223864 44.1973784 62.29125 45.0289595 61.6882955 45.4826216 61.2356818 45.6333108 61.0845455 45.7090541 61.0845455 45.7090541 61.0845455 45.7090541 61.0097727 45.7090541 64.3268182 42.9129324 66.5135227 39.3617703 66.8905682 35.4318919 67.795 26.6664054 59.1253409 19.4125946 47.5904545 19.4125946 44.8007955 19.4125946 42.1622727 19.8654595 39.6740909 20.5455541 39.9755682 20.0926892 40.2778409 19.639027 40.6540909 19.3368514 40.88 19.1104189 42.6140909 17.9009189 44.1222727 18.2788378 45.1022727 18.5052703 44.7252273 17.7502297 43.5193182 17.2965676 42.6148864 16.9943919 41.6348864 16.9186486 40.6548864 17.0693378 40.8060227 16.9935946 40.8807955 16.9186486 40.9563636 16.8429054 41.8607955 15.9363784 42.8407955 14.8026216 43.8963636 15.1047973 44.0475 15.1797432 44.3489773 15.5576622 44.1230682 15.8598378 44.0475 15.9355811 43.9719318 16.0113243 43.8963636 16.0113243 43.9719318 16.6156757 44.6504545 16.3892432 44.5756818 15.5576622 44.5756818 15.1797432 44.4245455 14.9533108 44.4245455 14.9533108 44.6504545 14.1217297 43.8963636 13.4416351 43.4445455 13.4416351 42.4645455 13.2152027 41.3334091 14.0459865 40.2022727 15.4061757 40.1275 15.4819189 40.0511364 15.5576622 39.9763636 15.6334054 39.7496591 16.6914189 39.2222727 17.5979459 38.54375 18.3537838 37.94 18.8823919 37.2614773 19.3360541 36.58375 19.6382297L36.4326136 19.6382297C36.3578409 19.6382297 36.3578409 19.7131757 36.2814773 19.7131757L36.2067045 19.7131757C36.1319318 19.7131757 36.1319318 19.7889189 36.0555682 19.7889189L35.8296591 19.7889189C35.6785227 19.8638649 35.5281818 19.8638649 35.3770455 19.8638649L35.3014773 19.8638649 35.2267045 19.8638649 35.1519318 19.9396081 35.0007955 19.9396081C35.0007955 19.9396081 35.0007955 19.9396081 34.9252273 19.9396081L34.8496591 19.9396081 34.7740909 19.9396081C34.6993182 19.9396081 34.6229545 19.9396081 34.5481818 19.8638649 34.3214773 19.8638649 34.0955682 19.8638649 33.8696591 19.7889189L33.7940909 19.7889189 33.7193182 19.7889189 33.64375 19.7131757 33.4926136 19.7131757C33.4926136 19.7131757 33.4178409 19.7131757 33.4178409 19.6382297L33.3422727 19.6382297C33.2667045 19.6382297 33.1911364 19.6382297 33.1155682 19.5624865 32.8140909 19.4875405 32.5881818 19.3360541 32.3622727 19.1845676L32.2867045 19.1845676C32.1355682 19.1096216 32.0607955 18.9581351 31.9096591 18.8823919 31.68375 18.7309054 31.5326136 18.5802162 31.3822727 18.429527 31.3822727 18.429527 31.3067045 18.429527 31.3067045 18.3537838 30.6281818 17.6736892 30.1007955 16.8429054 29.8748864 15.7848919 29.72375 15.7091486 29.5734091 15.5576622 29.4978409 15.406973 28.3675 14.0467838 27.1607955 13.216 26.2563636 13.4424324 25.80375 13.4424324 24.9748864 14.122527 25.2763636 14.9541081 25.2763636 14.9541081 25.1252273 15.1805405 25.1252273 15.5584595 25.0496591 16.3900405 25.7281818 16.616473 25.80375 16.0121216 25.7289773 16.0121216 25.6526136 15.9371757 25.5778409 15.8606351 25.3511364 15.5584595 25.5778409 15.1805405 25.80375 15.1055946 26.8593182 14.8034189 27.8393182 15.9371757 28.74375 16.8437027 28.8185227 16.9194459 28.8948864 16.9951892 28.9696591 17.0701351 28.0652273 16.9194459 27.0096591 16.9943919 26.18 17.2973649 24.9740909 17.751027 24.5970455 18.5060676 25.5770455 18.2796351 27.0844318 17.9017162 28.74375 19.1112162 29.0452273 19.3376486 29.4222727 19.6398243 29.72375 20.0934865 30.1007955 20.5463514 27.6126136 19.8662568 24.9740909 19.4133919 22.26 19.4133919 10.7251136 19.4133919 1.97988636 26.6672027 2.88431818 35.4326892 3.26136364 39.3625676 5.44806818 42.9137297 8.83988636 45.7098514L8.53840909 45.7098514C8.38727273 45.6349054 8.01022727 45.4834189 7.33170455 45.0297568 6.27613636 44.1981757 5.89988636 44.5011486 5.67318182 44.8782703 5.67318182 44.2739189 5.07022727 42.7622432 4.39170455 42.1578919 3.71318182 41.4020541 2.43170455 39.2110811 2.43170455 39.2110811L2.43170455 39.589 8.23693182 56.2891892C7.85988636 56.2891892 7.55840909 56.7428514 7.55840909 57.2714595 7.55840909 57.8000676 7.85988636 58.2537297 8.23693182 58.2537297L61.5379545 58.2537297C61.915 58.2537297 62.2164773 57.8000676 62.2164773 57.2714595 62.2164773 56.7428514 61.915 56.2891892 61.5379545 56.2891892L61.3868182 56.2891892 67.2676136 39.589 67.2676136 39.2110811C67.2676136 39.2110811 65.9861364 41.4020541 65.3076136 42.1578919 64.6290909 42.7614459 64.0253409 44.2731216 64.0253409 44.877473zM34.8496591 21.9814865C35.7540909 21.9814865 36.5081818 22.8130676 36.5081818 23.7953378 36.5081818 24.7776081 35.7540909 25.6091892 34.8496591 25.6091892 33.9444318 25.6091892 33.1911364 24.7776081 33.1911364 23.7953378 33.1911364 22.8122703 33.9444318 21.9814865 34.8496591 21.9814865zM34.8496591 29.6889595C34.0955682 29.6889595 33.4926136 29.0846081 33.4926136 28.253027 33.4926136 27.4214459 34.0955682 26.7413514 34.8496591 26.7413514 35.5281818 26.7413514 36.2067045 27.4214459 36.2067045 28.253027 36.2067045 29.0846081 35.5281818 29.6889595 34.8496591 29.6889595zM36.0555682 32.3335946C36.0555682 33.0894324 35.5281818 33.6937838 34.8496591 33.6937838 34.1711364 33.6937838 33.6429545 33.0886351 33.6429545 32.3335946 33.6429545 31.5777568 34.1711364 30.9734054 34.8496591 30.9734054 35.5281818 30.9734054 36.0555682 31.5777568 36.0555682 32.3335946zM8.91465909 56.2875946C8.91465909 56.0611622 8.98943182 55.9096757 8.98943182 55.7589865 9.065 55.5325541 9.065 55.2303784 8.91465909 54.7767162 9.36727273 55.0031486 10.0457955 55.3053243 10.2717045 54.4745405 8.16056818 53.7944459 6.80352273 50.9983243 6.72875 50.9233784 7.10579545 50.7718919 7.25613636 50.0917973 6.87988636 49.4117027 8.99022727 46.1619189 12.2325 48.0515135 15.4739773 51.0740676 17.0577273 52.6606892 18.6406818 53.7187027 19.7718182 54.0208784 19.69625 54.5502838 19.6206818 54.8524595 19.5451136 55.0031486 19.9221591 55.0788919 20.67625 55.7589865 21.1280682 56.2875946L8.91465909 56.2875946zM21.65625 50.2424865C21.7318182 48.2022027 22.0332955 46.690527 22.9385227 45.6333108 23.0896591 45.4818243 23.7673864 44.6510405 24.5970455 44.9532162 25.1244318 45.1047027 24.8985227 44.5752973 24.22 44.2731216 23.3155682 43.8952027 22.1844318 44.0458919 21.7318182 44.9532162L21.7318182 44.8017297C21.5806818 43.7437162 21.0532955 42.6857027 20.2236364 41.5519459 19.9977273 41.174027 19.8465909 40.9475946 19.7718182 40.7969054 19.6206818 40.5696757 19.1688636 39.8146351 19.0925 39.1345405 19.1680682 39.8146351 18.8665909 40.5696757 18.8665909 40.7969054 18.7910227 40.9475946 18.7154545 41.1748243 18.5651136 41.5519459 18.0377273 42.6857027 17.8865909 43.7429189 18.0377273 44.8017297L18.0377273 44.9532162C17.3592045 44.0458919 16.2280682 43.8952027 15.3992045 44.2731216 14.7954545 44.5752973 14.7206818 45.1047027 15.1732955 44.9532162 15.9273864 44.6510405 16.9073864 45.4818243 16.9829545 45.6333108 18.1888636 46.6913243 19.0185227 48.2022027 19.6214773 50.2424865 19.6970455 50.6204054 19.7726136 50.997527 19.8473864 51.3005 19.2436364 50.6961486 18.7918182 49.8645676 18.34 48.9580405 17.8873864 47.5978514 17.1340909 46.6155811 16.38 46.3134054 16.0029545 46.1619189 15.1740909 46.2376622 15.1740909 46.9177568 15.1740909 46.9177568 15.0229545 46.9935 14.8726136 47.2199324 14.6459091 47.7493378 15.0985227 48.2022027 15.3252273 47.8242838 15.2496591 47.7493378 15.1740909 47.7493378 15.1740909 47.5978514 15.0985227 47.2956757 15.4 47.2199324 15.5511364 47.2199324 16.4555682 47.4471622 16.9081818 48.5809189 17.3607955 49.5623919 17.8881818 50.5446622 18.5667045 51.3762432 19.3963636 51.9056486 18.3407955 51.5277297 17.2104545 50.393973 16.1548864 49.4874459 12.5363636 46.3891486 8.46443182 45.6341081 6.42965909 48.7316081 6.35409091 48.7316081 6.27852273 48.6566622 6.20295455 48.5051757 5.97704545 48.0515135 6.20295455 47.5229054 6.80590909 47.1449865 7.71113636 46.3134054 8.91704545 46.6913243 9.21852273 46.086973 9.36965909 46.1619189 9.44443182 46.2376622 9.59556818 46.3134054 9.44443182 46.2376622 9.36965909 46.1619189 9.29409091 46.0112297L9.29409091 45.6333108C9.21931818 45.7082568 9.14295455 45.7082568 8.99261364 45.7082568 6.88227273 43.2900541 5.52443182 40.4947297 5.22295455 37.4721757 4.31852273 28.7066892 13.06375 21.5278243 24.5986364 21.5278243 26.7845455 21.5278243 28.8956818 21.7550541 30.93125 22.2079189 31.0823864 22.7373243 31.3082955 23.2659324 31.3838636 23.8702838 28.97125 23.0387027 26.2571591 22.5858378 23.4675 22.5858378 13.06375 22.5858378 5.22215909 29.0080676 5.97704545 36.8678243 6.35409091 40.6462162 8.61556818 44.0466892 12.0081818 46.6155811 9.82147727 44.3480676 8.38965909 41.6284865 8.08738636 38.7566216 7.33329545 30.8219189 15.1740909 24.3996892 25.5778409 24.3996892 27.6881818 24.3996892 29.7245455 24.7018649 31.6845455 25.1547297 32.5889773 30.2175676 31.6089773 36.5648514 29.0460227 38.9838514 28.8193182 39.2102838 27.0860227 40.4189865 25.5778409 40.0418649 24.5978409 39.8154324 24.9748864 40.570473 26.1807955 41.0241351 26.5578409 41.1756216 27.0860227 41.2505676 27.5378409 41.2505676 27.4622727 41.4020541 27.4622727 41.4777973 27.4622727 41.7042297 27.4622727 42.0064054 27.6134091 42.1578919 27.6134091 42.1578919 27.3875 42.7622432 27.9904545 43.2159054 28.3675 43.2916486 29.0460227 43.4431351 29.9504545 42.8379865 30.7793182 41.779973 31.0052273 41.5535405 31.1563636 41.4020541 31.3830682 41.1756216 31.5342045 42.3093784 32.0615909 43.3665946 32.8148864 44.5003514 32.5889773 44.5003514 32.2875 44.6518378 31.9852273 45.0289595 31.4578409 45.4826216 31.0807955 45.6333108 31.0052273 45.7090541 30.70375 45.7847973 30.4778409 45.7090541 30.2519318 45.6341081 30.4778409 46.8428108 31.8348864 46.1627162 33.2675 47.1457838 33.9460227 47.5237027 34.3986364 48.0523108 34.3230682 48.505973 34.3230682 48.6574595 34.2482955 48.7324054 34.1727273 48.7324054 31.0815909 45.6349054 27.2371591 46.3899459 24.6734091 49.4882432 23.84375 50.5462568 22.9401136 51.8307027 21.88375 52.0571351 22.6378409 51.528527 23.2407955 50.6969459 23.5422727 49.5631892 23.84375 48.5809189 24.0696591 47.4479595 24.8245455 47.2207297 24.9756818 47.2207297 25.2771591 47.296473 25.2771591 47.5986486 25.2771591 47.7501351 25.2015909 47.7501351 25.2015909 47.8250811 25.4282955 48.203 25.8045455 47.7501351 25.4282955 47.2207297 25.2771591 46.9942973 25.1268182 46.9185541 25.1268182 46.9185541 24.9756818 46.2376622 24.2979545 46.1627162 23.9209091 46.3142027 23.2415909 46.6163784 22.7897727 47.5986486 22.5630682 48.9588378 22.3371591 49.7904189 22.11125 50.5454595 21.7342045 51.0748649 21.65625 50.7718919 21.65625 50.5446622 21.65625 50.2424865zM30.0244318 40.9475946C29.3451136 41.5519459 28.7429545 42.2320405 27.9888636 42.0056081 27.8377273 41.9298649 27.6118182 41.7034324 27.8377273 41.477 27.9132955 41.4012568 27.9132955 41.3255135 27.9888636 41.3255135 28.6673864 41.3263108 29.4214773 41.1748243 30.0244318 40.9475946zM33.7932955 54.7767162C33.8688636 55.2303784 33.9444318 55.5325541 34.0947727 55.7589865 34.1703409 55.910473 34.2459091 56.0611622 34.3206818 56.2875946L21.8821591 56.2875946C22.1836364 55.7589865 22.7110227 55.0788919 23.1636364 55.0031486 23.0125 54.8516622 22.7865909 54.5502838 22.5606818 54.0208784 23.6918182 53.7944459 24.8977273 52.6606892 25.8777273 51.0740676 28.1392045 48.0507162 30.7029545 46.1619189 33.9444318 49.4117027 33.8696591 50.0917973 34.2459091 50.7718919 34.6229545 50.9233784 34.6229545 50.9983243 34.2459091 53.7944459 32.2859091 54.4745405 32.8896591 55.3053243 33.4170455 55.0031486 33.7932955 54.7767162zM33.7185227 36.1119865C33.7185227 35.4318919 34.2459091 34.9032838 34.8496591 34.9032838 35.4526136 34.9032838 35.9052273 35.4318919 35.9052273 36.1119865 35.9052273 36.7163378 35.4526136 37.3214865 34.8496591 37.3214865 34.2459091 37.3214865 33.7185227 36.7163378 33.7185227 36.1119865zM35.3770455 56.2875946C35.4526136 56.0611622 35.5281818 55.9096757 35.6029545 55.7589865 35.7540909 55.5325541 35.8296591 55.2303784 35.9044318 54.7767162 36.2814773 55.0031486 36.8096591 55.3053243 37.3370455 54.4745405 35.4518182 53.7944459 35.0747727 50.9983243 35 50.9233784 35.4518182 50.7718919 35.8296591 50.0917973 35.6785227 49.4117027 38.9955682 46.1619189 41.5585227 48.0515135 43.7452273 51.0740676 44.8007955 52.6606892 46.0075 53.7944459 47.1378409 54.0208784 46.9119318 54.5502838 46.6852273 54.8524595 46.5340909 55.0031486 46.9111364 55.0788919 47.5140909 55.7589865 47.8155682 56.2875946L35.3770455 56.2875946zM59.35125 54.4745405C59.6527273 55.3053243 60.33125 55.0031486 60.7838636 54.7767162 60.6327273 55.2303784 60.6327273 55.5325541 60.7082955 55.7589865 60.7082955 55.910473 60.7838636 56.0611622 60.7838636 56.2875946L48.5704545 56.2875946C49.0222727 55.7589865 49.7763636 55.0788919 50.1534091 55.0031486 50.0778409 54.8516622 50.0022727 54.5502838 49.8519318 54.0208784 51.0586364 53.7187027 52.6415909 52.5857432 54.1489773 51.0740676 57.39125 48.0507162 60.7082955 46.1619189 62.8194318 49.4117027 62.4423864 50.0917973 62.5927273 50.7718919 62.9705682 50.9233784 62.8942045 50.9983243 61.5379545 53.7944459 59.35125 54.4745405zM63.4979545 48.5043784C63.4231818 48.6558649 63.3468182 48.7308108 63.2720455 48.7308108 61.2356818 45.6333108 57.1653409 46.3883514 53.5468182 49.4866486 52.3401136 50.4689189 51.1342045 51.6776216 50.0030682 52.0555405 50.9082955 51.5269324 51.6615909 50.6204054 52.1897727 49.5615946 52.6415909 48.5793243 53.0942045 47.4463649 53.9994318 47.2191351 54.1497727 47.2191351 54.45125 47.2948784 54.3764773 47.5970541 54.3764773 47.7485405 54.3009091 47.7485405 54.2253409 47.8234865 54.45125 48.2014054 54.9038636 47.7485405 54.6779545 47.2191351 54.5268182 46.9927027 54.3764773 46.9169595 54.3764773 46.9169595 54.3764773 46.2360676 53.5468182 46.1611216 53.1697727 46.3126081 52.4164773 46.6147838 51.7379545 47.5970541 51.2097727 48.9572432 50.8327273 49.7888243 50.3801136 50.5438649 49.8519318 51.1482162 49.9275 50.8460405 50.0030682 50.5438649 50.0786364 50.2416892 50.6815909 48.2014054 51.5104545 46.6897297 52.6415909 45.6325135 52.7927273 45.481027 53.7727273 44.6502432 54.5268182 44.9524189 54.9794318 45.1039054 54.9038636 44.5745 54.3001136 44.2723243 53.4704545 43.8944054 52.3401136 44.0450946 51.6615909 44.9524189L51.6615909 44.8009324C51.8127273 43.7429189 51.6615909 42.6849054 51.1342045 41.5511486 50.9830682 41.1732297 50.9082955 40.9467973 50.8327273 40.7961081 50.8327273 40.5688784 50.53125 39.8138378 50.6068182 39.1337432 50.5320455 39.8138378 50.0038636 40.5688784 49.9282955 40.7961081 49.8527273 40.9467973 49.7023864 41.174027 49.4009091 41.5511486 48.6468182 42.6849054 48.1194318 43.7421216 47.9682955 44.8009324L47.9682955 44.9524189C47.5156818 44.0450946 46.3853409 43.8944054 45.4801136 44.2723243 44.8015909 44.5745 44.5756818 45.1039054 45.1030682 44.9524189 45.8563636 44.6502432 46.6104545 45.481027 46.7615909 45.6325135 47.59125 46.690527 47.9675 48.2014054 47.9675 50.2416892 48.0430682 50.6196081 47.9675 50.9217838 47.9675 51.2239595 47.5148864 50.6953514 47.2134091 49.8637703 46.9875 48.9572432 46.7615909 47.5970541 46.3089773 46.6147838 45.6304545 46.3126081 45.3289773 46.1611216 44.5748864 46.2368649 44.4245455 46.9169595 44.4245455 46.9169595 44.2734091 46.9927027 44.1230682 47.2191351 43.8215909 47.7485405 44.1230682 48.2014054 44.4245455 47.8234865 44.3489773 47.7485405 44.3489773 47.7485405 44.2734091 47.5970541 44.2734091 47.2948784 44.5748864 47.2191351 44.7252273 47.2191351 45.5548864 47.4463649 45.7052273 48.5801216 46.0067045 49.5615946 46.3081818 50.6196081 46.9119318 51.5261351 47.5904545 52.0555405 46.6104545 51.6776216 45.7807955 50.4689189 44.9519318 49.4866486 42.46375 46.3883514 38.6193182 45.6333108 35.5281818 48.7308108 35.4526136 48.7308108 35.3770455 48.6558649 35.3014773 48.5043784 35.2267045 48.0507162 35.7540909 47.5221081 36.4326136 47.1441892 37.7904545 46.1619189 39.2222727 46.8420135 39.4489773 45.6325135 39.2222727 45.7074595 38.9207955 45.784 38.6948864 45.7074595 38.54375 45.6325135 38.1675 45.481027 37.7148864 45.0273649 37.4134091 44.6494459 37.1111364 44.4987568 36.8852273 44.4987568 37.6393182 43.365 38.1667045 42.3077838 38.3178409 41.174027 38.54375 41.4004595 38.6948864 41.5519459 38.9207955 41.7783784 39.7504545 42.8363919 40.6548864 43.4415405 41.3334091 43.2900541 41.7104545 43.2143108 42.3134091 42.7606486 42.0875 42.1562973 42.0875 42.1562973 42.2386364 42.0048108 42.2386364 41.7026351 42.2386364 41.4762027 42.1638636 41.4004595 42.1638636 41.248973 42.6164773 41.248973 43.0682955 41.1732297 43.5209091 41.0225405 44.7268182 40.5688784 45.1046591 39.8138378 44.1238636 40.0402703 42.6156818 40.4181892 40.9579545 39.2086892 40.6556818 38.9822568 38.3186364 36.5640541 37.4134091 30.141027 38.2430682 25.1531351 40.1282955 24.624527 42.1638636 24.3980946 44.1986364 24.3980946 54.6779545 24.3980946 62.51875 30.8211216 61.6898864 38.755027 61.3884091 41.6268919 59.9557955 44.3472703 57.7690909 46.6139865 61.1617045 44.0442973 63.4239773 40.6446216 63.8010227 36.8662297 64.6306818 29.0072703 56.7890909 22.5842432 46.3105682 22.5842432 43.5964773 22.5842432 40.8823864 23.0371081 38.4697727 23.7929459 38.6209091 23.2643378 38.77125 22.7349324 38.9215909 22.205527 40.9579545 21.7526622 43.0682955 21.5254324 45.255 21.5254324 56.7890909 21.5254324 65.4595455 28.7042973 64.6306818 37.4697838 64.3292045 40.4923378 62.8965909 43.2884595 60.78625 45.7058649 60.6351136 45.7058649 60.4847727 45.7058649 60.4092045 45.6309189 60.3344318 45.8573514 60.4092045 46.0088378 60.4847727 46.0845811 60.4092045 46.159527 60.3336364 46.2352703 60.2580682 46.3110135 60.3336364 46.3110135 60.4092045 46.2352703 60.4847727 46.159527 60.8618182 46.6131892 62.0677273 46.3859595 62.8965909 47.1417973 63.4979545 47.5221081 63.7238636 48.0507162 63.4979545 48.5043784zM39.6740909 40.9475946C40.2778409 41.1748243 40.9563636 41.3255135 41.7096591 41.3255135 41.7096591 41.3255135 41.7852273 41.4004595 41.8607955 41.477 42.0119318 41.7034324 41.8607955 41.9298649 41.6348864 42.0056081 40.9563636 42.2328378 40.2778409 41.5527432 39.6740909 40.9475946zM68.6994318 33.5430946C68.0964773 33.5430946 67.6438636 34.0717027 67.6438636 34.6768514 67.6438636 35.3569459 68.0964773 35.8106081 68.6994318 35.8106081 69.2276136 35.8106081 69.755 35.3569459 69.755 34.6768514 69.755 34.0717027 69.2276136 33.5430946 68.6994318 33.5430946z"/>
    <path d="M24.8221591 53.1892973C24.8969318 53.7936486 24.8221591 54.4737432 24.2184091 55.6075 25.2739773 54.5494865 25.57625 54.4737432 26.1784091 54.3230541 25.8013636 53.6429595 26.1028409 52.2827703 26.4051136 51.0740676 25.5006818 52.4342568 25.4259091 52.8121757 24.8221591 53.1892973zM1.45090909 32.863C2.12943182 32.863 2.58204545 32.2578514 2.58204545 31.6535 2.58204545 30.9734054 2.12943182 30.4447973 1.45090909 30.4447973.847954545 30.4447973.319772727 30.9734054.319772727 31.6535.320568182 32.2578514.847954545 32.863 1.45090909 32.863zM3.86352273 27.2707568C4.46727273 27.2707568 5.07022727 26.7421486 5.07022727 26.0620541 5.07022727 25.3062162 4.46727273 24.7776081 3.86352273 24.7776081 3.185 24.7776081 2.65761364 25.3062162 2.65761364 26.0620541 2.65761364 26.7421486 3.185 27.2707568 3.86352273 27.2707568zM2.28056818 29.8396486C2.95909091 29.8396486 3.41170455 29.3110405 3.41170455 28.6309459 3.41170455 27.9508514 2.95909091 27.4222432 2.28056818 27.4222432 1.67761364 27.4222432 1.14943182 27.9508514 1.14943182 28.6309459 1.14943182 29.3110405 1.67761364 29.8396486 2.28056818 29.8396486zM15.0213636 51.0740676C15.7746591 52.2827703 16.52875 53.6429595 16.3028409 54.3230541 17.0561364 54.4745405 17.3584091 54.5502838 18.7910227 55.6075 17.7354545 54.4737432 17.5095455 53.7936486 17.3584091 53.1892973 16.6043182 52.8121757 16.3784091 52.4342568 15.0213636 51.0740676zM9.81909091 48.2022027C9.44204545 48.1272568 8.53761364 48.2779459 8.46204545 48.7308108 8.53761364 48.7308108 8.68875 48.6558649 8.76352273 48.6558649 9.59318182 48.3536892 10.7235227 48.6558649 11.7035227 49.6381351 12.5331818 50.393973 12.8346591 51.3005 12.6079545 51.7541622 12.4568182 52.3585135 11.8546591 52.7364324 10.8738636 52.5857432 9.51681818 52.3585135 8.83829545 51.1498108 9.13977273 50.6961486 9.29090909 50.393973 9.74352273 50.9233784 9.66715909 51.3762432 11.0997727 52.0563378 11.2509091 50.0917973 9.96863636 49.6381351 9.36568182 49.4117027 8.91306818 49.4866486 8.61159091 49.8645676 8.00863636 50.6961486 8.23454545 52.8113784 10.9486364 54.2473108 14.4168182 55.6075 15.9997727 53.5672162 14.6427273 51.5269324 14.6443182 51.5269324 12.9857955 48.7308108 9.81909091 48.2022027zM2.35613636 34.6760541C2.35613636 34.0717027 1.90352273 33.5422973 1.30056818 33.5422973.773181818 33.5422973.245 34.0709054.245 34.6760541.245 35.3561486.773181818 35.8098108 1.30056818 35.8098108 1.90352273 35.8098108 2.35613636 35.3561486 2.35613636 34.6760541z"/>
  </g>
</svg>
