<svg xmlns="http://www.w3.org/2000/svg" width="70" height="30" viewBox="0 0 70 30">
  <g fill="#FFFFFF" fill-rule="evenodd">
    <ellipse cx="34.998" cy="6.581" rx="1.554" ry="1.554"/>
    <path d="M39.73375 17.5707955C39.0496591 18.1570455 38.0386364 18.235 37.1795455 17.8842045 36.7945455 17.7267045 36.4413636 17.4920455 36.1335227 17.2128409L35.4406818 17.2128409C36.3236364 19.6111364 39.1419318 20.2172727 39.73375 17.5707955zM34.7923864 23.1159091L35 23.4118182 35.2060227 23.1167045C35.5345455 22.6473864 35.8964773 22.19875 36.2186364 21.7278409 36.4095455 21.4494318 36.6211364 21.1081818 36.6505682 20.76375 36.6744318 20.4853409 36.5797727 20.2292045 36.4429545 19.9921591 35.5926136 19.3915909 35.2147727 18.4386364 35.0007955 17.45625 34.7860227 18.4378409 34.4081818 19.3915909 33.5586364 19.9921591 33.4210227 20.23 33.3255682 20.4861364 33.3494318 20.7653409 33.3788636 21.1097727 33.5904545 21.4502273 33.7805682 21.7286364 34.1027273 22.19875 34.4646591 22.6473864 34.7923864 23.1159091zM32.5452273 9.73079545C34.0653409 11.0934091 34.6929545 12.8044318 35 14.7493182 35.3070455 12.80125 35.93625 11.0918182 37.4595455 9.72761364 37.7928409 9.42931818 38.15 9.15965909 38.5182955 8.90670455 38.8157955 8.39840909 39.0019318 7.85193182 38.9796591 7.25613636 38.9414773 6.22204545 38.2661364 5.17920455 37.6934091 4.35511364 37.2678409 3.74181818 36.8168182 3.14443182 36.3761364 2.54147727 35.9028409 1.89397727 35.4398864 1.24090909 35 .570340909 34.5593182 1.24011364 34.0971591 1.89318182 33.6238636 2.54068182 33.1831818 3.14363636 32.7329545 3.74102273 32.3065909 4.35431818 31.7338636 5.17840909 31.0585227 6.22125 31.0203409 7.25534091 30.9980682 7.85193182 31.1842045 8.39761364 31.4825 8.90590909 31.8523864 9.16125 32.2111364 9.43170455 32.5452273 9.73079545zM37.7482955 6.58079545C37.7482955 10.2080682 32.2461364 10.2080682 32.2461364 6.58079545 32.2469318 2.94795455 37.7482955 2.94795455 37.7482955 6.58079545zM27.9109091 22.6871591L28.1065909 23.4261364C28.7167045 22.9997727 29.2218182 22.4119318 29.4827273 21.70875 29.70625 21.105 29.7436364 20.3978409 29.4230682 19.8203409 28.9847727 19.0304545 28.1042045 18.8236364 27.2594318 18.8642045 28.0715909 19.4003409 28.4406818 20.4304545 28.3094318 21.42 28.2601136 21.8630682 28.11375 22.2918182 27.9109091 22.6871591zM28.3651136 10.0251136C29.1176136 10.0251136 29.7325 9.41420455 29.7325 8.66090909 29.7325 7.90761364 29.1176136 7.29670455 28.3651136 7.29670455 27.6126136 7.29670455 27.0017045 7.90840909 27.0017045 8.66090909 27.0017045 9.41340909 27.6126136 10.0251136 28.3651136 10.0251136z"/>
    <path d="M33.5339773,15.0038636 L34.2864773,15.0038636 C34.0868182,13.7160227 33.6501136,12.4528409 32.9278409,11.3646591 C32.3773864,10.535 31.6415909,9.78647727 30.7570455,9.31159091 C30.4675,10.3767045 29.4906818,11.1347727 28.3651136,11.1347727 C27.5664773,11.1347727 26.8275,10.7497727 26.3669318,10.1142045 C25.6804545,11.0003409 25.3431818,12.1760227 25.1920455,13.3039773 C27.3421591,10.5835227 32.1379545,11.9938636 33.5339773,15.0038636 Z"/>
    <circle cx="51.945" cy="20.863" r="1.554"/>
    <path d="M44.4380682,22.9472727 L44.2248864,23.7443182 C46.1427273,23.9543182 48.2005682,23.6782955 49.8646591,22.6632955 C49.4327273,22.1653409 49.1940909,21.5297727 49.1940909,20.8631818 C49.1940909,19.3446591 50.42625,18.1125 51.9447727,18.1125 C52.0020455,18.1125 52.0585227,18.1140909 52.115,18.1180682 C51.6417045,16.4897727 50.0165909,15.4254545 48.4670455,14.7851136 C50.7309091,17.7529545 47.9428409,22.3427273 44.4380682,22.9472727 Z"/>
    <ellipse cx="41.634" cy="8.661" rx="1.364" ry="1.364"/>
    <ellipse cx="60.708" cy="13.744" rx="1.364" ry="1.364"/>
    <path d="M30.2654545 17.57C30.8580682 20.2172727 33.67875 19.6119318 34.5601136 17.2128409L33.8664773 17.2128409C33.5570455 17.4904545 33.2086364 17.7259091 32.8220455 17.8842045 31.9621591 18.2342045 30.9503409 18.15625 30.2654545 17.57zM37.0984091 15.6760227L32.9047727 15.6760227 32.9047727 16.5398864 37.0984091 16.5398864 37.0984091 15.6760227zM37.0745455 11.3638636C36.3514773 12.4528409 35.9147727 13.7160227 35.7151136 15.0038636L36.4644318 15.0038636C37.8620455 11.9914773 42.6578409 10.5835227 44.8111364 13.3063636 44.6607955 12.1768182 44.3227273 11.0003409 43.6354545 10.1134091 43.1732955 10.7497727 42.4335227 11.1339773 41.6332955 11.1339773 40.5077273 11.1339773 39.5340909 10.3751136 39.2461364 9.31 38.3623864 9.78568182 37.6257955 10.5342045 37.0745455 11.3638636zM42.7397727 18.865C41.8957955 18.8236364 41.0144318 19.0304545 40.5761364 19.8203409 40.2555682 20.3978409 40.2921591 21.1057955 40.5164773 21.7095455 40.7765909 22.4119318 41.2825 22.9997727 41.8926136 23.4269318L42.0882955 22.6879545C41.88625 22.2926136 41.7390909 21.8638636 41.6857955 21.4223864 41.5593182 20.4320455 41.9284091 19.4011364 42.7397727 18.865z"/>
    <circle cx="9.291" cy="13.744" r="1.364"/>
    <path d="M60.2548864 23.0132955C59.4411364 22.9019318 58.7021591 22.4047727 58.4126136 21.6681818 58.2256818 22.3109091 58.2248864 23.0164773 58.73875 23.5120455 59.1317045 23.8914773 59.7036364 24.0115909 60.2334091 23.9614773 60.83875 23.905 61.4067045 23.6369318 61.8736364 23.2543182L61.3653409 22.9615909C61.0026136 23.0403409 60.6231818 23.0634091 60.2548864 23.0132955zM59.6654545 25.1482955C59.2152273 25.5563636 59.0473864 26.24125 58.9718182 26.8211364 58.8859091 27.4734091 58.8867045 28.16625 58.9097727 28.84L61.5761364 24.2192045C61.0940909 24.6232955 60.5428409 24.9215909 59.8881818 24.9828409 59.8086364 25.0305682 59.7338636 25.0854545 59.6654545 25.1482955zM58.4770455 29.5248864L58.4523864 29.4978409C57.3602273 28.2704545 56.4884091 26.9611364 55.6014773 25.5857955 55.0756818 24.77125 54.4035227 23.6735227 53.6470455 23.0244318 53.1626136 23.4070455 52.5660227 23.6146591 51.9439773 23.6146591 51.4142045 23.6146591 50.8995455 23.4635227 50.4564773 23.1779545 48.7311364 24.4021591 46.9938636 24.7171591 44.8811364 24.5763636L44.8668182 24.5755682 44.8532955 24.5723864C44.3569318 24.4673864 43.8597727 24.3727273 43.3618182 24.28125L43.9464773 22.1096591 43.0285227 21.8638636 42.4247727 24.12375C42.1948864 24.08875 41.9657955 24.0545455 41.7367045 24.0203409L41.7693182 23.8954545C40.6580682 23.345 40.0328409 22.6863636 39.6120455 21.5114773 39.4951136 21.3977273 39.3575 21.3094318 39.19125 21.2903409 38.7418182 21.2402273 38.0847727 21.7572727 37.7427273 22.0094318 37.0029545 22.5551136 36.3061364 23.0665909 35.4422727 23.4118182L35.0978409 23.5494318 35.1726136 23.6560227 35 23.5876136 34.8289773 23.6560227 34.90375 23.5494318 34.5593182 23.4118182C33.6954545 23.0673864 32.9994318 22.5551136 32.2588636 22.0094318 31.9168182 21.7572727 31.2605682 21.2402273 30.8111364 21.2911364 30.6448864 21.3094318 30.5080682 21.3977273 30.3911364 21.5114773 30.0093182 22.5757955 29.4596591 23.2161364 28.5329545 23.7371591L28.5679545 24.0426136C28.2434091 24.0903409 27.9196591 24.14125 27.5959091 24.1945455L26.9730682 21.8630682 26.0551136 22.1088636 26.66125 24.3592045C26.4226136 24.4045455 26.1847727 24.4498864 25.9469318 24.4976136L25.9389773 24.4992045 25.9310227 24.5C23.5406818 24.7815909 21.5202273 24.57875 19.5451136 23.1779545 19.10125 23.4635227 18.5881818 23.6146591 18.0576136 23.6146591 17.4363636 23.6146591 16.8389773 23.4070455 16.35375 23.0252273 16.0085227 23.3211364 15.7070455 23.6870455 15.4389773 24.0473864 15.0539773 24.5644318 14.7047727 25.1132955 14.3555682 25.6542045 13.4694318 27.0279545 12.5936364 28.3301136 11.5014773 29.5495455L11.5627273 29.6553409C27.08125 21.8646591 42.9704545 21.6331818 58.4794318 29.5853409L58.4961364 29.5559091 58.4929545 29.5527273 58.5025 29.5368182 58.4770455 29.5248864z"/>
    <polygon points="60.953 21.978 62.392 22.809 62.757 22.172 61.318 21.341"/>
    <path d="M60.7082955,16.2169318 C59.5397727,16.2169318 58.5422727,15.4 58.2940909,14.2839773 C57.575,14.6864773 56.9529545,15.3029545 56.4359091,15.9639773 C59.3265909,14.88375 62.3819318,18.1093182 62.1265909,21.0644318 L62.6754545,21.3826136 C63.0914773,20.3023864 63.3157955,19.13625 63.2442045,17.9772727 C63.1893182,17.1006818 62.9610227,16.2042045 62.5020455,15.4469318 C62.0382955,15.9361364 61.3931818,16.2169318 60.7082955,16.2169318 Z"/>
    <ellipse cx="66.988" cy="15.311" rx="1.554" ry="1.554"/>
    <path d="M64.2369318 15.3109091C64.2369318 13.7915909 65.4690909 12.5602273 66.9876136 12.5602273 67.3940909 12.5602273 67.7918182 12.6493182 68.1569318 12.8211364L69.3827273 10.6964773C68.8513636 10.9565909 68.3136364 11.2031818 67.7719318 11.4434091 67.1602273 11.7146591 66.5413636 11.9771591 65.9368182 12.2627273 65.12625 12.6453409 64.1351136 13.15125 63.6443182 13.9339773 63.3619318 14.3834091 63.2625 14.8853409 63.2648864 15.4095455 63.4367045 15.7698864 63.5926136 16.1381818 63.7175 16.5176136 64.1709091 17.8977273 64.09375 19.1935227 63.7278409 20.4925L65.4157955 17.5684091C64.6815909 17.0569318 64.2369318 16.2177273 64.2369318 15.3109091zM11.5881818 21.6665909C11.2994318 22.4039773 10.5604545 22.9011364 9.74590909 23.0132955 9.37761364 23.0634091 8.99818182 23.0403409 8.63465909 22.9623864L8.12715909 23.2551136C8.59568182 23.6385227 9.16443182 23.9057955 9.76977273 23.9622727 10.3011364 24.0115909 10.8730682 23.8914773 11.2668182 23.5104545 11.7775 23.0140909 11.7759091 22.3085227 11.5881818 21.6665909z"/>
    <ellipse cx="3.01" cy="15.311" rx="1.554" ry="1.554"/>
    <circle cx="18.056" cy="20.863" r="1.554"/>
    <path d="M4.06238636 12.2619318C3.45704545 11.9763636 2.83897727 11.7138636 2.22727273 11.4426136 1.68556818 11.2023864 1.14784091 10.9565909.615681818 10.6956818L1.84227273 12.8203409C2.20659091 12.6485227 2.60352273 12.5594318 3.00920455 12.5594318 4.52852273 12.5594318 5.76386364 13.79 5.76386364 15.3101136 5.76386364 16.2169318 5.31840909 17.0561364 4.58261364 17.5684091L6.27056818 20.4925C5.90386364 19.1935227 5.8275 17.8969318 6.28090909 16.5168182 6.40579545 16.1373864 6.56170455 15.7690909 6.73272727 15.40875 6.73590909 14.8845455 6.63647727 14.3826136 6.35329545 13.9331818 5.86329545 13.1504545 4.87295455 12.6445455 4.06238636 12.2619318zM20.8051136 20.8631818C20.8051136 21.5289773 20.5672727 22.1645455 20.1353409 22.6632955 21.7994318 23.6782955 23.8572727 23.9535227 25.7759091 23.7435227L25.5619318 22.9464773C22.0579545 22.3427273 19.2690909 17.7521591 21.5321591 14.7843182 19.9826136 15.4246591 18.3575 16.4897727 17.8842045 18.1172727 17.9414773 18.1132955 17.99875 18.1117045 18.0552273 18.1117045 19.5761364 18.1125 20.8051136 19.3438636 20.8051136 20.8631818zM10.3345455 25.1482955C10.2661364 25.08625 10.1913636 25.0305682 10.1110227 24.9828409 9.45636364 24.9215909 8.90511364 24.6232955 8.42386364 24.2192045L11.0902273 28.8407955C11.1132955 28.1773864 11.1140909 27.4972727 11.0329545 26.8545455 10.9589773 26.2659091 10.7927273 25.5635227 10.3345455 25.1482955z"/>
    <polygon points="7.243 22.172 8.683 21.341 9.05 21.976 7.61 22.807"/>
    <path d="M7.87181818,21.0644318 C7.61727273,18.1093182 10.6726136,14.88375 13.5625,15.9647727 C13.04625,15.30375 12.425,14.6872727 11.7059091,14.2847727 C11.4569318,15.4015909 10.4594318,16.2169318 9.29090909,16.2169318 C8.60602273,16.2169318 7.96090909,15.9361364 7.49715909,15.4469318 C7.03818182,16.2034091 6.80909091,17.1006818 6.755,17.9772727 C6.68340909,19.13625 6.90693182,20.3023864 7.32295455,21.3826136 L7.87181818,21.0644318 Z"/>
  </g>
</svg>
