<svg xmlns="http://www.w3.org/2000/svg" width="115" height="84" viewBox="0 0 115 84">
  <g fill="#D3000C" fill-rule="evenodd" transform="rotate(18 55.955 53.122)">
    <path d="M35.3815014,90.4423551 C54.5857161,90.4423551 70.1560058,74.8862493 70.1560058,55.7039426 C70.1560058,39.7486583 59.3749006,26.3425834 44.7066629,22.2618722 L44.7066629,15.1300142 L39.2884157,15.1300142 C40.1232096,11.3694363 42.3091034,7.16225273 47.9944055,6.61288822 C53.6559694,6.05957145 57.6222292,8.14043773 62.0850133,14.0332613 L63.0919092,15.3790068 C67.0462999,20.7007284 73.0184387,28.7475352 80.1122082,28.7475352 L80.1161645,28.7475352 C83.4731435,28.745559 86.4641584,27.0065635 89.0021691,23.5799518 C90.0248904,22.2065405 89.7321191,20.2659795 88.3572809,19.2482719 C86.9646391,18.2285881 85.0319529,18.526984 84.0230788,19.896443 C82.0547853,22.5543396 80.5948852,22.5563157 80.1122082,22.5563157 C76.1380356,22.5563157 70.8918905,15.487694 68.0709994,11.6895696 L67.036409,10.296397 C63.1769711,5.20193046 57.5173854,-0.516993595 47.398972,0.447358491 C39.6148162,1.19828839 34.3568019,6.70774252 32.9661382,15.1280381 L25.9158889,15.1280381 L25.9158889,22.2974425 C11.3168876,26.4216286 0.606997052,39.8000377 0.606997052,55.7019664 C0.603040683,74.8882255 16.1733305,90.4423551 35.3815014,90.4423551 Z"/>
    <polygon points="75.762 5.291 72.597 7.953 82.443 16.426"/>
    <polygon points="89.708 1.76 85.586 1.55 86.994 14.456"/>
    <polygon points="98.084 36.117 91.119 25.153 94.29 37.745"/>
    <polygon points="106.436 24.013 106.863 19.91 93.886 20.632"/>
    <polygon points="100.444 5.55 92.877 16.106 103.382 8.457"/>
  </g>
</svg>
