<svg xmlns="http://www.w3.org/2000/svg" width="101" height="130">
  <g fill="none" fill-rule="evenodd">
    <ellipse cx="93.899" cy="91.899" fill="#FFF" transform="rotate(-44.74 93.9 91.9)" rx="7" ry="7"/>
    <path fill="#FFF" d="M86.564 123.452l-10.01-7.645c2.5-3.532 6.416-6.515 8.766-9.003 2.267-2.014 3.195-5.543 1.406-7.396-1.268-1.314-3.547-2.085-6.027-1.412.793.187 1.442.394 1.892.555l.05.02.012.003.018.007c1.51.58 2.264 2.273 1.682 3.775-.434 1.12-1.534 1.87-2.74 1.87-.36 0-.714-.065-1.052-.194h-.002l-.033-.012c-.044-.016-.116-.04-.213-.072-.147-.047-.458-.142-.868-.242-.544-.132-1.63-.354-2.77-.354h-.034c-.867 0-1.662.13-2.3.374-.635.248-1.56.543-2.08 1.014-.22.265-.436.534-.647.808.144-.296.3-.552.457-.775 0-.006 0-.014-.002-.02.038-.043.077-.084.112-.13.56-.723 1.19-1.144 1.948-1.44.753-.29 1.638-.416 2.53-.414 1.08-.002 2.15.182 2.925.37.388.095.702.188.91.255.105.035.183.062.23.08.023.007.04.012.047.016 1.21.462 2.568-.137 3.034-1.34.467-1.204-.136-2.557-1.346-3.02-.15-.05-2.62-1.02-5.8-1.034-1.31.002-2.763.174-4.213.726-.305.116-.61.254-.91.407-1.128.574-2.21 1.412-3.087 2.56l-.002.002c-1.39 1.816-2.226 4.266-2.41 7.415l.33.04c.79.093 1.743.184 2.69.23-.155.278-.31.562-.464.853-.938-.058-1.848-.153-2.587-.244-.003.166-.007.33-.007.497 0 .48.013.975.04 1.49.042.756.442 1.408 1.025 1.804-.778 3.112.567 4.524 2.356 5.69.02.014.038.032.06.047l4.045 3.092h-3.183c-2.026 0-3.668 1.633-3.668 3.65 0 2.015 1.642 3.65 3.668 3.65h13.99c1.572 0 2.966-.994 3.473-2.477.505-1.484.007-3.118-1.24-4.07z"/>
    <path fill="#D0011B" d="M55.328 54.923c2.072-1.057 2.9-3.602 1.85-5.685-.146-.288-.322-.55-.52-.788l25-47.083L79.116 0 54.163 46.992c-.868-.155-1.79-.044-2.64.387-4.005 2.043-7.128 2.726-9.517 2.726-2.47-.012-4.244-.678-5.808-1.714-2.325-1.537-4.084-4.155-5.163-6.475-.542-1.15-.918-2.204-1.15-2.942-.115-.37-.195-.66-.244-.844-.023-.092-.04-.16-.047-.194l-.007-.032c-.075-.34-.193-.658-.34-.958-.56-1.99-1.71-3.637-3.477-4.463-4-1.87-10.415-.888-14.518 5.365 3.924-2.09 7.482-2.638 9.368-2.772l.08-.006.026-.002h.032c.074-.004.148-.006.22-.006 2.826 0 5.132 2.225 5.25 5.065.12 2.904-2.128 5.373-5.015 5.503l-.114.01c-.167.018-.424.05-.757.11-.642.113-1.64.343-2.756.782-2.793 1.116-4.814 2.847-6.174 5.288-1.308 2.365-1.948 5.275-1.952 8.892 0 3.045.48 6.523 1.43 10.34.34 1.37.13 2.792-.592 4.003-.62 1.04-1.554 1.814-2.667 2.23v44.746c0 3.65 2.942 6.61 6.57 6.61 3.63 0 6.57-2.96 6.57-6.61V70.22c0-.344-.033-.68-.083-1.01.877-6.473 3.41-13.142 5.69-18.748 1.33 1.774 3.01 3.524 5.15 4.965 2.757 1.867 6.32 3.138 10.417 3.138h.06c2.056 0 4.225-.304 6.51-.936l-2.83 5.327 2.545 1.366 4.3-8.097c.916-.385 1.85-.818 2.798-1.303z"/>
    <ellipse cx="31.218" cy="17.26" fill="#D0011B" transform="rotate(-65.978 31.218 17.26)" rx="10.936" ry="11"/>
    <path fill="#D0011B" d="M6.81 76.44c2.254-.568 3.625-2.865 3.06-5.13-1.042-4.194-1.46-7.697-1.46-10.598.006-4.314.902-7.266 2.087-9.41 1.775-3.184 4.368-4.82 6.708-5.754 1.157-.457 2.22-.71 2.956-.84.37-.065.656-.1.832-.118.088-.01.147-.013.176-.016 2.314-.104 4.108-2.074 4.012-4.402-.098-2.334-2.058-4.146-4.377-4.05H20.8c-.396.04-5.22.213-10.435 3.452-2.592 1.62-5.26 4.08-7.21 7.603C1.195 50.693-.005 55.2 0 60.712c0 3.717.53 7.902 1.712 12.65.478 1.922 2.192 3.204 4.076 3.204.338 0 .68-.042 1.023-.127z"/>
  </g>
</svg>
