<svg width="22" height="30" viewBox="0 0 22 30" xmlns="http://www.w3.org/2000/svg"><g fill="none" fill-rule="evenodd"><path d="M10.75 0A10.719 10.719 0 0 0 .018 10.732c0 2.07.661 4.047 1.581 5.671l6.994 12.105c.439.79 1.323 1.186 2.157 1.186.834 0 1.674-.396 2.156-1.186L19.9 16.41c.927-1.624 1.581-3.565 1.581-5.671C21.481 4.802 16.687 0 10.75 0zm0 13.902a3.927 3.927 0 0 1-3.918-3.918 3.927 3.927 0 0 1 3.918-3.917 3.927 3.927 0 0 1 3.917 3.917 3.922 3.922 0 0 1-3.917 3.918z" fill="#FFF"/><ellipse stroke="#9D0000" fill="#9D0000" cx="10.814" cy="10.116" rx="3.837" ry="3.837"/></g></svg>
