<svg width="134" height="125" viewBox="0 0 134 125" xmlns="http://www.w3.org/2000/svg"><g fill="none" fill-rule="evenodd"><g transform="translate(2 46)" fill="#FFF"><ellipse transform="rotate(-44.741 45.839 16.22)" cx="45.839" cy="16.221" rx="11" ry="11"/><path d="M34.483 65.213l-16.76-12.8c4.186-5.915 10.743-10.91 14.677-15.074 3.796-3.373 5.349-9.282 2.354-12.385-2.124-2.199-5.94-3.49-10.091-2.363 1.33.314 2.416.66 3.169.929l.084.03.02.007.03.011c2.528.97 3.79 3.806 2.816 6.322-.725 1.873-2.568 3.13-4.587 3.13a4.914 4.914 0 0 1-1.761-.325h-.003l-.056-.02a12.016 12.016 0 0 0-.356-.121c-.247-.08-.768-.239-1.454-.406-.911-.222-2.727-.593-4.635-.593h-.06c-1.451 0-2.782.216-3.852.627-1.061.415-2.61.91-3.481 1.697-.37.444-.73.894-1.083 1.353.241-.496.5-.924.765-1.298l-.003-.036c.063-.07.128-.14.187-.216.938-1.21 1.992-1.916 3.261-2.411 1.262-.485 2.744-.697 4.238-.694 1.805-.003 3.598.305 4.896.621.649.158 1.176.314 1.525.426.175.057.305.102.384.13l.079.028a3.938 3.938 0 0 0 5.08-2.244 3.905 3.905 0 0 0-2.254-5.057c-.253-.08-4.387-1.707-9.709-1.73-2.198.004-4.628.292-7.056 1.216-.511.194-1.02.425-1.526.682a15.056 15.056 0 0 0-5.17 4.29C1.824 31.979.425 36.08.118 41.353l.554.067c1.322.155 2.915.308 4.5.387-.258.464-.516.94-.775 1.427a73.77 73.77 0 0 1-4.332-.409c-.006.275-.012.55-.012.83 0 .803.023 1.633.07 2.496a3.902 3.902 0 0 0 1.714 3.02c-1.303 5.209.95 7.573 3.944 9.522.033.027.063.056.097.082l6.775 5.176h-5.33c-3.391 0-6.141 2.736-6.141 6.112 0 3.375 2.75 6.112 6.142 6.112h23.42a6.137 6.137 0 0 0 5.817-4.147 6.092 6.092 0 0 0-2.077-6.815z"/></g><path d="M112.093 123.656c-3.247 0-6.051-2.352-6.494-5.585l-4.722-29.836-2.362 27.043c-.295 3.528-3.542 6.32-7.231 6.026-3.69-.294-6.346-3.527-6.05-7.201l3.246-38.948.738-20.224-.738.882a6.982 6.982 0 0 1-1.476 1.47L71.372 70.369c-2.91 2.91-5.335 3.395-7.275 1.455-1.94-2.91-1.455-4.365 1.455-6.79l12.745-11.102 11.195-17.784c.147-.294.442-.441.59-.735l.295-.147.443-.441c.147 0 .147-.147.295-.147.295-.147.443-.147.59-.294.148 0 .295-.147.443-.147.295 0 .295-.147.443-.147l10.204-3.91c.148 0 .295-.146.59-.146h.443l15.075-2.205-1.476-19.107c-.148-1.763-.95-6.253 4.258-7.201 3.523-.507 4.996 2.645 5.292 6.026l1.626 17.717c.97 8.73.314 10.002-3.08 10.59l-13.726 2.351v34.01l6.937 44.092c.59 3.675-1.919 7.055-5.46 7.496-.591-.147-.886-.147-1.181-.147z" fill="#D0011B"/><g fill="#D0011B"><path d="M95.754 28.299c-5.832 0-10.668-4.837-10.668-10.67s4.836-10.67 10.668-10.67c5.832 0 10.669 4.837 10.669 10.67.142 5.833-4.694 10.67-10.669 10.67zM51.763 29.197l.38.96-.683.27-.38-.96M55.127 29.005l-.295-.882 1.476-.588.295.882-1.476.588zm4.28-1.764l-.443-.882 1.476-.588.295.882-1.328.588zm4.28-1.617l-.295-.881 1.475-.588.296.882-1.476.587zm4.28-1.763l-.296-.882 1.476-.588.295.882-1.475.588zm4.28-1.617l-.296-.882 1.476-.588.295.882-1.476.588zM76.725 19.315l.382.96-.683.272-.382-.96"/><g><path d="M79.063 24.508l.678.78-.555.482-.678-.78M61.768 40.763l-.59-.735 1.18-1.029.59.735-1.18 1.029zm3.542-3.087l-.59-.735 1.18-1.028.59.734-1.18 1.03zm3.394-2.94l-.59-.734 1.18-1.029.591.735-1.18 1.029zm3.542-3.086l-.59-.735 1.18-1.028.591.735-1.18 1.028zm3.395-2.94l-.59-.734 1.18-1.029.59.735-1.18 1.029zM58.704 41.93l.677.78-.556.481-.676-.78"/></g><g><path d="M82.256 30.54l.828.617-.44.589-.827-.617M66.49 53.402l-.737-.587.885-1.176.738.588-.885 1.175zm2.657-3.527l-.738-.588.886-1.176.738.588-.886 1.176zm2.657-3.674l-.738-.588.885-1.176.738.588-.885 1.176zm2.804-3.528l-.886-.588.886-1.175.737.588-.737 1.175zM77.264 39l-.738-.588.886-1.176.737.588L77.264 39zm2.656-3.674l-.737-.588.885-1.176.738.588-.886 1.176zM63.805 55.228l.828.618-.44.589-.827-.618"/></g></g></g></svg>
