<svg xmlns="http://www.w3.org/2000/svg" width="60" height="93" viewBox="0 0 60 93">
  <g fill="#FFFFFF" fill-rule="evenodd">
    <path d="M15.22 86.8035294C15.1335294 85.87 13.8488235 71.2794118 13.0052941 57.5711765 9.85352941 70.4023529 6.80235294 86.7964706 6.80235294 86.7964706 6.81470588 89.9394118 9.50058824 92.9429412 12.6364706 92.9429412L18.0717647 92.9394118C16.3705882 91.4129412 15.2288235 89.2017647 15.22 86.8035294zM10.9994228 22.3052941C4.94017042 22.3052941.00764705882 17.3768829.00764705882 11.3135184.00764705882 5.23164926 4.94017042.305294118 10.9994228.305294118 17.0915723.305294118 22.0097031 5.22959318 22.0097031 11.3135184 22.0097031 17.3768829 17.0895162 22.3052941 10.9994228 22.3052941z"/>
    <g transform="translate(14.639 21.168)">
      <path d="M44.4272269,41.9284034 L42.302521,38.8719328 L33.8284034,44.8507563 L35.9089916,47.8454622 C36.9148739,49.2942857 38.5313445,50.0742857 40.1742857,50.0742857 C41.192521,50.0742857 42.2248739,49.772521 43.1266387,49.1478151 C45.4807563,47.5084034 46.0613445,44.2772269 44.4272269,41.9284034 Z"/>
      <path d="M36.2689916,61.3384034 L15.662521,61.3384034 C15.662521,61.3384034 20.4642857,42.4260504 21.8601681,27.6272269 L27.2548739,35.3901681 L39.8848739,35.3901681 L18.3854622,4.45663866 C18.1013445,4.04722689 17.7536975,3.71016807 17.3831092,3.40840336 C15.1331092,0.97487395 11.1254622,-1.29983193 4.92781513,2.1607563 C4.92781513,2.1607563 0.470168067,3.85487395 0.36605042,13.952521 C-0.668067227,22.502521 3.14193277,65.6248739 3.14193277,65.6248739 C3.15428571,68.7678151 5.84016807,71.7713445 8.97605042,71.7713445 L36.5319328,71.762521 C39.6713445,71.762521 42.2795798,69.9113445 42.2795798,66.7613445 C42.2813445,63.2248739 39.4172269,61.3384034 36.2689916,61.3384034 Z"/>
      <polygon points="29.15 38.12 32.272 42.61 38.635 38.12"/>
    </g>
  </g>
</svg>
