<svg width="23" height="40" viewBox="0 0 23 40" xmlns="http://www.w3.org/2000/svg"><g fill="#0C99E7" fill-rule="evenodd"><ellipse cx="11.194" cy="3.277" rx="3.277" ry="3.277"/><path d="M18.79 3.105c.62-2.112 3.832-1.168 3.211.944l-2.039 6.87a1.674 1.674 0 0 1-1.893 1.177l-3.177-.74.035 10.787 1.644 8.33c.019.098.029.196.03.294l.47 7.476c.137 2.198-4.205 2.408-4.343.21l-.466-7.433-1.151-5.836L9.96 31.02l-.466 7.433c-.138 2.198-4.48 1.988-4.342-.21l.468-7.476c.002-.098.012-.196.031-.295l1.643-8.329.036-10.787-3.177.74A1.674 1.674 0 0 1 2.26 10.92L.22 4.05C-.4 1.936 2.812.993 3.433 3.105l1.611 5.43c5.941-1.057 6.194-1.057 12.136 0l1.611-5.43z"/></g></svg>
