<svg xmlns="http://www.w3.org/2000/svg" width="18" height="35" viewBox="0 0 18 35">
  <g fill="none" fill-rule="evenodd" transform="translate(-1)">
    <path fill="#4990E2" d="M6.183,0.203 L5.138,0.203 L3.62,5.263 L2.069,0.203 L0.991,0.203 L2.938,6 L3.279,6 C2.949,6.902 2.619,7.353 1.442,7.551 L1.552,8.343 C3.158,8.167 3.84,7.265 4.247,6.033 L6.183,0.203 Z M9.516,0.071 C7.866,0.071 6.92,1.314 6.92,3.107 C6.92,4.944 7.855,6.132 9.505,6.132 C11.144,6.132 12.09,4.889 12.09,3.096 C12.09,1.259 11.166,0.071 9.516,0.071 Z M9.516,0.885 C10.473,0.885 11.001,1.589 11.001,3.096 C11.001,4.614 10.473,5.318 9.505,5.318 C8.537,5.318 8.009,4.614 8.009,3.107 C8.009,1.589 8.548,0.885 9.516,0.885 Z M18.074,0.203 L17.062,0.203 L17.062,4.339 C16.71,4.922 16.237,5.34 15.61,5.34 C14.983,5.34 14.719,5.043 14.719,4.251 L14.719,0.203 L13.707,0.203 L13.707,4.361 C13.707,5.494 14.312,6.132 15.324,6.132 C16.149,6.132 16.688,5.802 17.128,5.098 L17.205,6 L18.074,6 L18.074,0.203 Z"/>
    <g fill="#0C99E7" transform="translate(4 13)">
      <ellipse cx="6.327" cy="1.802" rx="1.852" ry="1.802"/>
      <path d="M10.6206025,1.7078437 C10.9713354,0.546376136 12.7862994,1.06527508 12.4355262,2.22685804 L11.2829341,6.00559012 C11.145827,6.45959299 10.6807443,6.73280591 10.2127675,6.65273371 L8.41741861,6.24591298 L8.43724161,12.1787276 L9.36595528,16.7597297 C9.37684998,16.8140542 9.38258913,16.8681848 9.38354741,16.9216439 L9.64846623,21.0335724 C9.72641762,22.2425012 7.27218603,22.357838 7.19423369,21.1489297 L6.93088549,17.0612495 L6.28008014,13.8511454 L5.62930356,17.0612495 L5.36595536,21.1489297 C5.28800299,22.3578379 2.8337714,22.2425012 2.91172282,21.0335724 L3.1766426,16.9216439 C3.17759992,16.8681847 3.18333906,16.8140542 3.1942242,16.7597297 L4.12294744,12.1787275 L4.14276087,6.24601834 L2.34742156,6.65311788 C1.87944482,6.73319008 1.41436162,6.45997716 1.277255,6.00596495 L0.124859762,2.22705012 C-0.22591292,1.06546741 1.58904192,0.546558687 1.93978491,1.70803578 L2.85058064,4.69467489 C6.20856841,4.11321577 6.35159097,4.1132927 9.70963815,4.69439654 L10.6206025,1.7078437 Z"/>
    </g>
  </g>
</svg>
