<?xml version="1.0" encoding="UTF-8"?>
<svg width="22px" height="31px" viewBox="0 0 22 31" version="1.1" xmlns="http://www.w3.org/2000/svg" xmlns:xlink="http://www.w3.org/1999/xlink">
    <!-- Generator: Sketch 41.2 (35397) - http://www.bohemiancoding.com/sketch -->
    <title>location-pin copy 5</title>
    <desc>Created with Sketch.</desc>
    <defs></defs>
    <g id="Page-1" stroke="none" stroke-width="1" fill="none" fill-rule="evenodd">
        <g id="ICC_dieuw" transform="translate(-642.000000, -1728.000000)">
            <g id="location-pin-copy-5" transform="translate(642.172492, 1728.706972)">
                <g id="Capa_1">
                    <path d="M10.7496494,0 L10.7496494,0 C4.81232423,0 0.017898232,4.794426 0.017898232,10.7317512 C0.017898232,12.8019081 0.67919837,14.7786205 1.59926813,16.4030468 L8.59323589,28.5076426 C9.03170664,29.2983276 9.91583617,29.69367 10.7496494,29.69367 C11.5835345,29.69367 12.4244639,29.2983276 12.9060629,28.5076426 L19.9000306,16.4102348 C20.8272884,14.7856648 21.4814005,12.8448926 21.4814005,10.7387954 C21.4814005,4.80161405 16.6869745,0 10.7496494,0 Z M10.7496494,13.901679 C8.59323589,13.901679 6.83216487,12.140608 6.83216487,9.98419448 C6.83216487,7.82778098 8.59323589,6.06670996 10.7496494,6.06670996 C12.9060629,6.06670996 14.6671339,7.82778098 14.6671339,9.98419448 C14.6671339,12.147796 12.9060629,13.901679 10.7496494,13.901679 Z" id="Shape-Copy-2" fill="#FFFFFF"></path>
                    <ellipse id="Oval-2" stroke="#9D0000" fill="#9D0000" cx="10.8139535" cy="10.1162791" rx="3.8372093" ry="3.8372093"></ellipse>
                </g>
            </g>
        </g>
    </g>
</svg>