<svg xmlns="http://www.w3.org/2000/svg" width="115" height="84" viewBox="0 0 115 84"><g fill="#D3000C" fill-rule="evenodd"><path d="M24.856 82.258c18.264 5.935 37.88-4.049 43.807-22.292 4.93-15.174-1.18-31.256-13.87-39.67l2.204-6.782-5.153-1.675C53.8 8.521 57.18 5.195 62.756 6.43c5.556 1.224 8.685 4.428 11.108 11.412l.542 1.59c2.116 6.284 5.31 15.782 12.056 17.974l.004.002c3.193 1.035 6.575.306 10.048-2.169a3.092 3.092 0 0 0 .725-4.319 3.1 3.1 0 0 0-4.322-.723c-2.694 1.92-4.083 1.47-4.542 1.321-3.78-1.228-6.585-9.572-8.094-14.056l-.553-1.644C77.632 9.779 74.016 2.59 64.095.38c-7.635-1.69-14.338 1.924-18.263 9.503l-6.705-2.179-2.216 6.819c-15.158-.59-29.478 8.825-34.392 23.948-5.933 18.246 4.069 37.85 22.337 43.786z"/><path d="M89.573 13.753l-3.833 1.553 6.746 11.101zM103.928 14.704l-3.856-1.473-2.649 12.709zM101.277 49.968l-3.236-12.58-.875 12.956zM112.96 41.037l1.674-3.77-12.565-3.324zM112.967 21.626l-10.459 7.701 12.355-4.028z"/></g></svg>