<svg xmlns="http://www.w3.org/2000/svg" width="148" height="130" viewBox="0 0 148 130"><g fill="none" fill-rule="evenodd"><g fill="#FFF"><path d="M102.118 84.67a6.411 6.411 0 0 0 4.16 6.518l-.292-6.141c-1.529-.062-2.805-.187-3.868-.378zm6.239 6.919c.433.01.858-.021 1.271-.094l.972-2.21.16-.362.395.022 2.454.137a6.369 6.369 0 0 0 1.32-4.175c-1.922.088-3.9.165-5.77.182l-.802 6.5z"/><path d="M107.758 91.774l.028-.226.868-7.026c1.966-.006 4.08-.084 6.226-.183l1.031-.049c.471-10.481-9.523-10.856-12.397-7.17-2.347 3.008-2.143 6.81-2.143 6.81.258.064.535.12.82.172 1.24.225 2.713.345 4.34.394l.327 6.877.018.379c-.003.585.88.608.882.022zm13.44 4.092l-.003-.594v-.07h-.24c-.109.078-.217.151-.323.222-.089.164-.192.3-.311.41-.26.368-.034 2.292.507 4.67 1.659-.727 3.38-1.868 5.114-3.503a2.27 2.27 0 0 0 .704-1.392l-4.854.23-.594.027zm-7.756 3.145a2.834 2.834 0 0 1 .844 2.302c.62.124 1.28.197 1.978.198h.049c-.261-.972-.503-1.946-.65-2.554-.652.04-1.545.078-2.22.054z"/><path d="M89.567 129.773h13.983c1.083 0 2.12-.5 2.793-1.347s.926-1.97.68-3.022l-1.942-8.342c.03-.046.058-.094.087-.145l7.041-1.005-1.886 9.613a3.563 3.563 0 0 0 3.503 4.249 3.567 3.567 0 0 0 3.497-2.878l2.854-14.534a3.567 3.567 0 0 0-4.005-4.212l-9.277 1.323c.572-1.626 1.304-3.226 2.026-4.733-1.82.51-3.398.914-4.77 1.222-2.185.485-3.614.694-4.783.7h-.006a5.776 5.776 0 0 1-1.52-.18 5.153 5.153 0 0 1-.283-.09c-.312 1.6-.522 3.333-.666 5.343.005.884.089 1.628.24 2.256.001.26.03.518.088.772l1.837 7.886h-9.491A3.564 3.564 0 0 0 86 126.21a3.565 3.565 0 0 0 3.567 3.563zm6.735-29.035c.447-.534.93-.958 1.344-1.301.821-.68 1.845-1.407 3.222-2.291l.316-.202a85.373 85.373 0 0 1 4.123-2.437c.43-.235.903-.356 1.379-.356.203 0 .4.027.594.069a2.849 2.849 0 0 1 2.1 1.839c.38-.092.62-.063.675.132.166.588-.065 1.494-.43 2.414.327-.096.658-.194.997-.296a2.865 2.865 0 0 1 1.033-.113c.338.026.663.113.963.25.073-.064.138-.092.193-.074.55.18 3.294-.016 3.294-.016s.38 1.598.795 3.135c.327 1.212.676 2.386.88 2.707.461.73 3.2-.837 3.2-.837s-.344-1.181-.68-2.638c-.387-1.672-.764-3.705-.601-4.737.041-.263.116-.462.236-.572.178-.163.3-.438.38-.778l1.401-.007h.046l.003.64 4.876-.23 12.327-.582-.002-.502 8.954-.042-.008-1.645-8.954.042-.002-.503-17.21-.652.003.64-1.35.006c-.08-.987-.214-1.781-.214-1.781l-7.046-.394-2.016-.113-.8 1.818-.65 1.48-.683.019-3.435.097-11.255.32s-.166 3.84.859 7.582c.096.35.3.58.592.71.19-.341.383-.597.55-.801z"/><path d="M99.365 106.092c1.176-.006 2.604-.229 4.66-.685a99.602 99.602 0 0 0 5.226-1.352 192.95 192.95 0 0 0 2.852-.834 2.278 2.278 0 0 0 1.528-2.84 2.267 2.267 0 0 0-1.366-1.469 2.278 2.278 0 0 0-1.478-.058c-.371.112-.73.218-1.082.322l-.369.108-.732.213c-1.187.341-2.256.635-3.212.883.597-.357 1.136-.67 1.55-.907.528-.3.844-.473.845-.474a2.285 2.285 0 0 0 1.175-2.209 2.279 2.279 0 0 0-.126-.556 2.299 2.299 0 0 0-.145-.33 2.278 2.278 0 0 0-1.658-1.155 2.27 2.27 0 0 0-1.441.252c-.026.015-2.194 1.2-4.415 2.624-.185.118-.37.239-.554.36-.927.61-1.837 1.249-2.612 1.889-.467.39-.887.77-1.268 1.226-.14.17-.278.351-.41.566a4.148 4.148 0 0 0-.138.246c-.045.09-.09.189-.133.296a2.9 2.9 0 0 0-.215 1.078 2.67 2.67 0 0 0 .512 1.568c.416.552.901.82 1.319.976.109.04.214.075.312.102.488.13.916.158 1.375.16z"/></g><path fill="#D3000C" d="M51.046 16.327C51.046-.508 38.122.002 38.122.002s-12.924-.51-12.924 16.325c0 0-3.911 3.23-.51 4.42.277.097.673.186 1.15.266a12.292 12.292 0 0 1 2.894-6.828c.026.107.065.213.108.319.093.223.227.44.393.651 1.327 1.682 4.893 2.888 9.096 2.888 3.993 0 7.418-1.087 8.89-2.637a3 3 0 0 0 .59-.873c.003-.01.005-.02.01-.03l.005.05a12.283 12.283 0 0 1 2.593 6.459c.473-.081.865-.168 1.14-.264 3.4-1.19-.511-4.421-.511-4.421z"/><path fill="#000" d="M24.557 58.091c.234.502.494 1.01.791 1.53.44-.44.79-.86.99-1.236-.386-.123-1.012-.218-1.781-.294z"/><path fill="#D3000C" d="M31.23 80.221a88.166 88.166 0 0 1-3.244-2.611 72.035 72.035 0 0 1-3.04-2.714c-.122-.116-.24-.232-.36-.347.066.309.17.603.305.88l-4.898 47.396a6.23 6.23 0 1 0 12.394 1.28l4.5-43.562c-.77.464-1.659.72-2.592.72a4.987 4.987 0 0 1-3.064-1.042z"/><path fill="#000" d="M29.407 64.977l-.055.026a51.759 51.759 0 0 0 3.882 3.817c.155-.549.297-1.046.413-1.445-1.344-.665-3.314-1.687-4.24-2.398z"/><path fill="#D3000C" d="M45.78 67.963l-.936-.479.517-.914.061-.108-.705-.4c-.398.317-.791.516-1.19.606-.84.391-2.522 4.598-3.933 9.713-.114.412-.226.83-.335 1.251h.464l4.802 46.474a6.23 6.23 0 0 0 6.838 5.555 6.229 6.229 0 0 0 5.556-6.836l-5.164-49.969v-1.838l-.2-.102-5.776-2.953zm-7.45-48.55c-4.334 0-8.704-1.317-9.413-3.838a11.274 11.274 0 0 0-2.079 5.582c-.03.337-.048.679-.048 1.024 0 6.262 5.076 11.337 11.338 11.337 6.261 0 11.337-5.075 11.337-11.337 0-.346-.018-.688-.048-1.026a11.266 11.266 0 0 0-1.81-5.19c-1.028 2.267-5.173 3.448-9.278 3.448zm-23.382 25.3L5.917 39.88S2.293 45.628.576 52.27c-.853 3.3 5.966 4.064 12.953 4.358a20.416 20.416 0 0 1-.377-3.88 18.637 18.637 0 0 1 1.796-8.037z"/><path fill="#D3000C" d="M75.625 76.827l-2.52-1.571-13.36-8.33-7.99-4.983-1.934-1.206-.2.353-.358.632-2.076-1.176c.187-.398.359-.78.51-1.13.452-1.041.728-1.79.728-1.79L34.98 48.902l-5.116 3.79-5.364-2.87-.64-.342a8.703 8.703 0 0 0-.629 3.27c.003 1.374.299 2.797.877 4.291l.392.037c1.947.192 3.135.518 2.98 1.135-.18.726-.787 1.519-1.597 2.301l.021.035c.273.432.57.866.882 1.303a33.849 33.849 0 0 0 1.877 2.374c.561-.292.978-.415 1.127-.25.683.76 5.062 2.866 5.062 2.866s-.343 1.162-.777 2.716a75.957 75.957 0 0 0 3.29 2.67c.124.094.24.195.351.299a5.01 5.01 0 0 1 1.35 2.08c.082-.278.167-.561.256-.85 1.094-3.567 2.65-7.769 3.984-8.072.415-.093.843-.409 1.267-.86l2.223 1.258-.557.984 5.192 2.654.324.166 21.561 11.02.438-.774 13.76 7.789 1.433-2.531-13.76-7.789.438-.775z"/><path fill="#D3000C" d="M16.292 44.287a17.736 17.736 0 0 0-2.13 8.463 19.399 19.399 0 0 0 .407 3.919c.07.337.148.676.236 1.016.58 2.266 1.565 4.617 3.004 7.012a31.104 31.104 0 0 0 1.018 1.593c1.492 2.202 3.364 4.453 5.673 6.759.189.188.384.377.578.566a71.45 71.45 0 0 0 4.51 4.017 89.33 89.33 0 0 0 2.257 1.79 4.012 4.012 0 0 0 5.184-.241c.132-.122.257-.253.374-.395.03-.037.064-.07.093-.108a4.03 4.03 0 0 0-.743-5.651 76.74 76.74 0 0 1-3.82-3.129c-1.743-1.53-3.225-2.995-4.478-4.39a44.792 44.792 0 0 1-.67-.765 36.221 36.221 0 0 1-1.46-1.819 29.041 29.041 0 0 1-1.201-1.728c-.023-.036-.049-.072-.071-.108a25.58 25.58 0 0 1-.465-.767l-.089-.154a21.033 21.033 0 0 1-1.094-2.17c-.152-.354-.288-.7-.407-1.036-.563-1.591-.773-2.986-.776-4.211a9.682 9.682 0 0 1 1.179-4.66 10.658 10.658 0 0 1 1.5-2.102l.95.456c-.536.56-.98 1.154-1.352 1.77v.464l5.277 2.823 4.603-3.41.562-.416.587.38 13.445 8.725.676.439-.28.755a39.9 39.9 0 0 1-.822 2.011c-.02.047-.038.091-.06.138l.397.225.025-.047.034-.062.518-.915.893.557 1.4.873V55.3c1.805 3.013 3.88 6.216 6.204 9.321l15.836 9.875a4.027 4.027 0 0 0-.778-5.448c-5.684-4.528-11.183-12.402-15.054-19.087a134.803 134.803 0 0 1-4.587-8.587c-.537-1.099-.95-1.985-1.228-2.591a75.505 75.505 0 0 1-.31-.69c-.07-.154-.095-.218-.096-.218a4.02 4.02 0 0 0-2.637-2.29 3.885 3.885 0 0 0-1.243-.205H28.393c-.339 0-.666.048-.98.13-1.4.172-2.533.664-3.771 1.309-2.134 1.17-4.356 3.006-6.187 5.594-.032.045-.066.085-.097.13a18.07 18.07 0 0 0-1.066 1.743z"/></g></svg>