<svg width="100" height="132" viewBox="0 0 100 132" xmlns="http://www.w3.org/2000/svg"><title>Child abuse</title><g transform="translate(2 2)" fill="none" fill-rule="evenodd"><ellipse fill="#FFF" transform="rotate(-44.741 87.9 89.9)" cx="87.899" cy="89.899" rx="7" ry="7"/><path d="M80.564 121.452l-10.01-7.645c2.5-3.532 6.416-6.515 8.766-9.003 2.267-2.014 3.195-5.543 1.406-7.396-1.268-1.314-3.547-2.085-6.027-1.412.794.187 1.443.394 1.893.555l.05.018.012.004.018.007a2.92 2.92 0 0 1 1.682 3.775 2.952 2.952 0 0 1-2.74 1.87c-.36 0-.714-.065-1.052-.194h-.002l-.033-.013a12.973 12.973 0 0 0-1.08-.315c-.545-.131-1.63-.353-2.77-.353h-.035c-.867 0-1.662.13-2.3.374-.635.248-1.56.543-2.08 1.014-.22.265-.436.534-.647.808.144-.296.299-.552.457-.775l-.002-.022c.038-.042.077-.083.112-.129.56-.723 1.19-1.144 1.948-1.44.753-.29 1.638-.416 2.53-.414 1.08-.002 2.15.182 2.925.37.388.095.702.188.911.255a8.1 8.1 0 0 1 .23.078c.022.008.039.013.046.017a2.352 2.352 0 0 0 3.034-1.34 2.333 2.333 0 0 0-1.346-3.021c-.151-.048-2.62-1.02-5.799-1.033-1.312.002-2.764.174-4.214.726-.305.116-.61.254-.911.407a8.992 8.992 0 0 0-3.088 2.562c-1.39 1.816-2.226 4.266-2.41 7.415l.331.04c.79.093 1.742.184 2.689.23-.155.278-.31.562-.464.853a44.06 44.06 0 0 1-2.587-.244c-.003.165-.007.328-.007.496 0 .48.013.975.041 1.49a2.33 2.33 0 0 0 1.024 1.804c-.778 3.111.567 4.523 2.356 5.688.02.015.037.033.058.048l4.046 3.092h-3.183a3.66 3.66 0 0 0-3.668 3.65A3.66 3.66 0 0 0 64.342 128h13.989a3.665 3.665 0 0 0 3.474-2.477 3.638 3.638 0 0 0-1.24-4.07z" fill="#FFF"/><path d="M55.328 54.923c2.072-1.057 2.899-3.602 1.85-5.685a4.208 4.208 0 0 0-.52-.788l25-47.083L79.116 0 54.163 46.992a4.167 4.167 0 0 0-2.639.387c-4.006 2.044-7.129 2.727-9.518 2.727-2.47-.012-4.244-.678-5.808-1.714-2.325-1.537-4.084-4.155-5.163-6.475a23.72 23.72 0 0 1-1.15-2.942 20.12 20.12 0 0 1-.244-.844c-.024-.093-.04-.16-.048-.195l-.007-.032a4.235 4.235 0 0 0-.34-.958c-.56-1.99-1.71-3.637-3.477-4.463-4-1.869-10.414-.888-14.517 5.365 3.924-2.09 7.482-2.638 9.368-2.772l.08-.006.026-.002.032-.001c.074-.003.148-.005.22-.005 2.826 0 5.132 2.225 5.25 5.065.12 2.904-2.128 5.373-5.015 5.503l-.114.011c-.166.017-.423.05-.756.109-.642.113-1.64.343-2.756.782-2.793 1.116-4.814 2.847-6.174 5.288-1.308 2.365-1.948 5.275-1.952 8.892-.001 3.045.48 6.523 1.43 10.341.34 1.37.13 2.791-.593 4.002a5.225 5.225 0 0 1-2.667 2.23v44.746c0 3.65 2.941 6.61 6.57 6.61 3.628 0 6.57-2.96 6.57-6.61v-51.81c0-.345-.034-.68-.084-1.01.877-6.474 3.411-13.143 5.689-18.749 1.331 1.774 3.01 3.524 5.15 4.965 2.758 1.867 6.322 3.138 10.418 3.138h.06c2.056 0 4.225-.304 6.51-.936l-2.829 5.328 2.544 1.366 4.3-8.097c.917-.385 1.85-.818 2.8-1.303z" fill="#D0011B"/><ellipse fill="#D0011B" transform="rotate(-65.978 31.218 17.26)" cx="31.218" cy="17.26" rx="10.936" ry="11"/><path d="M6.811 76.439c2.253-.567 3.623-2.864 3.06-5.129-1.043-4.194-1.462-7.697-1.46-10.598.005-4.314.9-7.266 2.086-9.409 1.775-3.185 4.368-4.82 6.708-5.755a15.612 15.612 0 0 1 2.956-.839c.37-.066.655-.1.831-.119.088-.01.147-.013.176-.016 2.314-.104 4.108-2.074 4.012-4.402-.098-2.334-2.058-4.146-4.377-4.049H20.8c-.397.038-5.222.212-10.436 3.45a20.877 20.877 0 0 0-7.21 7.604C1.195 50.693-.005 55.2 0 60.712c0 3.717.531 7.902 1.712 12.65a4.21 4.21 0 0 0 4.076 3.204c.338 0 .681-.042 1.023-.127z" fill="#D0011B"/></g></svg>