<?xml version="1.0" encoding="UTF-8" standalone="no"?>
<svg width="79px" height="103px" viewBox="0 0 79 103" version="1.1" xmlns="http://www.w3.org/2000/svg" xmlns:xlink="http://www.w3.org/1999/xlink">
    <!-- Generator: Sketch 41.2 (35397) - http://www.bohemiancoding.com/sketch -->
    <title>Extermination</title>
    <desc>Created with Sketch.</desc>
    <defs></defs>
    <g id="Page-1" stroke="none" stroke-width="1" fill="none" fill-rule="evenodd">
        <g id="Extermination" fill="#FFFFFF">
            <g id="noun_5051_cc" transform="translate(1.000000, 1.000000)">
                <path d="M76.4096074,34.8017451 C76.4096074,16.1131899 62.0227273,0.827150974 38.036157,0.827150974 C14.0532025,0.827150974 0.859504132,16.1131899 0.859504132,34.8017451 C0.859504132,53.4903003 6.13481405,51.0955357 6.13481405,61.6390016 C6.13481405,65.5941558 2.29855372,63.6689529 2.29855372,72.1824675 C2.29855372,81.5267451 15.3693182,80.2119724 19.2091942,84.0370942 C23.0454545,87.8730519 21.5909091,93.1818182 22.6838843,94.9453734 C23.7768595,96.7089286 29.5454545,99.4318182 38.6363636,99.7854708 C48.8636364,99.4318182 53.9772727,96.5909091 54.5779959,94.9453734 C55.178719,93.2998377 54.2019628,87.876664 58.052686,84.0370942 C61.8889463,80.2011364 74.9597107,81.5267451 74.9597107,72.1824675 C74.9597107,63.679789 71.1198347,65.5941558 71.1198347,61.6390016 C71.1342975,51.0955357 76.4096074,53.4939123 76.4096074,34.8017451 Z M19.9540289,70.3872971 C13.5072314,71.4167208 10.5893595,69.6107143 9.88429752,64.9981737 C8.04752066,52.9773945 19.1224174,51.0341315 24.6327479,51.6951299 C27.2758264,52.012987 31.8279959,54.8122971 31.8279959,58.2906656 C31.8316116,67.6313312 25.956095,69.4301136 19.9540289,70.3872971 Z M42.1110537,85.9586851 L35.4003099,85.9586851 C34.1998967,85.9586851 32.3992769,84.7667208 32.2799587,81.8879464 C32.1606405,79.0127841 35.9969008,67.3929383 38.7592975,67.3929383 C41.5144628,67.3929383 45.3507231,79.0127841 45.2386364,81.8879464 C45.1193182,84.7667208 43.3186983,85.9586851 42.1110537,85.9586851 Z M67.0594008,64.9981737 C66.3543388,69.6107143 63.4292355,71.4167208 56.982438,70.3872971 C50.9876033,69.4265016 45.1120868,67.6277192 45.1120868,58.2870536 C45.1120868,54.8086851 49.6606405,51.9660308 52.3073347,51.6662338 C57.8176653,51.0341315 68.8961777,52.9773945 67.0594008,64.9981737 Z" id="Shape"></path>
            </g>
        </g>
    </g>
</svg>