<svg width="55" height="133" viewBox="0 0 55 133" xmlns="http://www.w3.org/2000/svg"><title>Forced pregnancy</title><g transform="translate(2 2)" fill="#FFF" fill-rule="evenodd"><path d="M50.57 39.053c0-7.946-4.193-15.73-13.487-15.73H23.41c-8.764.43-12.732 8.001-12.732 15.73l-.003 4.165C-1.66 46.198.085 69.098.085 76.19v9.357h15.654l.003 38.437c0 7.384 11.06 7.384 11.06 0l-.005-38.437h4.49v38.499c0 7.285 11.013 7.322 11.013 0V85.547h2.391V81.95c-2.756-.7-4.667-2.81-4.667-6.678l-.008-35.206h1.207v35.206c0 3.591 2.347 5.39 4.689 5.39 2.343 0 4.68-1.8 4.671-5.39V43.366l-.013-4.313z"/><ellipse cx="28.856" cy="9.937" rx="9.937" ry="9.937"/></g></svg>