<svg xmlns="http://www.w3.org/2000/svg" width="60" height="93" viewBox="0 0 60 93"><g fill="#FFF" fill-rule="evenodd"><path d="M15.22 86.804c-.086-.934-1.371-15.525-2.215-29.233-3.151 12.831-6.203 29.225-6.203 29.225.013 3.143 2.699 6.147 5.834 6.147l5.436-.004c-1.701-1.526-2.843-3.737-2.852-6.135zM11 22.305C4.94 22.305.007 17.377.007 11.314.008 5.232 4.94.305 10.999.305a11 11 0 0 1 11.01 11.009c0 6.063-4.92 10.991-11.01 10.991zM59.066 63.096l-2.124-3.056-8.475 5.979 2.081 2.994a5.184 5.184 0 0 0 7.218 1.303 5.188 5.188 0 0 0 1.3-7.22z"/><path d="M50.908 82.506H30.302s4.801-18.912 6.197-33.71l5.395 7.762h12.63l-21.5-30.933a5.147 5.147 0 0 0-1.002-1.049c-2.25-2.433-6.258-4.708-12.455-1.247 0 0-4.458 1.694-4.562 11.792-1.034 8.55 2.776 51.672 2.776 51.672.012 3.143 2.698 6.146 5.834 6.146l27.556-.008c3.14 0 5.748-1.852 5.748-5.002.001-3.536-2.863-5.423-6.011-5.423z"/><path d="M43.789 59.288l3.122 4.49 6.363-4.49z"/></g></svg>