<?xml version="1.0" encoding="UTF-8" standalone="no"?>
<svg width="134px" height="125px" viewBox="0 0 134 125" version="1.1" xmlns="http://www.w3.org/2000/svg" xmlns:xlink="http://www.w3.org/1999/xlink">
    <!-- Generator: Sketch 41.2 (35397) - http://www.bohemiancoding.com/sketch -->
    <title>Mental harm </title>
    <desc>Created with Sketch.</desc>
    <defs></defs>
    <g id="Page-1" stroke="none" stroke-width="1" fill="none" fill-rule="evenodd">
        <g id="Mental-harm-">
            <g id="Mental-harm" transform="translate(2.000000, 1.000000)">
                <g id="Group" transform="translate(0.000000, 45.000000)" fill="#FFFFFF">
                    <ellipse id="Oval" transform="translate(45.838711, 16.220711) rotate(-44.740708) translate(-45.838711, -16.220711) " cx="45.8387115" cy="16.2207108" rx="11" ry="11"></ellipse>
                    <path d="M34.4828609,65.2126446 L17.723659,52.4127988 C21.9090372,46.4979556 28.465704,41.5033947 32.3995076,37.3391417 C36.1962225,33.9655882 37.7489104,28.0571019 34.7535986,24.9544498 C32.6304453,22.7549653 28.8145675,21.4640273 24.6626015,22.5906641 C25.993196,22.9045967 27.0790948,23.2503138 27.8318536,23.5197482 L27.9158756,23.5505547 L27.9360213,23.5569116 L27.9664854,23.5681584 C30.4940254,24.5388069 31.7563214,27.3744695 30.7819606,29.8898427 C30.0567178,31.7631697 28.2136379,33.0208563 26.1951437,33.0208563 C25.5932315,33.0208563 24.9996723,32.9118112 24.4336291,32.6951879 L24.430681,32.6942099 L24.3746663,32.6741612 C24.3009628,32.6477557 24.1810717,32.6061914 24.0189239,32.5538693 C23.7717713,32.4741636 23.250933,32.3152413 22.5654901,32.1475172 C21.6535316,31.926493 19.8384592,31.5548593 17.9295375,31.5548593 L17.869592,31.5548593 C16.418615,31.5548593 15.0875291,31.7714826 14.0183364,32.1817466 C12.9570054,32.5969005 11.4077571,33.0912711 10.5365812,33.8785477 C10.1670808,34.3225521 9.8069162,34.7729134 9.45412193,35.2315876 C9.69537818,34.7362391 9.95383192,34.3078824 10.2191647,33.9338037 C10.2186733,33.9225569 10.2171992,33.9093542 10.2162165,33.8981073 C10.2791102,33.8272036 10.3444607,33.7587447 10.4029322,33.682462 C11.3409325,32.4717187 12.3953845,31.7656147 13.6640681,31.2707551 C14.9258726,30.7861644 16.4078051,30.573942 17.9020215,30.576876 C19.7072669,30.573942 21.4997369,30.8824957 22.7983933,31.1983844 C23.4469844,31.3563287 23.973719,31.512317 24.3230738,31.6238071 C24.4975055,31.6805301 24.6282065,31.7255174 24.7068236,31.7538789 C24.7456408,31.7675707 24.7731568,31.7768615 24.785932,31.7822404 C26.8103226,32.5568032 29.0843224,31.5533923 29.8650886,29.5382577 C30.6463461,27.523123 29.6380817,25.2586026 27.6122171,24.4811059 C27.3586769,24.4009112 23.2248911,22.773547 17.9030042,22.7515423 C15.7046734,22.7549653 13.2749134,23.0429814 10.8466275,23.9671756 C10.3356163,24.1608163 9.82607912,24.3921094 9.32145556,24.649319 C7.43366226,25.6092096 5.62153792,27.0126157 4.1548375,28.934353 C4.15385479,28.9358199 4.15287207,28.9372869 4.15188936,28.9387539 C1.82285754,31.9788151 0.424455731,36.0814551 0.116866296,41.3527853 C0.295720217,41.3747899 0.479487706,41.3972835 0.671116907,41.4197771 C1.99335839,41.5752765 3.58633754,41.7278419 5.17194633,41.8065696 C4.91300123,42.2706226 4.65454749,42.7464115 4.39560239,43.2339362 C2.82522566,43.1361379 1.30152784,42.9772156 0.0637997484,42.8251392 C0.0583948222,43.1004415 0.0524985392,43.3742768 0.0524985392,43.655447 C0.0524985392,44.4583714 0.0746096007,45.2881902 0.121288509,46.1507715 C0.190569835,47.4167709 0.858815252,48.5072223 1.83563282,49.170784 C0.532554254,54.3800122 2.78542575,56.7442869 5.77975485,58.6934077 C5.81316712,58.7198133 5.84264854,58.7491528 5.87655216,58.7750693 L12.6518728,63.9505571 L7.32261559,63.9505571 C3.93077874,63.9505571 1.18065404,66.6874435 1.18065404,70.0629529 C1.18065404,73.4379734 3.93077874,76.1753488 7.32261559,76.1753488 L30.7436347,76.1753488 C33.3773079,76.1753488 35.712236,74.5103321 36.560318,72.0282104 C37.4064346,69.5441328 36.5726019,66.8077354 34.4828609,65.2126446 Z" id="Shape"></path>
                </g>
                <path d="M110.092646,122.656003 C106.845909,122.656003 104.041909,120.304421 103.599172,117.070995 L98.8766455,87.2352921 L96.5153823,114.278491 C96.2202244,117.805864 92.9734874,120.598368 89.2840136,120.304421 C85.5945398,120.010473 82.9381187,116.777047 83.2332766,113.102699 L86.4800135,74.1546146 L87.2179083,53.9311505 L86.4800135,54.8129939 C86.0372767,55.4008895 85.5945398,55.8418112 85.004224,56.282733 L69.3724786,69.3692609 C66.4624679,72.2792716 64.0374589,72.7642734 62.0974517,70.8242662 C60.1574445,67.9142555 60.6424463,66.4592501 63.5524571,64.0342411 L76.2970659,52.9315587 L87.4915854,35.1477162 C87.6391643,34.8537684 87.9343223,34.7067945 88.0819012,34.4128467 L88.3770591,34.2658728 C88.5246381,34.1188989 88.672217,33.971925 88.819796,33.8249511 C88.9673749,33.8249511 88.9673749,33.6779772 89.1149539,33.6779772 C89.4101118,33.5310033 89.5576907,33.5310033 89.7052697,33.3840294 C89.8528486,33.3840294 90.0004276,33.2370555 90.1480065,33.2370555 C90.4431644,33.2370555 90.4431644,33.0900816 90.5907434,33.0900816 L100.795172,29.1805999 C100.942751,29.1805999 101.09033,29.033626 101.385488,29.033626 L101.828225,29.033626 L116.902758,26.8290174 L115.426969,7.72240985 C115.27939,5.958723 114.477645,1.46900969 119.685278,0.520688537 C123.207678,0.0140043093 124.681481,3.16621882 124.976639,6.54661862 L126.60269,24.264094 C127.572694,32.9941263 126.916646,34.2659937 123.52233,34.8538893 L109.797488,37.2054718 L109.797488,71.2151366 L116.733699,115.307308 C117.324014,118.981655 114.815172,122.362055 111.273277,122.802977 C110.682962,122.656003 110.387804,122.656003 110.092646,122.656003 Z" id="Shape" fill="#D0011B"></path>
                <g id="noun_43499_cc" transform="translate(49.079470, 5.673997)" fill="#D0011B">
                    <g id="Group">
                        <g transform="translate(33.985299, 0.000000)" id="Shape">
                            <path d="M10.6894381,21.6248054 C4.85731944,21.6248054 0.0209283507,16.7877209 0.0209283507,10.954766 C0.0209283507,5.12181105 4.85731944,0.284726486 10.6894381,0.284726486 C16.5215568,0.284726486 21.3579479,5.12181105 21.3579479,10.954766 C21.5001947,16.7877209 16.6638036,21.6248054 10.6894381,21.6248054 Z"></path>
                        </g>
                        <g transform="translate(0.000000, 12.108181)">
                            <polyline id="Rectangle-path" points="0.683930298 10.4146 1.06409368 11.3751324 0.380811996 11.6455644 0.000648616137 10.685032"></polyline>
                            <path d="M4.04770023,10.2226312 L3.75254233,9.34078777 L5.22833184,8.75289215 L5.52348975,9.63473558 L4.04770023,10.2226312 Z M8.32748983,8.45894434 L7.88475298,7.57710091 L9.36054249,6.9892053 L9.6557004,7.87104872 L8.32748983,8.45894434 Z M12.6072794,6.84223139 L12.3121215,5.96038797 L13.787911,5.37249235 L14.083069,6.25433577 L12.6072794,6.84223139 Z M16.887069,5.07854454 L16.5919111,4.19670111 L18.0677007,3.6088055 L18.3628586,4.49064892 L16.887069,5.07854454 Z M21.1668586,3.46183159 L20.8717007,2.57998816 L22.3474903,1.99209255 L22.6426482,2.87393597 L21.1668586,3.46183159 Z" id="Shape"></path>
                            <polyline id="Rectangle-path" points="25.6455254 0.5330198 26.0270317 1.49303564 25.3441175 1.76442295 24.9626111 0.804407114"></polyline>
                        </g>
                        <g transform="translate(6.607134, 17.182271)">
                            <polyline id="Rectangle-path" points="21.3764569 0.652108592 22.0539329 1.43196005 21.4991799 1.91388748 20.8217039 1.13403602"></polyline>
                            <path d="M4.08161874,16.9064531 L3.49130293,16.1715835 L4.67193454,15.1427662 L5.26225035,15.8776357 L4.08161874,16.9064531 Z M7.62351358,13.8200011 L7.03319777,13.0851316 L8.21382939,12.0563142 L8.80414519,12.7911837 L7.62351358,13.8200011 Z M11.0178295,10.880523 L10.4275137,10.1456535 L11.6081453,9.11683614 L12.1984611,9.85170566 L11.0178295,10.880523 Z M14.5597243,7.794071 L13.9694085,7.05920147 L15.1500401,6.03038414 L15.7403559,6.76525367 L14.5597243,7.794071 Z M17.9540402,4.85459291 L17.3637244,4.11972339 L18.544356,3.09090606 L19.1346718,3.82577558 L17.9540402,4.85459291 Z" id="Shape"></path>
                            <polyline id="Rectangle-path" points="1.01736757 18.0731341 1.69391375 18.853812 1.13857286 19.3350781 0.462026668 18.5544002"></polyline>
                        </g>
                        <g transform="translate(12.163896, 23.243029)">
                            <polyline id="Rectangle-path" points="19.012349 0.622349729 19.8406506 1.239702 19.4014926 1.82892038 18.573191 1.21156811"></polyline>
                            <path d="M3.2473834,23.4854517 L2.50948864,22.8975561 L3.39496235,21.7217649 L4.13285711,22.3096605 L3.2473834,23.4854517 Z M5.90380453,19.958078 L5.16590977,19.3701824 L6.05138348,18.1943911 L6.78927824,18.7822868 L5.90380453,19.958078 Z M8.56022566,16.2837304 L7.8223309,15.6958348 L8.70780461,14.5200435 L9.44569937,15.1079392 L8.56022566,16.2837304 Z M11.3642257,12.7563567 L10.478752,12.1684611 L11.3642257,10.9926698 L12.1021205,11.5805654 L11.3642257,12.7563567 Z M14.0206469,9.08200907 L13.2827521,8.49411346 L14.1682258,7.31832222 L14.9061206,7.90621784 L14.0206469,9.08200907 Z M16.677068,5.40766146 L15.9391733,4.81976585 L16.824647,3.64397461 L17.5625417,4.23187023 L16.677068,5.40766146 Z" id="Shape"></path>
                            <polyline id="Rectangle-path" points="0.561894436 25.3110508 1.38967954 25.9291262 0.9500071 26.5179771 0.122222001 25.8999017"></polyline>
                        </g>
                    </g>
                </g>
            </g>
        </g>
    </g>
</svg>