<svg width="83" height="134" viewBox="0 0 83 134" xmlns="http://www.w3.org/2000/svg"><title>Torture</title><g fill="#FFF" fill-rule="evenodd"><path d="M25.625 6.166l.138-4.158a14.29 14.29 0 0 0-1.224.014l.23 4.154a8.814 8.814 0 0 1 .856-.01zM20.268 7.206L18.93 3.268a37.1 37.1 0 0 0-1.038.37l1.458 3.896c.3-.111.606-.22.92-.328zM9.117 27.333a32.222 32.222 0 0 1-.225-.946l-4.063.894c.08.36.166.719.257 1.078l4.031-1.026zM39.82 16.019a37.525 37.525 0 0 0-.335-1.05l-3.946 1.316c.104.311.203.623.297.936l3.983-1.202zM33.153 11.07c.165.261.324.53.478.803l3.627-2.038a22.172 22.172 0 0 0-.588-.986l-3.517 2.222zM4.292 23.966c.037.373.083.745.136 1.117l4.118-.592a22.73 22.73 0 0 1-.116-.947l-4.138.422zM9.968 30.153a32.305 32.305 0 0 1-.31-.936l-3.965 1.258c.11.348.225.694.344 1.04l3.931-1.362zM31.503 8.922c.201.212.396.435.587.667l3.218-2.637a16.385 16.385 0 0 0-.787-.893l-3.018 2.863zM29.529 7.308c.237.143.467.3.692.467l2.489-3.333c-.328-.247-.67-.477-1.025-.692l-2.156 3.558zM15.185 48.47l3.395-2.402v-.002a89.205 89.205 0 0 1-.584-.834l-3.42 2.369c.205.296.408.586.61.87zM12.296 35.666c-.148-.3-.293-.602-.436-.904l-3.763 1.77c.153.327.31.65.467.972l3.732-1.838zM11.895 6.702l2.369 3.42c.25-.173.51-.344.78-.511l-2.193-3.535c-.329.204-.647.413-.956.626zM6.963 11.65l3.472 2.293c.16-.245.333-.486.517-.724l-3.299-2.536c-.244.317-.473.64-.69.967zM9.214 8.917l2.927 2.956c.212-.209.434-.416.667-.619L10.07 8.121c-.297.26-.583.525-.856.796zM34.485 13.57c.132.292.258.588.38.886l3.853-1.569c-.141-.344-.287-.688-.442-1.029l-3.791 1.712zM16.855 43.545c-.185-.28-.369-.565-.554-.852l-3.5 2.25c.194.3.388.598.582.892l3.472-2.29zM13.697 38.343c-.162-.294-.323-.59-.481-.887l-3.671 1.959c.17.316.34.63.512.942l3.64-2.014zM15.223 40.97c-.174-.287-.348-.577-.521-.87l-3.583 2.114c.183.31.366.615.55.917l3.554-2.16zM14.826 4.971l1.872 3.716c.279-.141.567-.279.863-.415l-1.724-3.784c-.346.156-.682.317-1.011.483zM5.335 14.822l3.886 1.486c.106-.277.221-.55.347-.818L5.8 13.728c-.17.36-.324.724-.465 1.094zM29.422 2.682c-.389-.138-.79-.255-1.203-.351l-.952 4.049c.27.063.53.14.783.228l1.372-3.926zM22.168 2.341a18.52 18.52 0 0 0-1.138.277l1.112 4.009c.301-.083.595-.154.881-.215l-.855-4.07zM4.163 21.517l.001.18 4.16-.033v-.147c0-.263.005-.525.017-.785l-4.157-.185c-.015.323-.02.646-.02.97zM4.422 18.236l4.105.671c.049-.3.107-.596.174-.888l-4.053-.934c-.088.381-.163.765-.226 1.151zM11.042 32.934c-.13-.308-.258-.615-.38-.922L6.8 33.556c.134.336.272.67.412 1.003l3.83-1.625zM22.78 123.882l-3.38 1.75v4.94h5.547v-1.286a7.742 7.742 0 0 1-.878-1.712 206.04 206.04 0 0 1-1.29-3.692zM19.4 112.473v9.735l2.413-1.25a125.73 125.73 0 0 1-2.413-8.485zM58.496 127.572a7.768 7.768 0 0 1-.876 1.71v1.289h5.547v-4.94l-3.381-1.75a200.641 200.641 0 0 1-1.29 3.69zM63.167 122.208v-9.746a125.196 125.196 0 0 1-2.414 8.496l2.414 1.25z"/><path d="M77.264 73.47c-.89-.198-1.735-.442-2.549-.713v5.468h-3.163v-6.77c-3.57-1.774-6.29-4.231-8.385-6.822V36.625H57.62v5.2h-3.847a13.31 13.31 0 0 1-2.121 3.813h5.969v8.738a17.617 17.617 0 0 1-.345-1.178h-.001a4.156 4.156 0 0 0-4.642-3.181 4.192 4.192 0 0 0-.86-.09h-6.205a13.459 13.459 0 0 1-4.297.715c-1.5 0-2.948-.252-4.302-.715h-6.176a4.2 4.2 0 0 0-.88.094 4.158 4.158 0 0 0-4.665 3.178c-.016.071-.113.448-.3 1.039v-8.6h5.957a13.232 13.232 0 0 1-2.102-3.813h-3.856v-5.2H19.4v11.374l-2.966 2.196c.216.293.43.576.637.852l2.33-1.764v2.635l-1.027.812c.233.295.455.572.665.832l.361-.292V64.57c-1.992 2.477-4.543 4.835-7.865 6.597v7.057H8.372v-5.663c-.983.354-2.015.662-3.114.908a4.16 4.16 0 0 0-2.737 6.071v3.017H19.4v4.975c.204-.457.421-.904.657-1.339 1.163-2.176 2.875-4.123 4.89-5.643v-9.636c.59-.673 1.14-1.352 1.651-2.028v11.775c-2.21 1.413-4.251 3.454-5.625 6.029-1.777 3.281-2.536 7.121-2.537 11.463.023 5.965 1.373 13.102 4.313 22.321l12.195-6.313c-2.167-7.264-3.008-12.546-2.987-16.008a16.86 16.86 0 0 1 .194-2.698h18.266c.116.725.192 1.613.191 2.698.02 3.461-.82 8.744-2.987 16.007l12.197 6.314c2.939-9.218 4.287-16.354 4.31-22.32-.002-3.867-.597-7.314-1.982-10.354-1.03-2.27-2.534-4.258-4.302-5.76a16.55 16.55 0 0 0-1.875-1.376V68.945a36.312 36.312 0 0 0 1.651 2.024v9.563c.309.23.61.467.9.716 1.911 1.627 3.495 3.744 4.574 6.122.026.058.048.118.073.175v-4.987h17.008v-3.37a4.158 4.158 0 0 0-2.91-5.717zm-61.288 4.755a32.415 32.415 0 0 0 3.424-2.21v2.21h-3.424zM25.247 53.2zm37.92 22.849a32.456 32.456 0 0 0 3.379 2.176h-3.379V76.05z"/><path d="M46.702 117.108a159.702 159.702 0 0 1-1.895 5.505 6.76 6.76 0 0 0 6.356 9.064 6.761 6.761 0 0 0 6.356-4.457v-.001c.474-1.314.914-2.581 1.334-3.821l-12.151-6.29zM23.714 123.4c.42 1.239.86 2.506 1.333 3.82a6.758 6.758 0 0 0 8.658 4.051 6.758 6.758 0 0 0 4.052-8.658 161.095 161.095 0 0 1-1.894-5.503l-12.15 6.29zM44.052 49.28c6.402-1.49 10.443-7.762 9.233-14.158-2.489 2.028-7.27 2.967-12.022 2.967-4.731 0-9.49-.93-11.989-2.937a12.16 12.16 0 0 0 .113 5c1.53 6.571 8.096 10.657 14.665 9.127z"/><path d="M54.002 31.772c0-7.037-5.705-12.74-12.74-12.74-7.037 0-12.74 5.703-12.74 12.74 0 7.036 25.48 7.036 25.48 0z"/></g></svg>