<?xml version="1.0" encoding="UTF-8" standalone="no"?>
<svg width="83px" height="134px" viewBox="0 0 83 134" version="1.1" xmlns="http://www.w3.org/2000/svg" xmlns:xlink="http://www.w3.org/1999/xlink">
    <!-- Generator: Sketch 41.2 (35397) - http://www.bohemiancoding.com/sketch -->
    <title>Torture</title>
    <desc>Created with Sketch.</desc>
    <defs></defs>
    <g id="Page-1" stroke="none" stroke-width="1" fill="none" fill-rule="evenodd">
        <g id="Torture" fill="#FFFFFF">
            <g transform="translate(2.000000, 2.000000)" id="Group">
                <g>
                    <path d="M23.62516,4.16572 L23.76296,0.0078 C23.61372,0.00312 23.46448,0 23.31472,0 C23.05836,0 22.80096,0.0078 22.5394,0.02184 L22.76976,4.1756 C22.95488,4.1652 23.13688,4.16 23.31472,4.16104 C23.41872,4.16 23.52168,4.16208 23.62516,4.16572 Z" id="Shape"></path>
                    <path d="M18.26812,5.20624 L16.92912,1.26776 C16.57656,1.38736 16.23024,1.51216 15.8912,1.63852 L17.34876,5.53436 C17.64828,5.42256 17.95456,5.31388 18.26812,5.20624 Z" id="Shape"></path>
                    <path d="M7.11724,25.33284 C7.03612,25.01564 6.96228,24.70052 6.89208,24.38696 L2.82932,25.28084 C2.9094,25.64016 2.99468,26 3.08568,26.3588 L7.11724,25.33284 Z" id="Shape"></path>
                    <path d="M37.81908,14.01868 C37.71404,13.6708 37.60276,13.3198 37.48524,12.96828 L33.53896,14.28492 C33.64296,14.5964 33.74176,14.90788 33.83588,15.22092 L37.81908,14.01868 Z" id="Shape"></path>
                    <path d="M31.15268,9.07088 C31.31752,9.3314 31.47716,9.5992 31.63056,9.87272 L35.25756,7.83536 C35.07036,7.50152 34.87484,7.1734 34.67048,6.84944 L31.15268,9.07088 Z" id="Shape"></path>
                    <path d="M2.29164,21.96636 C2.32856,22.3392 2.37484,22.711 2.4284,23.08332 L6.54628,22.49104 C6.50104,22.1728 6.461,21.85716 6.4298,21.5436 L2.29164,21.96636 Z" id="Shape"></path>
                    <path d="M7.96796,28.15332 C7.85928,27.84184 7.7558,27.52932 7.65752,27.21732 L3.69252,28.4752 C3.80224,28.82308 3.91768,29.1694 4.03676,29.51416 L7.96796,28.15332 Z" id="Shape"></path>
                    <path d="M29.50324,6.92172 C29.70396,7.13388 29.89948,7.35696 30.0898,7.5894 L33.30808,4.95248 C33.05692,4.6462 32.79484,4.34772 32.5208,4.05912 L29.50324,6.92172 Z" id="Shape"></path>
                    <path d="M27.5288,5.30816 C27.76644,5.45064 27.99576,5.60716 28.22092,5.7746 L30.70964,2.44192 C30.38152,2.19544 30.03988,1.96508 29.68472,1.7498 L27.5288,5.30816 Z" id="Shape"></path>
                    <path d="M13.18512,46.47084 L16.5802,44.06792 L16.5802,44.06636 C16.38728,43.79492 16.19228,43.51516 15.99572,43.23176 L12.57516,45.60088 C12.78056,45.89676 12.9844,46.18692 13.18512,46.47084 Z" id="Shape"></path>
                    <path d="M10.296,33.66636 C10.14832,33.3658 10.00324,33.0642 9.86024,32.76156 L6.097,34.53268 C6.24988,34.85872 6.4064,35.18268 6.56396,35.50404 L10.296,33.66636 Z" id="Shape"></path>
                    <path d="M9.89456,4.70236 L12.26368,8.12188 L12.26368,8.12292 C12.51328,7.94872 12.7738,7.77816 13.04472,7.61072 L10.85084,4.07576 C10.5222,4.28012 10.20396,4.48864 9.89456,4.70236 Z" id="Shape"></path>
                    <path d="M4.9634,9.65016 L8.43492,11.94284 C8.5956,11.69844 8.76772,11.45716 8.9518,11.219 L5.65344,8.68348 C5.40904,9.00016 5.17972,9.32308 4.9634,9.65016 Z" id="Shape"></path>
                    <path d="M7.21396,6.91652 L10.14104,9.87324 C10.35268,9.6642 10.57472,9.45724 10.80768,9.25444 L8.0704,6.12144 C7.77296,6.3804 7.48748,6.6456 7.21396,6.91652 Z" id="Shape"></path>
                    <path d="M32.48492,11.57 C32.617,11.86172 32.74284,12.1576 32.86504,12.45608 L36.71772,10.88724 C36.5768,10.543 36.43068,10.19928 36.27624,9.85816 L32.48492,11.57 Z" id="Shape"></path>
                    <path d="M14.85536,41.54488 C14.67024,41.26512 14.48616,40.98016 14.30104,40.6926 L10.80092,42.94212 C10.99488,43.24372 11.18936,43.54064 11.38332,43.83496 L14.85536,41.54488 Z" id="Shape"></path>
                    <path d="M11.69688,36.3428 C11.53516,36.049 11.37396,35.75312 11.21588,35.45568 L7.54468,37.41452 C7.7142,37.73068 7.88528,38.0458 8.05688,38.35676 L11.69688,36.3428 Z" id="Shape"></path>
                    <path d="M13.22308,38.97036 C13.04888,38.6828 12.87468,38.39264 12.70152,38.1004 L9.11924,40.2142 C9.30228,40.5236 9.48532,40.82884 9.6694,41.13148 L13.22308,38.97036 Z" id="Shape"></path>
                    <path d="M12.8258,2.97128 L14.69832,6.68668 C14.97652,6.54576 15.26512,6.40848 15.561,6.27224 L13.83668,2.4882 C13.4914,2.64368 13.15548,2.8054 12.8258,2.97128 Z" id="Shape"></path>
                    <path d="M3.33528,12.82216 L7.22072,14.30832 L7.22072,14.30728 C7.32732,14.03116 7.44224,13.75816 7.56808,13.49036 L3.80016,11.72756 C3.63012,12.08792 3.4762,12.45244 3.33528,12.82216 Z" id="Shape"></path>
                    <path d="M27.4222,0.68224 C27.03324,0.54444 26.63128,0.42744 26.21944,0.33072 L25.2668,4.37996 C25.53616,4.44288 25.7972,4.51984 26.04992,4.60824 L27.4222,0.68224 Z" id="Shape"></path>
                    <path d="M20.1682,0.34112 C19.79328,0.41964 19.4142,0.5122 19.03044,0.61828 L20.14168,4.62696 C20.44328,4.54376 20.73708,4.47252 21.02308,4.41168 L20.1682,0.34112 Z" id="Shape"></path>
                    <path d="M2.1632,19.51664 C2.1632,19.57644 2.1632,19.63624 2.16424,19.69656 L6.3232,19.6638 L6.3232,19.66276 L6.3232,19.51664 C6.3232,19.25352 6.32892,18.99196 6.34088,18.73248 L2.184,18.54736 C2.16944,18.87028 2.1632,19.19268 2.1632,19.51664 Z" id="Shape"></path>
                    <path d="M2.42164,16.23596 L6.52704,16.90728 C6.57592,16.60776 6.63364,16.31136 6.70124,16.0186 L2.64784,15.08468 C2.55996,15.46636 2.48456,15.8496 2.42164,16.23596 Z" id="Shape"></path>
                    <path d="M9.04176,30.93376 C8.91176,30.62644 8.78436,30.31912 8.66268,30.01232 L4.7996,31.5562 C4.93376,31.89212 5.07156,32.22596 5.21196,32.55876 L9.04176,30.93376 Z" id="Shape"></path>
                    <path d="M20.77972,121.88228 L17.40024,123.63208 L17.40024,128.57156 L22.94708,128.57156 L22.94708,127.2856 C22.59036,126.75988 22.29188,126.1884 22.06932,125.57376 C21.61276,124.3086 21.18792,123.084 20.77972,121.88228 Z" id="Shape"></path>
                    <path d="M17.40024,110.47296 L17.40024,120.20788 L19.81304,118.95884 C18.84428,115.93036 18.044,113.11196 17.40024,110.47296 Z" id="Shape"></path>
                    <path d="M56.49592,125.57168 C56.27336,126.1858 55.97592,126.75676 55.62024,127.28196 L55.62024,128.57104 L61.16708,128.57104 L61.16708,123.63104 L57.78552,121.88072 C57.37784,123.08244 56.95248,124.30704 56.49592,125.57168 Z" id="Shape"></path>
                    <path d="M61.16708,120.20788 L61.16708,110.46204 C60.52332,113.1052 59.72252,115.9262 58.75272,118.9578 L61.16708,120.20788 Z" id="Shape"></path>
                    <path d="M75.26428,71.47088 C74.37404,71.27172 73.52904,71.02836 72.71524,70.75744 L72.71524,76.22524 L69.55156,76.22524 L69.55156,69.45536 C65.98124,67.68112 63.26164,65.2236 61.16708,62.63348 L61.16708,34.62472 L55.62024,34.62472 L55.62024,39.82472 L51.77276,39.82472 C51.4566,40.70976 51.04632,41.5688 50.53724,42.38624 C50.26476,42.82408 49.9668,43.2406 49.65168,43.6384 L55.62076,43.6384 L55.62076,52.37648 C55.54952,52.156 55.48608,51.95372 55.43772,51.78992 C55.37272,51.56788 55.328,51.402 55.30148,51.3006 C55.28796,51.25016 55.27912,51.21584 55.27548,51.19816 L55.27496,51.19816 C54.78668,49.07396 52.75244,47.71104 50.63344,48.0168 C50.35576,47.95856 50.06768,47.92736 49.77232,47.92736 L43.5682,47.92736 C43.15064,48.0688 42.72424,48.19152 42.289,48.2924 C41.29684,48.52328 40.28128,48.64184 39.27144,48.64184 C37.7702,48.64184 36.32304,48.38964 34.96948,47.92736 L28.79344,47.92736 C28.49132,47.92736 28.19752,47.96064 27.91308,48.02148 C25.78576,47.70324 23.73904,49.06772 23.24764,51.19868 L23.24712,51.19868 C23.23152,51.27044 23.1348,51.64692 22.94708,52.23764 L22.94708,43.6384 L28.90472,43.6384 C28.01292,42.51208 27.29948,41.22924 26.8034,39.82472 L22.94708,39.82472 L22.94708,34.62472 L17.40024,34.62472 L17.40024,45.99868 L14.43416,48.19516 C14.65048,48.48792 14.86316,48.77132 15.07064,49.04692 L17.40024,47.28308 L17.40024,49.91844 L16.37376,50.73016 C16.60672,51.025 16.82928,51.30216 17.03936,51.56216 L17.40024,51.26992 L17.40024,62.57108 C15.4076,65.04784 12.857,67.40552 9.53524,69.1678 L9.53524,76.22524 L6.37156,76.22524 L6.37156,70.56192 C5.38876,70.91552 4.35656,71.2244 3.25832,71.47036 C1.01608,71.96904 -0.39884,74.18996 0.09984,76.43376 C0.18824,76.83156 0.33384,77.2018 0.52104,77.54136 L0.52104,80.5584 L6.37156,80.5584 L9.53524,80.5584 L17.40024,80.5584 L17.40024,85.53324 C17.60408,85.07616 17.82144,84.62948 18.057,84.19424 C19.21972,82.01752 20.93156,80.07064 22.94708,78.5512 L22.94708,68.91508 C23.53624,68.24168 24.0864,67.56308 24.59808,66.88708 L24.59808,77.44048 L24.59808,78.66196 C22.3886,80.07532 20.34656,82.1158 18.97324,84.69084 C17.19588,87.97204 16.43668,91.81224 16.43616,96.15424 C16.45904,102.11916 17.80896,109.25616 20.74852,118.47524 L32.94408,112.16192 C30.77672,104.89752 29.93588,99.61588 29.95668,96.15424 C29.95564,95.06744 30.03416,94.18344 30.15116,93.45596 L31.20312,93.45596 L47.3616,93.45596 L48.41668,93.45596 C48.53264,94.18084 48.60856,95.069 48.60804,96.15424 C48.62884,99.61536 47.788,104.89752 45.62116,112.16088 L57.81776,118.47472 C60.7568,109.2572 62.10464,102.12072 62.12804,96.15424 C62.12596,92.28752 61.53108,88.84096 60.14632,85.80104 C59.11672,83.53124 57.61236,81.54328 55.84436,80.04048 C55.23752,79.52256 54.60832,79.0712 53.96872,78.66456 L53.96872,77.45244 L53.96872,66.9448 C54.48144,67.62028 55.03004,68.29784 55.62024,68.96916 L55.62024,78.53248 C55.9286,78.7618 56.22916,78.99944 56.51984,79.248 C58.43136,80.87508 60.01528,82.992 61.09376,85.37048 C61.11976,85.42768 61.1416,85.488 61.16708,85.5452 L61.16708,80.55788 L69.55156,80.55788 L72.71524,80.55788 L78.17472,80.55788 L78.17472,77.18828 C78.2782,76.94908 78.36244,76.69844 78.42172,76.43428 C78.9204,74.191 77.50704,71.968 75.26428,71.47088 Z M13.97552,76.22524 C15.19804,75.54456 16.33268,74.7994 17.40024,74.01524 L17.40024,76.22524 L13.97552,76.22524 Z M23.24712,51.20024 L23.24712,51.1992 L23.24764,51.1992 C23.24712,51.19972 23.24712,51.19972 23.24712,51.20024 Z M61.16708,74.04904 C62.22112,74.8202 63.3412,75.55444 64.54604,76.22524 L61.16708,76.22524 L61.16708,74.04904 Z" id="Shape"></path>
                    <path d="M44.7018,115.10824 C44.13916,116.84556 43.51412,118.67284 42.80692,120.61296 C41.53552,124.12296 43.34928,127.99956 46.85928,129.27096 C47.62004,129.54604 48.39796,129.67708 49.16288,129.67708 C51.92824,129.67708 54.52252,127.96888 55.51884,125.21964 L55.51884,125.2186 C55.99256,123.90508 56.433,122.63784 56.85264,121.39764 L44.7018,115.10824 Z" id="Shape"></path>
                    <path d="M21.71364,121.3992 C22.1338,122.63888 22.57372,123.90612 23.04744,125.22016 C24.31832,128.73016 28.19492,130.54288 31.70492,129.27148 C35.21596,128.00008 37.02972,124.12348 35.75728,120.61348 C35.05112,118.6744 34.42556,116.84712 33.86292,115.1098 L21.71364,121.3992 Z" id="Shape"></path>
                    <path d="M42.0524,47.27944 C48.45412,45.78964 52.49452,39.51844 51.285,33.12192 C48.79628,35.14992 44.01592,36.08852 39.2626,36.08852 C34.53164,36.08852 29.77312,35.1598 27.274,33.15208 C26.97396,34.76148 26.99164,36.45668 27.38684,38.15292 C28.91616,44.72312 35.48324,48.80876 42.0524,47.27944 Z" id="Shape"></path>
                    <path d="M52.00156,29.77156 C52.00156,22.73544 46.29716,17.03156 39.26156,17.03156 C32.22544,17.03156 26.52156,22.73544 26.52156,29.77156 C26.52156,36.80768 52.00156,36.80768 52.00156,29.77156 Z" id="Shape"></path>
                </g>
            </g>
        </g>
    </g>
</svg>