<svg width="71" height="59" viewBox="0 0 71 59" xmlns="http://www.w3.org/2000/svg"><title>100,000</title><g fill="#FFF" fill-rule="evenodd"><path d="M11.403 20.998c.754 0 1.432-.605 1.432-1.436 0-.83-.679-1.51-1.432-1.51-.754 0-1.357.68-1.357 1.51 0 .831.603 1.436 1.357 1.436zM14.871 19.639c.829 0 1.507-.68 1.507-1.587 0-.832-.678-1.512-1.507-1.512-.83 0-1.433.68-1.433 1.512 0 .907.603 1.587 1.433 1.587zM22.711 18.807c.98 0 1.734-.755 1.734-1.738 0-.982-.754-1.814-1.734-1.814-.904 0-1.659.832-1.659 1.814 0 .983.755 1.738 1.659 1.738zM18.715 18.959c.83 0 1.584-.756 1.584-1.662 0-.983-.754-1.739-1.584-1.739-.904 0-1.582.756-1.582 1.739 0 .906.678 1.662 1.582 1.662zM34.096 9.437c-2.186.453-3.77 2.418-3.77 4.836 0 2.72 2.036 4.988 4.598 4.988 2.489 0 4.6-2.267 4.6-4.988 0-2.418-1.659-4.383-3.77-4.836V6.566h4.222V4.752h-4.222V.747h-1.658v4.005h-4.222v1.814h4.222v2.87zm.828 1.511c1.659 0 3.016 1.512 3.016 3.325 0 1.814-1.357 3.326-3.016 3.326-1.734 0-3.09-1.512-3.09-3.326 0-1.813 1.357-3.325 3.09-3.325zM64.1 24.777c.68 0 1.282-.605 1.282-1.36 0-.68-.603-1.286-1.281-1.286-.679 0-1.207.606-1.207 1.286 0 .755.528 1.36 1.207 1.36zM8.387 22.737c.754 0 1.357-.605 1.357-1.36 0-.831-.603-1.435-1.357-1.435-.678 0-1.282.604-1.282 1.435 0 .755.604 1.36 1.282 1.36zM66.59 28.63c0 .681.45 1.21 1.13 1.21.603 0 1.13-.529 1.13-1.21 0-.68-.527-1.208-1.13-1.208-.68 0-1.13.529-1.13 1.209zM47.289 18.807c.904 0 1.658-.755 1.658-1.738 0-.982-.754-1.814-1.658-1.814-.98 0-1.733.832-1.733 1.814-.001.983.753 1.738 1.733 1.738zM67.418 31.654c0 .604.452 1.209 1.131 1.209.603 0 1.13-.605 1.13-1.21 0-.68-.527-1.208-1.13-1.208-.678 0-1.131.528-1.131 1.209zM64.93 26.062c0 .68.604 1.209 1.206 1.209.679 0 1.206-.529 1.206-1.209 0-.756-.527-1.284-1.206-1.284-.602-.001-1.205.528-1.205 1.284zM51.285 18.959c.905 0 1.583-.756 1.583-1.662 0-.983-.678-1.739-1.583-1.739-.83 0-1.583.756-1.583 1.739 0 .906.753 1.662 1.583 1.662zM55.129 19.639c.83 0 1.433-.68 1.433-1.587 0-.832-.604-1.512-1.433-1.512-.829 0-1.507.68-1.507 1.512 0 .907.678 1.587 1.507 1.587zM61.614 22.737c.678 0 1.281-.605 1.281-1.36 0-.831-.603-1.435-1.281-1.435-.755 0-1.358.604-1.358 1.435 0 .755.603 1.36 1.358 1.36zM58.597 20.998c.754 0 1.357-.605 1.357-1.436 0-.83-.603-1.51-1.357-1.51-.753 0-1.432.68-1.432 1.51 0 .831.679 1.436 1.432 1.436zM2.808 37.396c0-.528-.453-1.058-.98-1.058-.527 0-.98.529-.98 1.058a1 1 0 0 0 .98.983 1 1 0 0 0 .98-.983zM54.677 51.074c-1.358 1.36-1.658 1.738-2.338 2.115-.15.605-.451 1.285-1.431 2.419 1.431-1.059 1.734-1.134 2.411-1.285-.225-.68.604-2.04 1.358-3.249zM59.653 49.638c-1.207.454-1.056 2.418.377 1.738-.075-.453.377-.982.527-.68.302.454-.377 1.663-1.734 1.89-1.056.151-1.583-.227-1.81-.832-.15-.453.152-1.36.98-2.116.98-.982 2.036-1.284 2.94-.982.076 0 .227.075.302.075-.075-.453-.98-.605-1.357-.529-3.166.529-4.825 3.325-4.9 3.325-1.282 2.04.226 4.08 3.769 2.72 2.714-1.436 2.94-3.552 2.261-4.382-.3-.378-.752-.453-1.355-.227zM44.876 53.19c-.603-.379-.753-.756-1.658-2.116.377 1.209.678 2.569.227 3.25.678.15.98.226 2.035 1.284-.604-1.133-.68-1.814-.604-2.419zM39.071 48.202c-.377-.075-1.357.076-1.583.529.151 0 .302-.075.377-.075.98-.302 1.96 0 2.639.982.527.756.452 1.663.15 2.116-.452.605-1.055.982-2.035.832-1.281-.227-1.508-1.436-1.13-1.89.3-.302.527.227.376.68 1.131.68 1.96-1.284.905-1.738-.528-.226-1.056-.151-1.432.227-.905.831-1.433 2.946.753 4.382 3.091 1.36 5.278-.68 4.675-2.72 0 0-.68-2.796-3.695-3.325zM30.929 49.638c-1.056.454-.226 2.418.904 1.738-.15-.453.076-.982.377-.68.377.454.151 1.663-1.13 1.89-.98.151-1.66-.227-2.036-.832-.377-.453-.377-1.36.15-2.116.68-.982 1.66-1.284 2.564-.982.15 0 .301.075.377.075-.151-.453-1.131-.605-1.508-.529-3.015.529-3.694 3.325-3.694 3.325-.603 2.04 1.583 4.08 4.674 2.72 2.186-1.436 1.659-3.552.754-4.382-.452-.378-.905-.453-1.432-.227zM5.9 24.777c.678 0 1.205-.605 1.205-1.36 0-.68-.527-1.286-1.206-1.286-.68 0-1.281.606-1.281 1.286 0 .755.603 1.36 1.281 1.36zM68.172 36.338c-.527 0-.98.529-.98 1.058a1 1 0 0 0 .98.983 1 1 0 0 0 .98-.983c0-.528-.453-1.058-.98-1.058z"/><path d="M64.025 44.877c-.226-.377-.603-.68-1.734.152-.603.454-1.055.604-1.206.68h-.075c3.317-2.796 5.504-6.347 5.88-10.277.905-8.766-7.765-16.02-19.3-16.02-2.79 0-5.428.453-7.916 1.134.302-.453.604-.907.98-1.21.226-.226 1.96-1.435 3.468-1.057.98.226.603-.529-.603-.982a6.102 6.102 0 0 0-2.864-.228c.151-.075.226-.15.301-.226.905-.907 1.885-2.04 2.94-1.738.151.075.453.453.227.755-.075.076-.151.151-.227.151.076.605.754.378.68-.453 0-.378-.151-.605-.151-.605.225-.831-.529-1.511-.98-1.511-.98-.227-2.112.604-3.243 1.964l-.226.227c-.226 1.058-.754 1.965-1.432 2.72-.604.53-1.283.983-1.96 1.285h-.151c-.075 0-.075.075-.152.075h-.074c-.075 0-.075.076-.151.076h-.226c-.151.075-.302.075-.453.075h-.15l-.075.076H35 34.774c-.075 0-.151 0-.226-.076-.227 0-.452 0-.678-.075h-.151l-.075-.076h-.151s-.075 0-.075-.075h-.076c-.075 0-.15 0-.226-.076-.302-.074-.528-.226-.754-.377h-.075c-.151-.075-.226-.227-.377-.303a3.309 3.309 0 0 1-.528-.452s-.075 0-.075-.076c-.679-.68-1.206-1.511-1.432-2.57a.913.913 0 0 1-.377-.377c-1.13-1.36-2.337-2.191-3.242-1.965-.452 0-1.281.68-.98 1.512 0 0-.15.227-.15.604-.076.832.602 1.058.678.454-.075 0-.151-.075-.226-.151-.227-.303 0-.68.226-.755 1.055-.303 2.035.831 2.94 1.738l.226.226c-.905-.15-1.96-.076-2.79.227-1.206.454-1.583 1.21-.603.983 1.507-.378 3.167.831 3.468 1.058.377.302.679.755 1.056 1.208-2.488-.68-5.127-1.133-7.841-1.133-11.535 0-20.28 7.254-19.376 16.02.377 3.93 2.564 7.48 5.956 10.277h-.302c-.15-.075-.528-.227-1.206-.68-1.056-.832-1.432-.529-1.659-.152 0-.604-.603-2.116-1.281-2.72-.679-.756-1.96-2.947-1.96-2.947v.378l5.805 16.7c-.377 0-.679.454-.679.982 0 .53.302.983.679.983h53.301c.377 0 .678-.454.678-.983 0-.528-.301-.982-.678-.982h-.151l5.88-16.7v-.378s-1.28 2.191-1.96 2.947c-.678.603-1.282 2.115-1.282 2.72zM34.85 21.981c.904 0 1.658.832 1.658 1.814 0 .983-.754 1.814-1.658 1.814-.906 0-1.659-.831-1.659-1.814 0-.983.753-1.814 1.659-1.814zm0 7.708c-.754 0-1.357-.604-1.357-1.436s.603-1.512 1.357-1.512c.678 0 1.357.68 1.357 1.512s-.679 1.436-1.357 1.436zm1.206 2.645c0 .755-.528 1.36-1.206 1.36-.679 0-1.207-.605-1.207-1.36 0-.756.528-1.36 1.207-1.36.678 0 1.206.604 1.206 1.36zM8.915 56.288c0-.227.074-.378.074-.529.076-.226.076-.529-.074-.982.452.226 1.13.528 1.357-.302-2.111-.68-3.468-3.477-3.543-3.552.377-.151.527-.831.15-1.511 2.111-3.25 5.354-1.36 8.595 1.662 1.584 1.587 3.167 2.645 4.298 2.947-.076.53-.151.831-.227.982.377.076 1.131.756 1.583 1.285H8.915zm12.741-6.046c.076-2.04.377-3.551 1.283-4.609.15-.151.828-.982 1.658-.68.527.152.302-.378-.377-.68-.904-.378-2.036-.227-2.488.68v-.151c-.151-1.058-.679-2.116-1.508-3.25-.226-.378-.377-.604-.452-.755-.151-.227-.603-.982-.68-1.662.076.68-.225 1.435-.225 1.662-.076.15-.152.378-.302.755-.527 1.134-.678 2.19-.527 3.25v.151a2.167 2.167 0 0 0-2.639-.68c-.604.302-.678.832-.226.68.754-.302 1.734.529 1.81.68 1.206 1.058 2.036 2.57 2.638 4.61.076.377.152.755.226 1.057-.603-.604-1.055-1.435-1.507-2.342-.453-1.36-1.206-2.342-1.96-2.645-.377-.151-1.206-.075-1.206.605 0 0-.151.075-.301.302-.227.53.226.982.452.604-.075-.075-.15-.075-.15-.226-.076-.302.225-.378.376-.378.905.227 1.357 1.36 1.81 2.342.527.983 1.206 1.814 2.035 2.344-1.055-.378-2.186-1.512-3.241-2.419-3.619-3.098-7.69-3.853-9.725-.755-.076 0-.151-.075-.227-.227-.226-.453 0-.982.603-1.36.905-.832 2.111-.454 2.413-1.058.15.075.225.15.377.226a.59.59 0 0 1-.302-.302v-.378c-.075.075-.151.075-.301.075-2.11-2.418-3.469-5.213-3.77-8.236-.904-8.765 7.84-15.944 19.376-15.944 2.186 0 4.297.227 6.332.68.151.53.377 1.058.453 1.662-2.413-.831-5.127-1.284-7.916-1.284-10.404 0-18.246 6.422-17.491 14.282.377 3.778 2.639 7.179 6.031 9.748-2.187-2.268-3.618-4.988-3.92-7.86-.755-7.934 7.086-14.356 17.49-14.356 2.11 0 4.147.302 6.107.755.904 5.063-.076 11.41-2.639 13.829-.227.226-1.96 1.435-3.468 1.058-.98-.227-.603.528.603.982.377.152.905.227 1.357.227-.076.151-.076.227-.076.453 0 .302.151.454.151.454-.226.604.377 1.058.755 1.134.678.151 1.582-.454 2.411-1.512l.604-.604c.151 1.133.679 2.19 1.432 3.324-.226 0-.527.152-.83.529-.527.454-.904.604-.98.68-.301.076-.527 0-.753-.075.226 1.209 1.583.529 3.015 1.512.679.378 1.132.906 1.056 1.36 0 .151-.075.226-.15.226-3.091-3.097-6.936-2.342-9.5.756-.83 1.058-1.733 2.343-2.79 2.57.755-.53 1.358-1.361 1.66-2.495.3-.982.527-2.115 1.282-2.342.15 0 .452.075.452.378 0 .151-.075.151-.075.226.226.378.603-.075.226-.604a.91.91 0 0 0-.301-.302c-.151-.681-.829-.756-1.206-.605-.68.302-1.131 1.285-1.358 2.645-.226.831-.452 1.586-.829 2.116-.078-.303-.078-.53-.078-.833zm8.368-9.294c-.679.604-1.281 1.284-2.035 1.058-.151-.076-.377-.303-.151-.529.075-.076.075-.151.15-.151.68 0 1.433-.151 2.036-.378zm3.77 13.829c.075.453.15.756.3.982.076.151.152.302.227.529H21.882c.302-.529.829-1.21 1.282-1.285-.152-.151-.377-.453-.603-.982 1.13-.227 2.337-1.36 3.317-2.947 2.261-3.023 4.825-4.912 8.066-1.662-.074.68.302 1.36.679 1.511 0 .075-.377 2.871-2.337 3.552.604.83 1.131.528 1.507.302zm-.075-18.665c0-.68.527-1.209 1.13-1.209.604 0 1.056.529 1.056 1.209 0 .604-.452 1.21-1.055 1.21-.604 0-1.131-.606-1.131-1.21zm1.658 20.176c.076-.227.151-.378.226-.529.151-.226.227-.529.301-.982.377.226.906.528 1.433-.302-1.885-.68-2.262-3.477-2.337-3.552.452-.151.83-.831.679-1.511 3.317-3.25 5.88-1.36 8.066 1.662 1.056 1.587 2.263 2.72 3.393 2.947-.226.53-.453.831-.604.982.377.076.98.756 1.282 1.285H35.377zm23.974-1.813c.302.83.98.528 1.433.302-.151.453-.151.756-.076.982 0 .151.076.302.076.529H48.57c.452-.529 1.206-1.21 1.583-1.285-.075-.151-.15-.453-.301-.982 1.207-.302 2.79-1.435 4.297-2.947 3.242-3.023 6.56-4.912 8.67-1.662-.377.68-.226 1.36.152 1.511-.077.075-1.433 2.871-3.62 3.552zm4.147-5.97c-.075.15-.151.226-.226.226-2.036-3.098-6.107-2.343-9.725.756-1.207.982-2.413 2.19-3.544 2.569.905-.53 1.659-1.436 2.187-2.494.452-.983.904-2.116 1.81-2.343.15 0 .451.076.376.378 0 .152-.075.152-.15.226.225.378.678-.074.452-.604-.151-.226-.302-.302-.302-.302 0-.68-.83-.756-1.206-.604-.754.302-1.432 1.284-1.96 2.644-.377.832-.83 1.587-1.358 2.191l.227-.906c.603-2.04 1.431-3.552 2.563-4.61.15-.151 1.13-.982 1.885-.68.452.152.377-.377-.227-.68a2.167 2.167 0 0 0-2.638.68v-.151c.15-1.058 0-2.116-.528-3.25-.15-.378-.226-.604-.301-.755 0-.227-.302-.982-.226-1.662-.075.68-.603 1.435-.679 1.662-.075.15-.226.378-.527.755-.754 1.134-1.282 2.191-1.433 3.25v.151c-.452-.907-1.583-1.058-2.488-.68-.678.303-.904.832-.377.68.753-.302 1.507.529 1.659.68.83 1.059 1.206 2.57 1.206 4.61.075.378 0 .68 0 .982-.453-.529-.755-1.36-.98-2.267-.226-1.36-.679-2.342-1.358-2.644-.301-.152-1.055-.076-1.205.604 0 0-.152.076-.302.302-.301.53 0 .982.302.604-.076-.074-.076-.074-.152-.226 0-.302.302-.378.452-.378.83.227.98 1.361 1.282 2.343.301 1.058.905 1.964 1.583 2.494-.98-.378-1.81-1.587-2.638-2.57-2.488-3.098-6.333-3.853-9.424-.755-.075 0-.151-.075-.227-.227-.074-.453.453-.982 1.132-1.36 1.357-.982 2.79-.302 3.016-1.511-.227.074-.528.151-.754.074-.151-.074-.528-.226-.98-.68-.302-.378-.604-.528-.83-.528.754-1.134 1.282-2.191 1.433-3.325l.603.604c.83 1.058 1.734 1.664 2.412 1.512.377-.076.98-.53.755-1.134 0 0 .15-.151.15-.453 0-.227-.074-.303-.074-.454.452 0 .904-.076 1.357-.226 1.206-.454 1.584-1.21.603-.983-1.508.378-3.166-.831-3.468-1.058-2.337-2.418-3.243-8.841-2.413-13.829 1.885-.528 3.92-.755 5.956-.755 10.479 0 18.32 6.423 17.49 14.357-.3 2.872-1.733 5.592-3.92 7.859 3.393-2.57 5.655-5.97 6.032-9.748.83-7.859-7.012-14.282-17.49-14.282-2.715 0-5.429.453-7.841 1.209l.452-1.587a29.086 29.086 0 0 1 6.333-.68c11.534 0 20.205 7.178 19.376 15.944-.302 3.022-1.734 5.818-3.845 8.236-.15 0-.301 0-.377-.075-.075.226 0 .378.076.454l-.227.226c.076 0 .151-.076.227-.151.377.453 1.583.226 2.412.982.601.38.827.909.601 1.362zm-23.824-7.557a5.738 5.738 0 0 0 2.036.378s.075.074.15.151c.152.226 0 .453-.225.529-.679.227-1.357-.453-1.96-1.058zM68.7 33.543c-.604 0-1.056.529-1.056 1.134 0 .68.452 1.134 1.055 1.134.529 0 1.056-.454 1.056-1.134 0-.605-.527-1.134-1.056-1.134z"/><path d="M24.822 53.19c.075.604 0 1.284-.604 2.418 1.056-1.059 1.358-1.134 1.96-1.285-.377-.68-.075-2.04.227-3.249-.904 1.36-.98 1.738-1.583 2.115zM1.45 32.863c.68 0 1.132-.605 1.132-1.21 0-.68-.453-1.208-1.131-1.208-.603 0-1.131.528-1.131 1.209 0 .604.528 1.209 1.13 1.209zM3.864 27.27c.603 0 1.206-.528 1.206-1.208 0-.756-.603-1.284-1.206-1.284-.679 0-1.206.528-1.206 1.284 0 .68.527 1.209 1.206 1.209zM2.28 29.84c.68 0 1.132-.529 1.132-1.21 0-.68-.453-1.208-1.131-1.208-.603 0-1.132.529-1.132 1.209s.529 1.209 1.132 1.209zM15.021 51.074c.754 1.209 1.508 2.569 1.282 3.25.753.15 1.055.226 2.488 1.284-1.056-1.134-1.281-1.814-1.433-2.419-.754-.377-.98-.755-2.337-2.115zM9.82 48.202c-.378-.075-1.282.076-1.358.529.076 0 .227-.075.302-.075.83-.302 1.96 0 2.94.982.83.756 1.13 1.663.904 2.116-.151.605-.753.982-1.734.832-1.357-.227-2.036-1.436-1.734-1.89.15-.302.604.227.527.68 1.433.68 1.584-1.284.302-1.738-.603-.226-1.056-.151-1.357.227-.603.831-.377 2.946 2.337 4.382 3.468 1.36 5.05-.68 3.694-2.72.001 0-1.657-2.796-4.824-3.325zM2.356 34.676c0-.604-.452-1.134-1.055-1.134-.528 0-1.056.529-1.056 1.134 0 .68.528 1.134 1.056 1.134.603 0 1.055-.454 1.055-1.134z"/></g></svg>