<svg width="71" height="32" viewBox="0 0 71 32" xmlns="http://www.w3.org/2000/svg"><title>10,000</title><g transform="translate(1 1)" fill="#FFF" fill-rule="evenodd"><ellipse cx="34.998" cy="6.581" rx="1.554" ry="1.554"/><path d="M39.734 17.57c-.684.587-1.695.665-2.554.314a3.6 3.6 0 0 1-1.046-.671h-.693c.883 2.398 3.7 3.004 4.293.358zM34.792 23.116l.208.296.206-.295c.329-.47.69-.918 1.013-1.39.19-.278.402-.619.432-.963.023-.279-.071-.535-.208-.772-.85-.6-1.228-1.553-1.442-2.536-.215.982-.593 1.936-1.442 2.536-.138.238-.233.494-.21.773.03.345.241.685.432.964.322.47.684.918 1.011 1.387zM32.545 9.73c1.52 1.363 2.148 3.074 2.455 5.02.307-1.949.936-3.658 2.46-5.022.333-.299.69-.568 1.058-.821.298-.509.484-1.055.462-1.65-.039-1.035-.714-2.078-1.287-2.902-.425-.613-.876-1.21-1.317-1.814-.473-.647-.936-1.3-1.376-1.97a48.76 48.76 0 0 1-1.376 1.97c-.44.603-.891 1.2-1.317 1.813-.573.824-1.248 1.867-1.287 2.901-.022.597.164 1.143.463 1.65.37.256.728.527 1.062.826zm5.203-3.15c0 3.628-5.502 3.628-5.502 0 0-3.632 5.502-3.632 5.502 0zM27.91 22.687l.197.74c.61-.427 1.115-1.015 1.376-1.718.223-.604.26-1.311-.06-1.889-.438-.79-1.319-.996-2.164-.956.813.536 1.182 1.566 1.05 2.556-.049.443-.195.872-.398 1.267zM28.365 10.025c.753 0 1.368-.61 1.368-1.364a1.365 1.365 0 1 0-1.367 1.364z"/><path d="M33.534 15.004h.752c-.2-1.288-.636-2.551-1.358-3.64-.55-.829-1.286-1.578-2.171-2.052a2.48 2.48 0 0 1-2.392 1.823 2.466 2.466 0 0 1-1.998-1.02c-.687.885-1.024 2.061-1.175 3.189 2.15-2.72 6.946-1.31 8.342 1.7z"/><circle cx="51.945" cy="20.863" r="1.554"/><path d="M44.438 22.947l-.213.797c1.918.21 3.976-.066 5.64-1.08a2.751 2.751 0 0 1 2.25-4.545c-.473-1.63-2.098-2.694-3.648-3.334 2.264 2.968-.524 7.558-4.029 8.162z"/><ellipse cx="41.634" cy="8.661" rx="1.364" ry="1.364"/><ellipse cx="60.708" cy="13.744" rx="1.364" ry="1.364"/><path d="M30.265 17.57c.593 2.647 3.414 2.042 4.295-.357h-.694c-.309.277-.657.513-1.044.671-.86.35-1.872.272-2.557-.314zM37.098 15.676h-4.193v.864h4.193v-.864zM37.075 11.364c-.724 1.089-1.16 2.352-1.36 3.64h.75c1.397-3.013 6.193-4.42 8.346-1.698-.15-1.13-.488-2.306-1.176-3.193a2.474 2.474 0 0 1-4.39-.803c-.883.476-1.62 1.224-2.17 2.054zM42.74 18.865c-.844-.041-1.726.165-2.164.955-.32.578-.284 1.286-.06 1.89.26.702.767 1.29 1.377 1.717l.195-.739a3.804 3.804 0 0 1-.402-1.266c-.127-.99.242-2.02 1.054-2.557z"/><circle cx="9.291" cy="13.744" r="1.364"/><path d="M60.255 23.013c-.814-.111-1.553-.608-1.842-1.345-.187.643-.188 1.348.326 1.844.393.38.965.5 1.494.45.606-.057 1.174-.325 1.64-.708l-.508-.292a3.218 3.218 0 0 1-1.11.051zM59.665 25.148c-.45.408-.618 1.093-.693 1.673-.086.652-.085 1.345-.062 2.019l2.666-4.62c-.482.403-1.033.702-1.688.763a1.37 1.37 0 0 0-.223.165zM58.477 29.525l-.025-.027c-1.092-1.228-1.964-2.537-2.85-3.912-.526-.815-1.198-1.912-1.955-2.562a2.74 2.74 0 0 1-1.703.59 2.74 2.74 0 0 1-1.488-.436c-1.725 1.224-3.462 1.54-5.575 1.398h-.014l-.014-.004c-.496-.105-.993-.2-1.491-.29l.584-2.172-.917-.246-.604 2.26-.688-.104.032-.125c-1.11-.55-1.736-1.209-2.157-2.384a.726.726 0 0 0-.42-.22c-.45-.05-1.107.466-1.45.718-.739.546-1.436 1.058-2.3 1.403l-.344.137.075.107-.173-.068-.171.068.075-.107-.345-.137c-.864-.345-1.56-.857-2.3-1.403-.342-.252-.998-.769-1.448-.718a.718.718 0 0 0-.42.22c-.382 1.065-.931 1.705-1.858 2.226l.035.306a57.37 57.37 0 0 0-.972.152l-.623-2.332-.918.246.606 2.25c-.238.046-.476.09-.714.139l-.008.001-.008.001c-2.39.282-4.41.079-6.386-1.322a2.75 2.75 0 0 1-3.191-.153c-.345.296-.647.662-.915 1.022-.385.517-.734 1.066-1.083 1.607-.887 1.374-1.762 2.676-2.855 3.896l.062.105c15.518-7.79 31.407-8.022 46.916-.07l.017-.03-.003-.002.01-.016-.026-.012zM60.953 21.978l1.44.83.364-.636-1.44-.83zM60.708 16.217a2.475 2.475 0 0 1-2.414-1.933c-.719.402-1.341 1.019-1.858 1.68 2.89-1.08 5.946 2.145 5.69 5.1l.55.319c.415-1.08.64-2.247.568-3.406-.055-.876-.283-1.773-.742-2.53-.464.49-1.109.77-1.794.77z"/><ellipse cx="66.988" cy="15.311" rx="1.554" ry="1.554"/><path d="M64.237 15.31a2.751 2.751 0 0 1 3.92-2.489l1.226-2.125c-.532.26-1.07.507-1.611.747-.612.272-1.23.534-1.835.82-.81.382-1.802.888-2.293 1.671-.282.45-.381.951-.38 1.476.173.36.329.728.453 1.108.454 1.38.377 2.676.01 3.974l1.689-2.924a2.75 2.75 0 0 1-1.18-2.257zM11.588 21.667c-.289.737-1.028 1.234-1.842 1.346-.368.05-.748.027-1.111-.05l-.508.292c.469.384 1.037.65 1.643.707.531.05 1.103-.07 1.497-.452.51-.496.509-1.201.321-1.843z"/><ellipse cx="3.01" cy="15.311" rx="1.554" ry="1.554"/><circle cx="18.056" cy="20.863" r="1.554"/><path d="M4.062 12.262c-.605-.286-1.223-.548-1.835-.82-.541-.24-1.08-.485-1.611-.746l1.226 2.124a2.753 2.753 0 0 1 3.922 2.49 2.75 2.75 0 0 1-1.181 2.258l1.688 2.924c-.367-1.298-.444-2.595.01-3.975.125-.38.28-.748.452-1.108.003-.524-.097-1.026-.38-1.476-.49-.783-1.48-1.288-2.29-1.671zM20.805 20.863c0 .666-.238 1.302-.67 1.8 1.664 1.015 3.722 1.29 5.64 1.08l-.213-.797c-3.504-.603-6.293-5.194-4.03-8.162-1.55.64-3.174 1.706-3.648 3.333a2.75 2.75 0 0 1 2.92 2.746zM10.335 25.148a1.389 1.389 0 0 0-.224-.165c-.655-.061-1.206-.36-1.687-.764l2.666 4.622c.023-.664.024-1.344-.057-1.986-.074-.59-.24-1.291-.698-1.707zM7.243 22.171l1.44-.83.367.634-1.44.831zM7.872 21.064c-.255-2.955 2.8-6.18 5.69-5.1-.516-.66-1.137-1.277-1.856-1.68a2.475 2.475 0 0 1-4.209 1.163c-.459.756-.688 1.654-.742 2.53-.072 1.16.152 2.325.568 3.406l.549-.319z"/></g></svg>