<svg width="49" height="41" viewBox="0 0 49 41" xmlns="http://www.w3.org/2000/svg"><title>Appeals</title><g fill="none" fill-rule="evenodd"><path fill="#1A1A1A" d="M5.976 17.14h37.63v19.589H5.977z"/><g fill="#F4F4F4"><path d="M47.697 38.362H1.886v-1.633c0-.45.366-.816.818-.816H46.88c.451 0 .818.366.818.816v1.633zM46.88 17.957H2.703a.817.817 0 0 1-.818-.817v-1.632h45.811v1.632c0 .451-.366.817-.818.817z"/></g><g fill="#FFF"><path d="M47.697 39.994H1.886a.817.817 0 0 1-.818-.816v-.816c0-.451.366-.817.818-.817h45.812c.451 0 .818.366.818.817v.816c0 .45-.367.816-.819.816zM47.697 16.324H1.886a.817.817 0 0 1-.818-.816v-1.15c0-.298.162-.572.423-.715L24 1.25a1.64 1.64 0 0 1 1.581 0l22.51 12.392c.261.143.423.417.423.714v1.151c0 .45-.366.816-.818.816z"/></g><path d="M6.794 19.589H3.522a.817.817 0 0 1-.818-.816v-.816h4.908v.816c0 .45-.366.816-.818.816z" fill="#F4F4F4"/><path fill="#FFF" d="M3.522 19.589h3.272v16.324H3.522z"/><g fill="#F4F4F4"><path d="M3.522 34.28h3.272c.452 0 .818.366.818.817v.816H2.704v-.816c0-.45.366-.816.818-.816zM26.428 19.589h-3.272a.817.817 0 0 1-.819-.816v-.816h4.909v.816c0 .45-.366.816-.818.816z"/></g><path fill="#FFF" d="M23.156 19.589h3.272v16.324h-3.272z"/><g fill="#F4F4F4"><path d="M23.156 34.28h3.272c.452 0 .818.366.818.817v.816h-4.909v-.816c0-.45.367-.816.819-.816zM19.883 19.589h-3.272a.817.817 0 0 1-.818-.816v-.816H20.7v.816c0 .45-.366.816-.818.816z"/></g><path fill="#FFF" d="M16.61 19.589h3.273v16.324H16.61z"/><g fill="#F4F4F4"><path d="M16.611 34.28h3.272c.452 0 .818.366.818.817v.816h-4.908v-.816c0-.45.366-.816.818-.816zM13.339 19.589h-3.272a.817.817 0 0 1-.819-.816v-.816h4.909v.816c0 .45-.366.816-.818.816z"/></g><path fill="#FFF" d="M10.067 19.589h3.272v16.324h-3.272z"/><g fill="#F4F4F4"><path d="M10.066 34.28h3.273c.451 0 .818.366.818.817v.816H9.248v-.816c0-.45.367-.816.818-.816zM32.972 19.589H29.7a.817.817 0 0 1-.818-.816v-.816h4.908v.816c0 .45-.366.816-.818.816z"/></g><path fill="#FFF" d="M29.7 19.589h3.272v16.324H29.7z"/><g fill="#F4F4F4"><path d="M29.7 34.28h3.272c.452 0 .818.366.818.817v.816h-4.908v-.816c0-.45.366-.816.818-.816zM46.061 19.589H42.79a.817.817 0 0 1-.818-.816v-.816h4.908v.816c0 .45-.366.816-.818.816z"/></g><path fill="#FFF" d="M42.789 19.589h3.272v16.324h-3.272z"/><g fill="#F4F4F4"><path d="M42.79 34.28h3.271c.452 0 .818.366.818.817v.816h-4.908v-.816c0-.45.366-.816.818-.816zM39.517 19.589h-3.272a.817.817 0 0 1-.818-.816v-.816h4.908v.816c0 .45-.366.816-.818.816z"/></g><path fill="#FFF" d="M36.245 19.589h3.272v16.324h-3.272z"/><path d="M36.245 34.28h3.272c.452 0 .818.366.818.817v.816h-4.909v-.816c0-.45.367-.816.819-.816zM24.792 4.545l15.467 8.514H9.324l15.468-8.514" fill="#F4F4F4"/></g></svg>