<svg xmlns="http://www.w3.org/2000/svg" width="31" height="44" viewBox="0 0 31 44">
  <path fill="#D0011B" fill-rule="evenodd" d="M19.5555556,0 L3.27316033,0 C1.46544379,0 0,1.46395874 0,3.27120435 L0,40.7287957 C0,42.535432 1.45187841,44 3.25505793,44 L27.7079051,44 C29.505624,44 30.962963,42.5481216 30.962963,40.7449421 L30.962963,13.037037 L22.8244608,13.037037 C21.0190943,13.037037 19.5555556,11.592034 19.5555556,9.78087187 L19.5555556,0 L19.5555556,0 Z M4.88888889,11.4074074 L4.88888889,13.037037 L13.037037,13.037037 L13.037037,11.4074074 L4.88888889,11.4074074 L4.88888889,11.4074074 Z M4.88888889,6.51851852 L4.88888889,8.14814815 L16.2962963,8.14814815 L16.2962963,6.51851852 L4.88888889,6.51851852 L4.88888889,6.51851852 Z M4.88888889,16.2962963 L4.88888889,17.9259259 L26.0740741,17.9259259 L26.0740741,16.2962963 L4.88888889,16.2962963 L4.88888889,16.2962963 Z M4.88888889,37.4814815 L4.88888889,39.1111111 L26.0740741,39.1111111 L26.0740741,37.4814815 L4.88888889,37.4814815 L4.88888889,37.4814815 Z M21.1851852,0 L21.1851852,9.77300405 C21.1851852,10.6756601 21.9201077,11.4074074 22.7997864,11.4074074 L30.962963,11.4074074 L21.1851852,0 L21.1851852,0 Z M13.037037,22.8148148 L13.037037,24.4444444 L26.0740741,24.4444444 L26.0740741,22.8148148 L13.037037,22.8148148 L13.037037,22.8148148 Z M6.51851852,22.8148148 L6.51851852,24.4444444 L8.14814815,24.4444444 L8.14814815,22.8148148 L6.51851852,22.8148148 L6.51851852,22.8148148 Z M6.51851852,30.962963 L6.51851852,32.5925926 L8.14814815,32.5925926 L8.14814815,30.962963 L6.51851852,30.962963 L6.51851852,30.962963 Z M4.88888889,26.0740741 L9.77777778,26.0740741 L9.77777778,21.1851852 L4.88888889,21.1851852 L4.88888889,26.0740741 Z M13.037037,30.962963 L13.037037,32.5925926 L26.0740741,32.5925926 L26.0740741,30.962963 L13.037037,30.962963 L13.037037,30.962963 Z M4.88888889,29.3333333 L4.88888889,34.2222222 L9.77777778,34.2222222 L9.77777778,29.3333333 L4.88888889,29.3333333 L4.88888889,29.3333333 Z"/>
</svg>
