<svg width="46" height="45" viewBox="0 0 46 45"><g fill="#FFF" fillRule="evenodd"><path d="M18.168 10.367l-.817-.817a.94.94 0 0 1 0-1.328l6.718-6.718a.94.94 0 0 1 1.327 0l.818.818a.94.94 0 0 1 0 1.327l-6.718 6.718a.94.94 0 0 1-1.328 0zM33.188 25.387l-.818-.817a.94.94 0 0 1 0-1.328l6.719-6.718a.94.94 0 0 1 1.327 0l.818.817a.94.94 0 0 1 0 1.328l-6.718 6.718a.94.94 0 0 1-1.328 0z"/><path d="M39.089 15.195l-.945-.945a.753.753 0 0 0-1.067-.007.76.76 0 0 1-1.08.007l-7.51-7.51a.752.752 0 0 1-.006-1.065.76.76 0 0 0 .007-1.08l-.945-.945a.94.94 0 0 0-1.328 0l-6.718 6.718a.94.94 0 0 0 0 1.328l.945.945a.752.752 0 0 0 1.066.007.76.76 0 0 1 1.08-.007l1.21 1.21a1.322 1.322 0 0 1 0 1.87L17.76 21.76l-1.072-1.073a1.517 1.517 0 1 0-2.146 2.145l1.073 1.073L8.2 31.321a3.886 3.886 0 0 1-1.805 1.021l-2.204.551a3.886 3.886 0 0 0-1.805 1.022l-.247.247a3.887 3.887 0 0 0 0 5.495l.943.943a3.886 3.886 0 0 0 5.494 0l.246-.247a3.886 3.886 0 0 0 1.022-1.804l.551-2.204a3.886 3.886 0 0 1 1.022-1.805l7.415-7.415 1.073 1.072a1.517 1.517 0 1 0 2.145-2.145l-1.072-1.073 6.038-6.038a1.322 1.322 0 0 1 1.87 0l1.21 1.21a.753.753 0 0 1 .007 1.067.76.76 0 0 0-.007 1.08l.946.945a.94.94 0 0 0 1.327 0l6.719-6.719a.939.939 0 0 0 .002-1.329zM45 44.772H29.069a4.551 4.551 0 0 1 4.552-4.551h6.827A4.551 4.551 0 0 1 45 44.772z"/><path d="M41.966 40.22h-9.863a.758.758 0 1 1 0-1.517h9.863a.758.758 0 1 1 0 1.518z"/></g></svg>
