<svg width="59" height="59" viewBox="0 0 59 59" xmlns="http://www.w3.org/2000/svg"><title>Proces begins</title><path d="M56.54 35.617c-1.668-1.599-2.572-3.823-2.572-6.117s.904-4.449 2.572-6.117c.278-.278.556-.487.904-.765.486-.347.626-.973.486-1.529-.556-2.016-1.39-3.962-2.363-5.77a1.412 1.412 0 0 0-1.39-.695c-.487.07-.834.07-1.182.07-4.796 0-8.689-3.893-8.689-8.62 0-.347 0-.764.07-1.181a1.412 1.412 0 0 0-.696-1.39c-1.807-.974-3.753-1.808-5.769-2.364-.556-.139-1.182.07-1.53.487-.277.347-.555.695-.764.903-1.668 1.599-3.823 2.503-6.117 2.503s-4.518-.904-6.117-2.503c-.278-.278-.487-.556-.765-.903-.347-.487-.973-.626-1.529-.487-2.016.626-3.962 1.39-5.77 2.363a1.412 1.412 0 0 0-.695 1.39c.07.487.07.835.07 1.182 0 4.797-3.893 8.62-8.69 8.62-.347 0-.764 0-1.18-.07a1.412 1.412 0 0 0-1.391.696c-.973 1.807-1.807 3.753-2.363 5.769-.14.556 0 1.182.486 1.53.417.277.695.555.904.764 3.406 3.337 3.406 8.828 0 12.234-.278.278-.556.487-.904.765-.486.347-.626.973-.486 1.529.625 2.016 1.39 3.962 2.363 5.77.278.486.834.764 1.39.695.487-.07.834-.07 1.182-.07 4.796 0 8.689 3.893 8.689 8.62 0 .347 0 .764-.07 1.181-.07.556.209 1.113.696 1.39 1.807.974 3.753 1.808 5.769 2.364.556.139 1.182 0 1.53-.487.277-.347.555-.695.764-.903 1.668-1.599 3.823-2.503 6.117-2.503s4.518.904 6.117 2.503c.278.278.487.556.765.903.278.348.695.556 1.112.556.139 0 .278 0 .417-.069 2.016-.626 3.962-1.39 5.77-2.363.486-.278.764-.835.695-1.39-.07-.487-.07-.835-.07-1.182 0-4.797 3.893-8.62 8.69-8.62.347 0 .764 0 1.18.07a1.412 1.412 0 0 0 1.391-.696c.973-1.807 1.807-3.753 2.363-5.769.14-.556 0-1.182-.486-1.53-.348-.277-.695-.486-.904-.764zM29.5 12.957c-9.106 0-16.544 7.437-16.544 16.543 0 9.106 7.438 16.544 16.544 16.544 9.106 0 16.544-7.438 16.544-16.544 0-9.106-7.438-16.544-16.544-16.544z" fill="#FFF" fill-rule="evenodd"/></svg>