<svg width="38" height="45" viewBox="0 0 38 45">
  <defs>
    <path id="a" d="M10.5147059,9.49019608 L5.87343059,10.2348918 C5.54089412,10.2832918 5.31256,10.5879271 5.36067529,10.9204635 C5.38886118,11.1089388 5.50929176,11.2772 5.68125412,11.36916 C13.9693271,15.0202282 23.4115976,15.0202282 31.7036565,11.36916 C32.00032,11.2128565 32.1122094,10.8521341 31.9601765,10.5557553 C31.8679318,10.3832235 31.6996706,10.2633624 31.5111953,10.2348918 L27.122549,9.49019608 C26.5653796,6.98535373 25.3270988,3.10927294 23.8241365,1.03319765 C23.1750071,0.127548235 21.9123365,-0.0728847059 21.0106729,0.576529412 C20.9468988,0.624644706 20.8865412,0.676461176 20.8304541,0.728562353 C19.6201694,1.84290118 17.7604706,1.84290118 16.5538871,0.728562353 C15.7322259,-0.0247694118 14.4618682,0.0313176471 13.7085365,0.845007059 C13.6564353,0.90508 13.6043341,0.965152941 13.5562188,1.03319765 C12.0532565,3.10927294 11.0718753,6.98535373 10.5147059,9.49019608 Z"/>
    <mask id="b" width="28.674" height="15.912" x="-1" y="-1">
      <rect width="28.674" height="15.912" x="4.354" y="-.804" fill="white"/>
      <use fill="black" xlinkHref="#a"/>
    </mask>
  </defs>
  <g fill="none" fillRule="evenodd" transform="translate(0 1)">
    <path fill="#FFFFFF" d="M31.4068323 28.206789C31.4068323 28.206789 27.6705421 27.0869533 25.6840181 25.8246308 25.5264131 25.723645 25.379315 25.6226592 25.2469268 25.5223651 25.188788 25.4580385 25.0052657 25.3314604 24.9478275 25.2629838 24.7502958 25.1246471 24.6508295 24.9939189 24.461003 24.7497546 24.1675074 27.5434645 23.0313501 32.8922535 23.0313501 32.8922535 22.2461268 31.6140223 21.5463604 30.7335091 20.9488622 30.1234442 20.6749796 31.0648256 20.3821845 31.6942576 20.0998964 32.1092677 21.0301163 35.3664057 21.4588021 42.8628722 21.5015305 43.6313327 25.2119035 43.2910243 31.8481264 42.4416369 36.2827821 40.4910892 36.2827821 40.4910892 37.1905871 40.2745923 37.2277119 38.1919331 37.2277119 38.1919331 36.9005938 34.0985497 34.0987264 30.0023996 34.0987264 30.0030913 33.2966919 28.9247566 31.4068323 28.206789zM23.2358865 23.6859452C23.2975275 23.54 23.3542654 23.3982049 23.3997957 23.2681684 23.3801826 23.104931 23.3689752 22.9375436 23.3675742 22.7646227L23.3661733 22.5993103 23.4719438 22.4727323C23.5763134 22.3496126 23.6799824 22.2237262 23.7787483 22.0964564L23.8431912 22.0148377C23.8719104 21.9774868 23.8985281 21.9387525 23.9265468 21.9007099 24.5702758 21.0354138 25.0991283 20.0677485 25.454265 19.0910913L25.4885879 18.997714 25.5586345 18.9285456C26.0552655 18.4388337 26.4047985 17.2090203 26.4965597 16.7781014L26.5147718 16.7206917C26.9602687 15.4839615 26.7732441 14.9880243 26.6730773 14.8317039L26.5567998 14.6539412 26.6247451 14.4526613C26.6730773 14.3157079 27.7517963 11.0537282 26.2689079 8.58095943L26.2177739 8.45092292C26.1981608 8.36031237 25.6588013 6.17805071 22.9704095 5.17510953L22.8954596 5.13775862C21.659836 4.39074037 19.8890558 4.22266126 18.6149066 4.24687018L18.6149066 4.25171197C17.340057 4.22681136 15.5699772 4.39558215 14.3343537 5.14260041L14.2594037 5.17995132C11.5717124 6.18289249 11.0323529 8.36446247 11.0120394 8.45507302L10.9588039 8.58580122C9.47591559 11.0578783 10.5546345 14.3205497 10.6029668 14.457503L10.670912 14.658783 10.5546345 14.8365456C10.4530669 14.9935578 10.2667427 15.4894949 10.7129401 16.7262252L10.7311522 16.7836349C10.8229134 17.2152454 11.1717458 18.4443671 11.6690773 18.9347708L11.7384235 19.0039391 11.7734469 19.0973164C12.1439938 20.1161663 12.7022659 21.1274077 13.3845206 22.0203712L13.4489636 22.1012982C13.5484299 22.228568 13.650698 22.355146 13.7557681 22.4782657L13.8615386 22.6041521 13.8601376 22.7687728C13.8587367 22.9416937 13.8475292 23.1097728 13.8272157 23.2730101 14.3175425 24.6632941 15.6932594 27.0357688 18.0895565 28.0622272 18.2569681 28.134854 18.4327852 28.1991805 18.6142062 28.2565903L18.6142062 28.2510568C18.7956271 28.1929554 18.9721447 28.1286288 19.1388558 28.0573854 21.3096026 27.1284544 22.6404896 25.0949047 23.2358865 23.6859452zM14.1956613 32.8970953C14.1956613 32.8970953 13.059504 27.548998 12.7660084 24.755288 12.5768824 25.000144 12.4781165 25.1294888 12.2798844 25.2678256 12.2224461 25.3363022 12.0389238 25.4628803 11.9807851 25.5285903 11.8483968 25.6281927 11.7019993 25.7284868 11.5436937 25.8301643 9.55716975 27.0931785 5.82087955 28.2116308 5.82087955 28.2116308 3.93031951 28.9309817 3.12898543 30.0086247 3.12898543 30.0086247.327118021 34.1040832 0 38.1974665 0 38.1974665.0371247432 40.2815091.944929785 40.4973144.944929785 40.4973144 5.3781845 42.4478621 12.0151079 43.2965578 15.7254809 43.6361744 15.7682093 42.8684057 16.1968951 35.3726308 17.127115 32.1148012 16.8441264 31.7004828 16.5513313 31.070359 16.2781492 30.1289777 15.67925 30.7390426 14.9808846 31.6202475 14.1956613 32.8970953z"/>
    <use fill="#FFFFFF" xlinkHref="#a"/>
    <use stroke="#1A1A1A" strokeWidth="2" mask="url(#b)" xlinkHref="#a"/>
  </g>
</svg>
