<svg width="39" height="44" viewBox="0 0 39 44" xmlns="http://www.w3.org/2000/svg" xmlns:xlink="http://www.w3.org/1999/xlink"><title>Start investigation</title><defs><path d="M5.873 10.235l4.642-.745a22.011 22.011 0 0 0 16.608 0l4.388.745a.604.604 0 0 1 .192 1.134 32.28 32.28 0 0 1-26.022 0 .603.603 0 0 1 .192-1.134z" id="a"/><mask id="b" x="-1" y="-1" width="28.674" height="6.617"><path fill="#fff" d="M4.354 8.49h28.674v6.617H4.354z"/><use xlink:href="#a"/></mask></defs><g fill="none" fill-rule="evenodd"><path d="M32.407 28.207s-3.736-1.12-5.723-2.382a6.831 6.831 0 0 1-.437-.303c-.058-.064-.242-.19-.3-.259-.197-.138-.296-.27-.486-.513-.293 2.793-1.43 8.142-1.43 8.142-.785-1.278-1.485-2.158-2.082-2.769-.274.942-.567 1.571-.85 1.986.931 3.257 1.36 10.754 1.403 11.522 3.71-.34 10.346-1.19 14.78-3.14 0 0 .909-.216.946-2.3 0 0-.327-4.092-3.13-8.189 0 .001-.801-1.077-2.691-1.795zM24.236 23.686a7.3 7.3 0 0 0 .164-.418c-.02-.163-.031-.33-.032-.503l-.002-.166.106-.126c.104-.123.208-.25.307-.377l.064-.081.084-.114a11.171 11.171 0 0 0 1.527-2.81l.035-.093.07-.07c.496-.49.846-1.719.938-2.15l.018-.057c.445-1.237.258-1.733.158-1.89l-.116-.177.068-.201c.048-.137 1.127-3.4-.356-5.872l-.051-.13c-.02-.09-.56-2.273-3.248-3.276l-.075-.037c-1.235-.747-3.006-.915-4.28-.891v.005c-1.275-.025-3.045.144-4.28.89l-.076.038c-2.687 1.003-3.227 3.184-3.247 3.275l-.053.13c-1.483 2.473-.404 5.736-.356 5.873l.068.2-.116.179c-.102.157-.288.652.158 1.89l.018.057c.092.431.44 1.66.938 2.15l.07.07.034.093c.371 1.02.93 2.03 1.612 2.923l.064.081c.1.128.202.254.307.377l.106.126-.002.165a4.367 4.367 0 0 1-.033.504c.49 1.39 1.866 3.763 4.263 4.79.167.072.343.136.524.194v-.006c.182-.058.358-.122.525-.194 2.17-.929 3.501-2.962 4.097-4.371zM15.196 32.897s-1.136-5.348-1.43-8.142c-.19.245-.288.374-.486.513-.058.068-.241.195-.3.26-.132.1-.278.2-.436.302-1.987 1.263-5.723 2.382-5.723 2.382-1.89.719-2.692 1.797-2.692 1.797C1.327 34.104 1 38.197 1 38.197c.037 2.085.945 2.3.945 2.3 4.433 1.95 11.07 2.8 14.78 3.14.043-.769.472-8.264 1.402-11.522-.283-.415-.576-1.045-.849-1.986-.599.61-1.297 1.491-2.082 2.768z" fill="#FFF"/><g transform="translate(1)"><use fill="#FFF" xlink:href="#a"/><use stroke="#1A1A1A" mask="url(#b)" stroke-width="2" xlink:href="#a"/></g><path d="M21.83.729a3.153 3.153 0 0 1-4.276 0 2.018 2.018 0 0 0-2.845.116c-.053.06-.105.12-.153.188-1.503 2.076-2.484 5.952-3.041 8.457 2.965 2.966 14.235 2.373 16.608 0-.558-2.505-1.796-6.38-3.299-8.457a2.014 2.014 0 0 0-2.813-.456c-.064.048-.124.1-.18.152z" fill="#FFF"/></g></svg>