<svg width="49" height="46" viewBox="0 0 49 46"><g transform="translate(1 1)" fill="#FFF" fillRule="evenodd"><path d="M37.322 34.395c-5.245 0-9.513-3.611-9.513-8.05 0-.404.327-.732.732-.732h17.563c.404 0 .732.328.732.732 0 4.439-4.268 8.05-9.514 8.05zm-8-7.318c.446 3.289 3.864 5.854 8 5.854 4.137 0 7.554-2.565 8-5.854h-16zM.731 27.077a.732.732 0 0 1-.657-1.052L8.25 9.194a.732.732 0 0 1 1.317.64L1.39 26.664a.732.732 0 0 1-.659.412z"/><path d="M18.296 27.077a.732.732 0 0 1-.659-.412L9.461 9.833a.732.732 0 0 1 1.316-.64l8.177 16.832a.732.732 0 0 1-.658 1.052zM28.54 27.077a.732.732 0 0 1-.657-1.052l8.176-16.831a.732.732 0 0 1 1.316.64L29.2 26.664a.732.732 0 0 1-.66.412z"/><path d="M46.105 27.077a.732.732 0 0 1-.66-.412L37.27 9.833a.732.732 0 0 1 1.317-.64l8.176 16.832a.732.732 0 0 1-.657 1.052zM8.05 8.39a.729.729 0 0 1-.336-.08A6.59 6.59 0 0 1 6.08 7.113L4.605 5.64A.732.732 0 1 1 5.64 4.605L7.114 6.08a5.11 5.11 0 0 0 1.272.93.732.732 0 0 1-.337 1.382zM10.976 9.038a.731.731 0 0 1-.029-1.463 5.084 5.084 0 0 0 1.981-.49l7.982-3.78a.731.731 0 1 1 .625 1.324l-7.98 3.78a6.535 6.535 0 0 1-2.579.629zM38.787 8.39a.732.732 0 0 1-.337-1.381 5.106 5.106 0 0 0 1.272-.93l1.474-1.474A.732.732 0 1 1 42.23 5.64l-1.474 1.474a6.582 6.582 0 0 1-1.635 1.195.73.73 0 0 1-.335.082zM35.86 9.038h-.031a6.543 6.543 0 0 1-2.549-.63l-7.98-3.78a.732.732 0 1 1 .626-1.322l7.981 3.78c.625.296 1.292.46 1.982.489a.732.732 0 0 1-.03 1.463zM21.954 38.054V4.681h2.928v33.373"/><path d="M23.418 37.322a5.861 5.861 0 0 0-5.854 5.855.732.732 0 1 0 1.463 0h8.782a.732.732 0 1 0 1.463 0 5.861 5.861 0 0 0-5.854-5.855z"/><path d="M32.2 43.909H14.636a.732.732 0 1 1 0-1.464H32.2a.732.732 0 1 1 0 1.464zM18.295 25.613H.732a.732.732 0 0 0-.732.732c0 4.439 4.268 8.05 9.514 8.05 5.245 0 9.513-3.611 9.513-8.05a.732.732 0 0 0-.732-.732z"/><path d="M.732 25.613a.732.732 0 0 0-.732.732c0 4.439 4.268 8.05 9.514 8.05v-8.782H.732zM46.104 25.613H28.541a.732.732 0 0 0-.732.732c0 4.439 4.268 8.05 9.513 8.05 5.246 0 9.514-3.611 9.514-8.05a.732.732 0 0 0-.732-.732z"/><path d="M28.54 25.613a.732.732 0 0 0-.731.732c0 4.439 4.268 8.05 9.513 8.05v-8.782h-8.781z"/><circle cx="9.514" cy="8.05" r="2.195"/><ellipse cx="37.322" cy="8.05" rx="2.195" ry="2.195"/><circle cx="23.418" cy="2.927" r="2.927"/><circle cx="23.418" cy="2.927" r="1.464"/></g></svg>
